<svg id="visual" viewBox="0 0 1920 1080" width="1920" height="1080" xmlns="http://www.w3.org/2000/svg" xmlns:xlink="http://www.w3.org/1999/xlink" version="1.1"><rect x="0" y="0" width="1920" height="1080" fill="#f5f5f5"></rect><defs><linearGradient id="grad1_0" x1="43.8%" y1="0%" x2="100%" y2="100%"><stop offset="14.444444444444446%" stop-color="#544d91" stop-opacity="1"></stop><stop offset="85.55555555555554%" stop-color="#544d91" stop-opacity="1"></stop></linearGradient></defs><defs><linearGradient id="grad1_1" x1="43.8%" y1="0%" x2="100%" y2="100%"><stop offset="14.444444444444446%" stop-color="#544d91" stop-opacity="1"></stop><stop offset="85.55555555555554%" stop-color="#f5f5f5" stop-opacity="1"></stop></linearGradient></defs><defs><linearGradient id="grad2_0" x1="0%" y1="0%" x2="56.3%" y2="100%"><stop offset="14.444444444444446%" stop-color="#544d91" stop-opacity="1"></stop><stop offset="85.55555555555554%" stop-color="#544d91" stop-opacity="1"></stop></linearGradient></defs><defs><linearGradient id="grad2_1" x1="0%" y1="0%" x2="56.3%" y2="100%"><stop offset="14.444444444444446%" stop-color="#f5f5f5" stop-opacity="1"></stop><stop offset="85.55555555555554%" stop-color="#544d91" stop-opacity="1"></stop></linearGradient></defs><g transform="translate(1920, 0)"><path d="M0 486C-57.1 490.9 -114.2 495.8 -150.2 462.2C-186.2 428.6 -201.1 356.6 -231 317.9C-260.9 279.3 -305.8 274 -346.3 251.6C-386.7 229.1 -422.6 189.4 -445.1 144.6C-467.6 99.8 -476.8 49.9 -486 0L0 0Z" fill="#a49dc3"></path><path d="M0 243C-28.5 245.4 -57.1 247.9 -75.1 231.1C-93.1 214.3 -100.5 178.3 -115.5 159C-130.5 139.6 -152.9 137 -173.1 125.8C-193.3 114.6 -211.3 94.7 -222.5 72.3C-233.8 49.9 -238.4 25 -243 0L0 0Z" fill="#544d91"></path></g><g transform="translate(0, 1080)"><path d="M0 -486C49.3 -466.4 98.5 -446.7 135 -415.6C171.6 -384.5 195.4 -342 229.2 -315.5C263.1 -289 307 -278.6 351.1 -255.1C395.3 -231.6 439.7 -194.9 462.2 -150.2C484.7 -105.5 485.4 -52.7 486 0L0 0Z" fill="#a49dc3"></path><path d="M0 -243C24.6 -233.2 49.3 -223.4 67.5 -207.8C85.8 -192.3 97.7 -171 114.6 -157.8C131.5 -144.5 153.5 -139.3 175.6 -127.5C197.6 -115.8 219.8 -97.4 231.1 -75.1C242.4 -52.7 242.7 -26.4 243 0L0 0Z" fill="#544d91"></path></g></svg>