<svg width="869" height="818" viewBox="0 0 869 818" fill="none" xmlns="http://www.w3.org/2000/svg">
<path d="M124.276 730L123.028 722.224L129.556 720.88V672.592L123.22 671.92V663.664H145.876C150.484 663.664 154.484 664.208 157.876 665.296C161.332 666.32 164.148 667.792 166.324 669.712C168.5 671.632 170.132 673.936 171.22 676.624C172.308 679.248 172.852 682.192 172.852 685.456C172.852 690.064 171.796 694.064 169.684 697.456C167.636 700.784 164.596 703.376 160.564 705.232C156.596 707.024 151.7 707.92 145.876 707.92H141.172V720.4L155.572 722.512L155.092 730H124.276ZM141.172 698.416H142.708C147.7 698.416 151.476 697.872 154.036 696.784C156.596 695.632 158.324 694.064 159.22 692.08C160.18 690.096 160.66 687.792 160.66 685.168C160.66 681.456 159.476 678.544 157.108 676.432C154.804 674.256 151.284 673.168 146.548 673.168H141.172V698.416ZM191.305 730.384C188.361 730.384 185.833 729.84 183.721 728.752C181.673 727.664 180.072 726.16 178.921 724.24C177.833 722.256 177.289 720.048 177.289 717.616C177.289 714.736 178.025 712.336 179.497 710.416C180.969 708.496 182.889 706.96 185.257 705.808C187.689 704.592 190.281 703.728 193.033 703.216C195.785 702.704 198.473 702.416 201.097 702.352V694.96C201.097 694.064 200.553 693.264 199.465 692.56C198.377 691.856 196.713 691.504 194.473 691.504C193.897 691.504 193.289 691.536 192.649 691.6C192.009 691.664 191.497 691.792 191.113 691.984L188.713 698.704L177.48 694.096C178.761 691.024 181.001 688.432 184.201 686.32C187.465 684.144 191.241 683.056 195.529 683.056C198.409 683.056 201.065 683.568 203.497 684.592C205.929 685.552 207.913 687.152 209.449 689.392C210.985 691.568 211.753 694.512 211.753 698.224V720.304C211.753 721.136 211.913 721.712 212.233 722.032C212.617 722.352 213.065 722.512 213.577 722.512C213.897 722.512 214.217 722.48 214.537 722.416C214.857 722.352 215.049 722.32 215.113 722.32L216.745 727.408C216.297 727.856 215.401 728.464 214.057 729.232C212.777 730 211.241 730.384 209.449 730.384C207.529 730.384 205.993 729.968 204.841 729.136C203.689 728.304 202.761 727.216 202.057 725.872C200.777 727.152 199.209 728.24 197.353 729.136C195.561 729.968 193.545 730.384 191.305 730.384ZM193.321 721.744C195.113 721.744 196.713 721.264 198.121 720.304C199.529 719.344 200.521 718.288 201.097 717.136V710.032C199.817 710.032 198.441 710.16 196.969 710.416C195.497 710.608 194.089 710.96 192.745 711.472C191.465 711.92 190.409 712.592 189.577 713.488C188.745 714.32 188.329 715.44 188.329 716.848C188.329 718.128 188.745 719.28 189.577 720.304C190.409 721.264 191.657 721.744 193.321 721.744ZM238.828 756.016C235.18 756.016 231.948 755.376 229.132 754.096C226.316 752.88 224.14 751.184 222.604 749.008C221.068 746.832 220.3 744.336 220.3 741.52C220.3 738.448 221.036 735.888 222.508 733.84C224.044 731.856 225.836 730.256 227.884 729.04C227.18 728.272 226.604 727.376 226.156 726.352C225.708 725.328 225.484 724.144 225.484 722.8C225.484 721.2 225.804 719.76 226.444 718.48C227.148 717.136 228.012 715.984 229.036 715.024C226.86 713.616 225.068 711.76 223.66 709.456C222.252 707.088 221.548 704.272 221.548 701.008C221.548 697.168 222.444 693.936 224.236 691.312C226.092 688.624 228.46 686.576 231.34 685.168C234.22 683.76 237.228 683.056 240.364 683.056C242.604 683.056 244.78 683.408 246.892 684.112C249.004 684.816 250.924 685.84 252.652 687.184L262.828 682L264.94 682.288L265.996 691.312L257.164 692.368C257.804 693.584 258.316 694.928 258.7 696.4C259.084 697.808 259.276 699.344 259.276 701.008C259.276 704.72 258.348 707.856 256.492 710.416C254.7 712.976 252.364 714.928 249.484 716.272C246.668 717.552 243.628 718.192 240.364 718.192C239.852 718.192 239.34 718.192 238.828 718.192C238.38 718.192 237.932 718.128 237.484 718L235.66 720.688L235.948 722.128L245.74 724.24C249.004 724.944 251.756 725.904 253.996 727.12C256.3 728.336 258.028 729.808 259.18 731.536C260.332 733.328 260.908 735.472 260.908 737.968C260.908 741.808 259.884 745.072 257.836 747.76C255.852 750.448 253.196 752.496 249.868 753.904C246.54 755.312 242.86 756.016 238.828 756.016ZM241.132 745.36C242.988 745.36 244.748 745.104 246.411 744.592C248.076 744.144 249.452 743.472 250.54 742.576C251.692 741.68 252.268 740.656 252.268 739.504C252.268 738.352 251.724 737.456 250.636 736.816C249.548 736.24 248.108 735.728 246.316 735.28C244.588 734.896 242.668 734.512 240.556 734.128C238.508 733.744 236.524 733.264 234.604 732.688C233.068 733.52 231.916 734.48 231.148 735.568C230.444 736.656 230.092 737.84 230.092 739.12C230.092 740.144 230.476 741.136 231.244 742.096C232.012 743.056 233.196 743.824 234.796 744.4C236.396 745.04 238.508 745.36 241.132 745.36ZM240.364 709.744C243.052 709.744 245.036 708.848 246.316 707.056C247.596 705.2 248.236 703.024 248.236 700.528C248.236 698.16 247.596 696.08 246.316 694.288C245.036 692.432 243.052 691.504 240.364 691.504C237.74 691.504 235.788 692.432 234.508 694.288C233.228 696.08 232.588 698.16 232.588 700.528C232.588 703.024 233.228 705.2 234.508 707.056C235.788 708.848 237.74 709.744 240.364 709.744ZM290.766 730.384C286.99 730.384 283.438 729.52 280.11 727.792C276.846 726 274.19 723.376 272.142 719.92C270.158 716.464 269.166 712.208 269.166 707.152C269.166 701.712 270.19 697.232 272.238 693.712C274.286 690.128 276.942 687.472 280.206 685.744C283.47 683.952 286.862 683.056 290.382 683.056C293.07 683.056 295.63 683.536 298.062 684.496C300.494 685.392 302.478 686.832 304.014 688.816C305.614 690.736 306.414 693.168 306.414 696.112C306.414 698.928 305.806 701.296 304.59 703.216C303.438 705.136 301.806 706.704 299.694 707.92C297.646 709.136 295.31 710.032 292.686 710.608C290.126 711.12 287.438 711.344 284.622 711.28L280.398 711.184C280.782 714.192 281.902 716.72 283.758 718.768C285.614 720.816 288.526 721.84 292.494 721.84C295.31 721.84 297.614 721.328 299.406 720.304C301.262 719.28 302.766 718.224 303.918 717.136L306.126 724.912C305.422 725.744 304.334 726.576 302.862 727.408C301.39 728.24 299.63 728.944 297.582 729.52C295.534 730.096 293.262 730.384 290.766 730.384ZM280.398 703.504L283.374 703.6C284.654 703.664 285.998 703.6 287.406 703.408C288.814 703.152 290.126 702.768 291.342 702.256C292.622 701.744 293.614 701.008 294.318 700.048C295.086 699.088 295.47 697.872 295.47 696.4C295.47 694.8 294.99 693.616 294.03 692.848C293.07 692.016 291.886 691.6 290.478 691.6C288.75 691.6 287.15 692.144 285.678 693.232C284.206 694.32 282.99 695.76 282.03 697.552C281.134 699.344 280.59 701.328 280.398 703.504ZM337.747 730L336.403 722.128L342.835 720.88V672.688L336.787 672.112V663.664H360.019L382.483 721.072V672.592L376.819 671.824V663.664H396.883L398.227 672.016L391.891 673.168V730H373.939L352.243 674.992V720.592L357.427 722.032L357.331 730H337.747ZM423.214 730.384C419.566 730.384 416.142 729.456 412.942 727.6C409.806 725.68 407.246 722.928 405.262 719.344C403.342 715.76 402.382 711.472 402.382 706.48C402.382 701.424 403.342 697.168 405.262 693.712C407.246 690.192 409.806 687.536 412.942 685.744C416.142 683.952 419.566 683.056 423.214 683.056C426.926 683.056 430.35 683.984 433.486 685.84C436.686 687.632 439.246 690.288 441.166 693.808C443.15 697.264 444.142 701.488 444.142 706.48C444.142 711.472 443.15 715.76 441.166 719.344C439.246 722.928 436.686 725.68 433.486 727.6C430.35 729.456 426.926 730.384 423.214 730.384ZM423.214 721.936C425.198 721.936 426.926 721.424 428.398 720.4C429.934 719.312 431.118 717.68 431.95 715.504C432.782 713.328 433.198 710.512 433.198 707.056C433.198 703.536 432.782 700.624 431.95 698.32C431.118 696.016 429.934 694.32 428.398 693.232C426.926 692.08 425.198 691.504 423.214 691.504C421.806 691.504 420.494 691.824 419.278 692.464C418.062 693.104 417.006 694.096 416.11 695.44C415.278 696.784 414.606 698.448 414.094 700.432C413.646 702.352 413.422 704.592 413.422 707.152C413.422 710.608 413.838 713.424 414.67 715.6C415.502 717.776 416.654 719.376 418.126 720.4C419.662 721.424 421.358 721.936 423.214 721.936ZM467.104 730.384C464.992 730.384 463.072 730 461.344 729.232C459.616 728.4 458.208 727.024 457.12 725.104C456.032 723.184 455.488 720.56 455.488 717.232L455.68 691.216H448.384L446.944 684.016L447.616 683.056H455.776L455.968 666.928L465.472 664.816L466.336 666.352L466.24 683.056H476.032C476.352 683.056 476.512 683.248 476.512 683.632V691.216H466.24V717.232C466.24 719.152 466.496 720.368 467.008 720.88C467.584 721.392 468.384 721.648 469.408 721.648C470.56 721.648 471.744 721.296 472.96 720.592C474.24 719.888 475.168 719.344 475.744 718.96L478.048 726.256C477.216 727.152 475.776 728.08 473.728 729.04C471.744 729.936 469.536 730.384 467.104 730.384ZM507.34 730L506.188 722.032L512.236 720.784V672.4L506.284 671.728V663.664H549.196L551.02 682.864H544.204L540.172 673.168H523.852V691.312H538.636V700.72H523.852V720.4L539.98 722.8L539.308 730H507.34ZM572.933 730.384C569.285 730.384 565.861 729.456 562.661 727.6C559.525 725.68 556.965 722.928 554.981 719.344C553.061 715.76 552.101 711.472 552.101 706.48C552.101 701.424 553.061 697.168 554.981 693.712C556.965 690.192 559.525 687.536 562.661 685.744C565.861 683.952 569.285 683.056 572.933 683.056C576.645 683.056 580.069 683.984 583.205 685.84C586.405 687.632 588.965 690.288 590.885 693.808C592.869 697.264 593.861 701.488 593.861 706.48C593.861 711.472 592.869 715.76 590.885 719.344C588.965 722.928 586.405 725.68 583.205 727.6C580.069 729.456 576.645 730.384 572.933 730.384ZM572.933 721.936C574.917 721.936 576.645 721.424 578.117 720.4C579.653 719.312 580.837 717.68 581.669 715.504C582.501 713.328 582.917 710.512 582.917 707.056C582.917 703.536 582.501 700.624 581.669 698.32C580.837 696.016 579.653 694.32 578.117 693.232C576.645 692.08 574.917 691.504 572.933 691.504C571.525 691.504 570.213 691.824 568.997 692.464C567.781 693.104 566.725 694.096 565.829 695.44C564.997 696.784 564.325 698.448 563.813 700.432C563.365 702.352 563.141 704.592 563.141 707.152C563.141 710.608 563.557 713.424 564.389 715.6C565.221 717.776 566.373 719.376 567.845 720.4C569.381 721.424 571.077 721.936 572.933 721.936ZM618.643 730.384C615.763 730.384 613.203 729.872 610.963 728.848C608.723 727.824 606.963 726.256 605.683 724.144C604.467 721.968 603.859 719.184 603.859 715.792V691.504H598.963L597.907 685.36L611.347 682.96L614.611 686.416V713.968C614.611 715.376 614.803 716.592 615.187 717.616C615.571 718.576 616.083 719.376 616.723 720.016C617.363 720.656 618.099 721.104 618.931 721.36C619.763 721.616 620.659 721.744 621.619 721.744C623.347 721.744 624.979 721.264 626.515 720.304C628.051 719.28 629.107 718.128 629.683 716.848V691.312L625.171 691.504L624.115 685.36L637.171 682.96L640.435 686.416V720.4C640.435 721.232 640.595 721.808 640.915 722.128C641.235 722.384 641.619 722.512 642.067 722.512C642.387 722.512 642.675 722.48 642.931 722.416C643.187 722.352 643.347 722.32 643.411 722.32L645.139 727.408C644.755 727.856 643.923 728.464 642.643 729.232C641.363 730 639.795 730.384 637.939 730.384C636.339 730.384 634.899 730.032 633.619 729.328C632.339 728.624 631.347 727.472 630.643 725.872C629.171 727.408 627.315 728.56 625.075 729.328C622.899 730.032 620.755 730.384 618.643 730.384ZM651.691 730L650.73 724.144L656.107 722.896V691.504H651.211L650.155 685.264L663.595 682.96L666.763 686.512C668.107 685.616 669.803 684.816 671.851 684.112C673.899 683.408 675.979 683.056 678.091 683.056C680.779 683.056 683.211 683.536 685.387 684.496C687.627 685.392 689.387 686.8 690.667 688.72C692.011 690.576 692.683 692.976 692.683 695.92V723.184L698.059 724.144L697.963 730H677.035L676.939 724.144L681.931 723.088V698.32C681.931 696.08 681.355 694.448 680.203 693.424C679.115 692.336 677.579 691.792 675.595 691.792C673.739 691.792 671.947 692.24 670.219 693.136C668.555 694.032 667.435 694.8 666.859 695.44V723.088L672.427 724.24L672.331 730H651.691ZM721.285 730.384C717.637 730.384 714.437 729.456 711.685 727.6C708.933 725.68 706.789 722.992 705.253 719.536C703.717 716.08 702.949 712.08 702.949 707.536C702.949 702.928 703.557 699.056 704.773 695.92C705.989 692.784 707.589 690.288 709.573 688.432C711.621 686.512 713.829 685.136 716.197 684.304C718.629 683.472 720.965 683.056 723.205 683.056C724.677 683.056 725.989 683.184 727.141 683.44C728.357 683.696 729.445 684.016 730.405 684.4V667.6L725.317 667.696L724.357 661.36L737.893 659.44L741.157 662.8V720.304C741.157 721.136 741.349 721.712 741.733 722.032C742.117 722.352 742.565 722.512 743.077 722.512C743.525 722.512 743.941 722.448 744.325 722.32C744.773 722.128 745.029 722 745.093 721.936L746.821 726.736C746.309 727.248 745.349 727.984 743.941 728.944C742.597 729.904 740.869 730.384 738.757 730.384C736.901 730.384 735.397 730.032 734.245 729.328C733.093 728.56 732.197 727.568 731.557 726.352C730.341 727.696 728.869 728.72 727.141 729.424C725.413 730.064 723.461 730.384 721.285 730.384ZM723.205 721.84C724.677 721.84 726.117 721.392 727.525 720.496C728.997 719.6 729.957 718.48 730.405 717.136V693.616C729.765 692.976 728.869 692.464 727.717 692.08C726.629 691.632 725.477 691.408 724.261 691.408C722.405 691.408 720.677 691.92 719.077 692.944C717.541 693.904 716.293 695.568 715.333 697.936C714.437 700.304 713.989 703.504 713.989 707.536C713.989 710.48 714.309 713.04 714.949 715.216C715.653 717.328 716.709 718.96 718.117 720.112C719.525 721.264 721.221 721.84 723.205 721.84Z" fill="#243448" fill-opacity="0.67"/>
<g clip-path="url(#clip0_11_90)">
<path d="M443.735 160.527C436.066 147.843 426.978 134.299 412.746 130.158C396.264 125.361 379.333 134.889 364.971 144.292C322.022 172.412 280.661 202.886 241.078 235.575L241.121 236.068C271.938 233.942 302.755 231.817 333.572 229.692C355.837 228.157 378.868 226.409 398.544 215.876C406.011 211.88 413.289 206.541 421.75 206.169C432.261 205.706 441.427 213.048 448.63 220.718C491.237 266.089 503.567 335.472 551.368 375.334C521.226 300.999 485.236 229.171 443.735 160.527Z" fill="#F2F2F2"/>
<path d="M705.636 545.355C700.925 539.406 698.999 538.012 694.352 532.008C656.509 483.064 620.94 432.466 587.644 380.215C565.028 344.729 543.534 308.561 523.161 271.711C513.462 254.192 504.029 236.536 494.861 218.742C487.748 204.946 480.793 191.066 473.997 177.104C472.053 173.117 470.165 169.111 468.286 165.095C463.858 155.653 459.512 146.165 454.846 136.851C449.529 126.235 443.057 115.106 433.294 107.974C428.85 104.595 423.537 102.55 417.975 102.079C410.027 101.566 402.693 104.848 395.799 108.432C345.361 134.733 298.14 167.708 255.43 205.23C212.61 242.836 174.336 285.322 141.388 331.821C140.38 333.26 137.996 331.885 139.014 330.437C143.02 324.772 147.106 319.167 151.271 313.624C203.059 244.746 266.56 185.515 338.87 138.638C351.036 130.755 363.43 123.24 376.053 116.096C382.415 112.493 388.805 108.936 395.304 105.599C401.676 102.327 408.441 99.3839 415.72 99.2739C440.49 98.8889 453.315 126.941 462.125 145.816C464.894 151.757 467.696 157.679 470.531 163.583C481.248 185.997 492.377 208.206 503.919 230.211C511.042 243.797 518.321 257.303 525.756 270.73C548.894 312.542 573.486 353.508 599.534 393.627C634.04 446.77 668.271 493.716 707.58 543.412C708.662 544.787 706.728 546.749 705.636 545.355Z" fill="#E4E4E4"/>
<path d="M252.982 191.378C251.543 189.774 250.113 188.169 248.664 186.565C237.242 173.933 224.985 161.447 209.3 154.204C201.821 150.642 193.656 148.75 185.373 148.658C176.811 148.686 168.441 150.932 160.53 154.076C156.789 155.57 153.131 157.266 149.529 159.072C145.413 161.144 141.37 163.353 137.346 165.581C129.792 169.761 122.335 174.125 114.977 178.672C100.337 187.72 86.1551 197.459 72.4318 207.888C65.3177 213.297 58.3505 218.883 51.53 224.646C45.1863 230 38.9709 235.497 32.8839 241.138C31.5822 242.339 29.6386 240.396 30.9403 239.195C32.5445 237.7 34.1672 236.215 35.7898 234.749C40.3735 230.605 45.0305 226.541 49.761 222.556C58.3872 215.277 67.2367 208.279 76.3095 201.563C90.4182 191.112 105.012 181.37 120.092 172.337C127.628 167.827 135.268 163.506 143.011 159.375C145.349 158.128 147.714 156.909 150.106 155.754C155.535 153.015 161.176 150.719 166.974 148.887C175.187 146.23 183.877 145.377 192.45 146.385C200.728 147.589 208.703 150.348 215.955 154.516C231.356 163.124 243.301 176.435 254.925 189.425C256.099 190.745 254.164 192.698 252.982 191.378Z" fill="#E4E4E4"/>
<path d="M568.542 322.285L605.447 308.787L623.77 302.085C629.738 299.902 635.691 297.418 641.86 295.855C647.221 294.323 652.913 294.396 658.234 296.063C662.978 297.819 667.321 300.512 671.005 303.98C674.768 307.445 678.269 311.184 681.48 315.166C685.469 319.961 689.399 324.805 693.347 329.634C709.641 349.561 725.829 369.575 741.91 389.675C757.991 409.775 773.964 429.96 789.83 450.231C805.735 470.551 821.53 490.956 837.216 511.447C839.137 513.957 841.057 516.468 842.975 518.981C844.035 520.369 846.425 519 845.35 517.593C829.548 496.896 813.637 476.285 797.615 455.758C781.554 435.182 765.382 414.693 749.099 394.292C732.816 373.891 716.423 353.579 699.92 333.355C695.809 328.316 691.691 323.283 687.566 318.256C684.086 314.015 680.646 309.729 676.829 305.782C669.824 298.537 661.072 292.134 650.595 291.96C644.435 291.858 638.474 293.813 632.751 295.883C626.581 298.115 620.426 300.389 614.265 302.642L577.102 316.235L567.811 319.633C566.163 320.236 566.875 322.895 568.542 322.285Z" fill="#E4E4E4"/>
<path d="M204.443 170.1C185.689 160.461 161.672 162.349 144.438 174.391C177.31 180.063 209.822 187.651 241.809 197.117C228.526 189.333 218.136 177.137 204.443 170.1Z" fill="#F2F2F2"/>
<path d="M144.253 174.358L140.643 177.293C141.864 176.266 143.134 175.303 144.438 174.391C144.376 174.381 144.315 174.369 144.253 174.358Z" fill="#F2F2F2"/>
<path d="M669.615 322.42C665.982 317.998 662.054 313.368 656.621 311.571L651.548 311.771C690.165 380.01 742.322 439.637 804.815 486.992C759.748 432.135 714.682 377.277 669.615 322.42Z" fill="#F2F2F2"/>
<path d="M354.149 285.941C356.497 294.47 361.786 301.894 369.081 306.899C371.901 308.819 375.237 310.661 376.202 313.934C376.71 316.02 376.397 318.221 375.329 320.084C374.262 321.922 372.964 323.616 371.467 325.125L371.331 325.637C364.332 321.49 357.674 316.244 353.808 309.086C349.942 301.928 349.403 292.547 354.149 285.941Z" fill="#F2F2F2"/>
<path d="M587.149 488.941C589.497 497.47 594.786 504.894 602.081 509.899C604.901 511.819 608.237 513.661 609.202 516.934C609.71 519.02 609.397 521.221 608.329 523.084C607.262 524.922 605.964 526.616 604.467 528.125L604.331 528.637C597.332 524.49 590.674 519.244 586.808 512.086C582.942 504.928 582.403 495.547 587.149 488.941Z" fill="#F2F2F2"/>
<path d="M122.15 474.941C124.497 483.47 129.786 490.894 137.081 495.899C139.901 497.819 143.237 499.661 144.202 502.934C144.71 505.02 144.397 507.221 143.329 509.084C142.262 510.922 140.965 512.616 139.467 514.125L139.331 514.637C132.332 510.49 125.674 505.244 121.808 498.086C117.943 490.928 117.403 481.547 122.15 474.941Z" fill="#F2F2F2"/>
<path d="M657.249 102C685.415 102 708.249 79.1665 708.249 51C708.249 22.8335 685.415 0 657.249 0C629.082 0 606.249 22.8335 606.249 51C606.249 79.1665 629.082 102 657.249 102Z" fill="#544D91"/>
<path d="M749.284 11.8704C724.567 8.52943 696.349 21.889 689.943 45.9939C688.328 41.7081 685.393 38.0464 681.562 35.5379C677.73 33.0295 673.2 31.8041 668.626 32.0388C664.052 32.2735 659.671 33.9561 656.116 36.8436C652.562 39.7311 650.017 43.674 648.849 48.1026L651.679 50.1293C704.647 61.5835 759.476 61.3356 812.338 49.4029C795.145 31.334 774.001 15.2112 749.284 11.8704Z" fill="#F0F0F0"/>
<path d="M643.284 79.8704C618.567 76.5294 590.349 89.889 583.943 113.994C582.328 109.708 579.393 106.046 575.562 103.538C571.73 101.029 567.2 99.8041 562.626 100.039C558.052 100.273 553.671 101.956 550.116 104.844C546.562 107.731 544.017 111.674 542.849 116.103L545.679 118.129C598.647 129.584 653.476 129.336 706.338 117.403C689.145 99.334 668.001 83.2112 643.284 79.8704Z" fill="#F0F0F0"/>
<path d="M859.011 92.7282C858.909 92.7284 858.807 92.7126 858.709 92.6814C594.303 9.06319 361.265 19.9977 212.33 43.8952C192.061 47.1462 171.738 50.9011 151.926 55.0563C146.868 56.1159 141.62 57.2517 136.329 58.4343C130.01 59.8415 123.775 61.2907 117.797 62.7399C115.215 63.3513 112.683 63.9675 110.202 64.5886C106.444 65.5163 102.63 66.4831 98.5425 67.5456C93.9746 68.7233 89.3335 69.9587 84.7451 71.2175C84.7283 71.2234 84.7112 71.2283 84.6939 71.2321L84.6943 71.2331C79.5117 72.6481 74.3564 74.1042 69.3711 75.5583C66.6729 76.3376 64.0674 77.1062 61.5718 77.8649C61.293 77.9421 61.0459 78.0163 60.7954 78.0925L60.2593 78.2556C59.9487 78.3503 59.6421 78.4431 59.3355 78.5309L59.3159 78.5368L59.3164 78.5378L58.5049 78.7898C57.5371 79.0828 56.5928 79.3689 55.6641 79.6541C31.1191 87.2205 17.626 92.6033 17.4927 92.656C17.3708 92.7049 17.2405 92.7292 17.1092 92.7277C16.9778 92.7262 16.8481 92.6989 16.7274 92.6472C16.6066 92.5956 16.4972 92.5207 16.4054 92.4268C16.3136 92.3329 16.2412 92.2218 16.1924 92.0999C16.1435 91.978 16.1192 91.8476 16.1207 91.7163C16.1222 91.585 16.1495 91.4553 16.2012 91.3345C16.2528 91.2138 16.3277 91.1044 16.4217 91.0126C16.5156 90.9208 16.6266 90.8484 16.7485 90.7996C16.8828 90.7468 30.4419 85.3367 55.0762 77.742C56.0083 77.4558 56.9551 77.1697 57.9258 76.8758L58.6797 76.6414C58.7056 76.6316 58.7314 76.6238 58.7578 76.616C59.063 76.5291 59.3677 76.4363 59.6772 76.3425L60.2144 76.1795C60.4819 76.0984 60.7456 76.0183 61.0156 75.9441C63.4941 75.1902 66.1084 74.4197 68.8135 73.6375C73.8008 72.1824 78.9609 70.7263 84.1475 69.3093C84.1636 69.3035 84.1802 69.2996 84.1963 69.2947C88.8008 68.032 93.459 66.7908 98.0415 65.6091C102.136 64.5457 105.957 63.5769 109.721 62.6472C112.213 62.0271 114.749 61.4096 117.331 60.7947C123.316 59.3435 129.563 57.8923 135.894 56.4822C141.193 55.2986 146.449 54.1599 151.516 53.0994C171.359 48.9373 191.713 45.1765 212.013 41.9207C361.162 17.989 594.533 7.0368 859.312 90.7751C859.54 90.8469 859.734 90.9979 859.86 91.2007C859.986 91.4035 860.036 91.6447 859.999 91.8806C859.963 92.1166 859.843 92.3318 859.662 92.4873C859.481 92.6427 859.25 92.7282 859.011 92.7282Z" fill="#CCCCCC"/>
<path d="M270.989 419.84C270.643 418.827 270.06 417.912 269.289 417.17C269.004 416.906 268.696 416.668 268.369 416.46C265.759 414.72 261.859 414.33 259.379 416.46C259.129 416.677 258.898 416.914 258.689 417.17C257.949 418.08 257.189 418.97 256.409 419.84C255.129 421.3 253.819 422.71 252.449 424.08C252.059 424.46 251.669 424.85 251.269 425.23C251.039 425.46 250.809 425.68 250.579 425.9C249.699 426.74 248.799 427.55 247.889 428.35C247.409 428.78 246.929 429.2 246.439 429.61C245.709 430.22 244.979 430.83 244.239 431.42C244.169 431.47 244.099 431.52 244.029 431.58C244.009 431.59 243.999 431.61 243.979 431.62C243.969 431.62 243.959 431.62 243.949 431.64C243.922 431.651 243.898 431.668 243.879 431.69C243.659 431.84 243.509 431.94 243.399 432.03C243.439 432.01 243.479 431.98 243.519 431.96C243.339 432.1 243.149 432.24 242.969 432.38C241.219 433.67 239.429 434.91 237.599 436.07C233.071 438.968 228.316 441.493 223.379 443.62C223.049 443.75 222.709 443.89 222.369 444.02C209.443 449.315 195.422 451.382 181.519 450.04C180.099 449.93 178.679 449.78 177.259 449.59C175.619 449.35 173.989 449.06 172.369 448.73C166.201 447.499 160.167 445.678 154.349 443.29C147.071 439.957 140.149 435.897 133.689 431.17C132.689 430.46 131.679 429.75 130.669 429.06C131.819 426.24 132.949 423.42 134.049 420.58C134.599 419.21 135.129 417.84 135.649 416.46C139.739 405.83 143.579 395.1 147.259 384.33C150.979 373.42 154.489 362.447 157.789 351.41C158.129 350.29 158.459 349.17 158.779 348.05C160.509 342.22 162.169 336.377 163.759 330.52C163.909 329.95 164.069 329.39 164.209 328.82C164.669 327.14 165.119 325.46 165.559 323.78C166.559 319.99 164.299 315.46 160.319 314.55C158.403 314.059 156.37 314.33 154.651 315.308C152.931 316.285 151.657 317.892 151.099 319.79C150.669 321.41 150.239 323.02 149.799 324.64C147.689 332.47 145.469 340.273 143.139 348.05C142.799 349.17 142.459 350.29 142.119 351.41C136.979 368.35 131.335 385.12 125.189 401.72C124.449 403.73 123.699 405.733 122.939 407.73C122.569 408.71 122.199 409.69 121.819 410.67C121.089 412.6 120.339 414.53 119.589 416.46C119.159 417.59 118.719 418.72 118.279 419.84C117.989 420.55 117.709 421.26 117.429 421.96C114.578 420.936 111.624 420.225 108.619 419.84L108.139 419.78C105.809 419.5 103.453 419.52 101.129 419.84C97.6499 420.246 94.3026 421.411 91.3235 423.253C88.3445 425.095 85.8065 427.569 83.8888 430.5C79.1188 438.01 79.1788 448.75 85.8688 455.13C92.7588 461.7 103.189 461.65 111.299 457.54C115.597 455.215 119.22 451.818 121.819 447.68C122.814 446.18 123.729 444.628 124.559 443.03C124.769 443.17 124.979 443.31 125.189 443.46C125.989 444.02 126.789 444.59 127.579 445.15C132.182 448.485 137.033 451.463 142.089 454.06C152.961 459.465 164.664 463.004 176.709 464.53C176.979 464.56 177.239 464.6 177.509 464.63C178.839 464.8 180.179 464.93 181.519 465.04C200.741 466.489 219.987 462.555 237.099 453.68C238.549 452.93 239.985 452.143 241.409 451.32C243.619 450.04 245.779 448.68 247.889 447.24C249.039 446.46 250.159 445.67 251.269 444.84C256.119 441.267 260.641 437.268 264.779 432.89C266.349 431.24 267.852 429.537 269.289 427.78C270.647 426.343 271.43 424.457 271.489 422.48C271.481 421.577 271.312 420.683 270.989 419.84ZM105.399 443.66C105.609 443.51 105.819 443.35 106.019 443.19C105.959 443.34 105.669 443.51 105.399 443.66ZM108.609 440.43C108.379 440.69 108.169 440.95 107.939 441.21C107.239 441.993 106.487 442.728 105.689 443.41C105.579 443.51 105.459 443.61 105.339 443.7C105.338 443.7 105.336 443.7 105.335 443.701C105.334 443.701 105.333 443.702 105.332 443.703C105.331 443.704 105.33 443.705 105.33 443.706C105.329 443.707 105.329 443.709 105.329 443.71C105.184 443.775 105.044 443.848 104.909 443.93C104.479 444.19 104.039 444.43 103.589 444.65C102.708 444.974 101.801 445.225 100.879 445.4C100.17 445.452 99.4586 445.458 98.7488 445.42H98.7288C98.239 445.311 97.7551 445.178 97.2788 445.02C97.0388 444.9 96.8088 444.76 96.5788 444.62C96.4888 444.54 96.4088 444.46 96.3588 444.41C96.2611 444.321 96.1709 444.224 96.0889 444.12C96.0889 444.119 96.0887 444.117 96.0882 444.116C96.0877 444.115 96.087 444.114 96.086 444.113C96.0851 444.112 96.084 444.111 96.0827 444.111C96.0815 444.11 96.0802 444.11 96.0789 444.11C95.9688 443.91 95.8488 443.71 95.7389 443.51C95.7332 443.505 95.7296 443.498 95.7289 443.49C95.6489 443.24 95.5789 442.98 95.5189 442.72C95.4972 442.263 95.5005 441.806 95.5289 441.35C95.6631 440.711 95.8435 440.083 96.0689 439.47C96.2714 439.036 96.5018 438.615 96.7589 438.21C96.7789 438.17 96.8789 438.01 96.9889 437.83C96.9989 437.82 96.9989 437.82 96.9989 437.81C97.1489 437.64 97.2989 437.46 97.4589 437.3C97.7289 437 98.0189 436.74 98.3089 436.47C98.8729 436.101 99.4571 435.764 100.059 435.46C101.014 435.121 101.993 434.857 102.989 434.67C104.457 434.553 105.933 434.567 107.399 434.71C108.787 434.951 110.157 435.288 111.499 435.72C110.686 437.298 109.76 438.815 108.729 440.26C108.689 440.32 108.649 440.38 108.609 440.43ZM97.4888 437.14C97.4007 437.281 97.2967 437.412 97.1788 437.53C97.2582 437.383 97.3632 437.251 97.4888 437.14Z" fill="#3F3D56"/>
<path d="M240.929 317.71C240.839 320.85 240.749 323.99 240.659 327.13C240.469 334.1 240.272 341.073 240.069 348.05C239.859 355.9 239.639 363.747 239.409 371.59C239.299 375.64 239.185 379.69 239.069 383.74C238.759 394.65 238.452 405.557 238.149 416.46C238.119 417.59 238.079 418.71 238.049 419.84C237.899 425.25 237.749 430.66 237.599 436.07C237.429 441.94 237.262 447.81 237.099 453.68C236.979 458.08 236.855 462.483 236.729 466.89C235.829 498.82 234.929 530.75 234.029 562.68C233.991 564.657 233.188 566.543 231.79 567.941C230.392 569.34 228.506 570.142 226.529 570.18C224.545 570.164 222.646 569.369 221.243 567.966C219.84 566.563 219.045 564.664 219.029 562.68C219.529 544.72 220.035 526.76 220.549 508.8C220.999 492.56 221.455 476.32 221.919 460.08C222.069 454.73 222.219 449.377 222.369 444.02C222.599 435.96 222.825 427.9 223.049 419.84C223.079 418.71 223.119 417.59 223.149 416.46C223.169 415.47 223.199 414.49 223.229 413.5C223.669 397.85 224.109 382.197 224.549 366.54C224.729 360.38 224.902 354.217 225.069 348.05C225.269 341.02 225.469 333.993 225.669 326.97C225.759 323.88 225.839 320.8 225.929 317.71C225.967 315.733 226.769 313.847 228.168 312.449C229.566 311.05 231.452 310.248 233.429 310.21C235.413 310.226 237.311 311.021 238.714 312.424C240.117 313.827 240.913 315.726 240.929 317.71Z" fill="#3F3D56"/>
<path d="M652.357 319.791C644.492 349.571 635.093 378.924 624.196 407.732C621.189 415.679 618.113 423.609 614.824 431.444L615.58 429.653C614.113 433.385 612.238 436.943 609.991 440.265C609.838 440.479 609.682 440.691 609.524 440.901C610.301 439.907 610.449 439.711 609.967 440.312C609.713 440.613 609.462 440.914 609.199 441.207C608.499 441.991 607.748 442.727 606.95 443.411C606.749 443.582 606.545 443.751 606.338 443.915L607.276 443.186C607.167 443.443 606.403 443.783 606.165 443.929C605.395 444.394 604.591 444.801 603.761 445.147L605.552 444.391C604.191 444.94 602.771 445.329 601.321 445.552L603.315 445.284C601.89 445.481 600.446 445.496 599.017 445.33L601.011 445.598C599.842 445.437 598.698 445.129 597.606 444.681L599.397 445.437C598.815 445.183 598.254 444.884 597.719 444.541C597.447 444.364 596.613 443.732 597.704 444.565C598.837 445.431 597.849 444.64 597.616 444.41C597.422 444.218 597.247 444.01 597.056 443.815C596.174 442.91 598.053 445.371 597.453 444.313C597.133 443.783 596.84 443.237 596.575 442.676L597.331 444.468C596.987 443.615 596.743 442.726 596.603 441.817L596.871 443.81C596.728 442.68 596.727 441.536 596.868 440.406L596.6 442.399C596.783 441.137 597.117 439.902 597.595 438.719L596.839 440.511C597.172 439.715 597.565 438.947 598.017 438.212C598.225 437.833 598.468 437.474 598.745 437.141C598.794 437.157 597.477 438.654 598.176 437.898C598.359 437.7 598.53 437.492 598.715 437.296C599.011 436.982 599.328 436.695 599.64 436.398C600.685 435.404 598.179 437.364 599.384 436.577C600.258 436.003 601.177 435.501 602.133 435.078L600.342 435.834C601.943 435.176 603.621 434.726 605.337 434.494L603.343 434.762C605.491 434.515 607.662 434.541 609.804 434.838L607.81 434.571C610.522 434.982 613.173 435.727 615.702 436.791L613.91 436.034C619.3 438.348 624.073 441.784 628.838 445.152C633.44 448.485 638.29 451.463 643.344 454.059C654.217 459.465 665.92 463.005 677.966 464.533C695.242 466.649 712.772 464.393 728.949 457.971C745.126 451.55 759.431 441.169 770.552 427.781C771.909 426.342 772.69 424.454 772.749 422.477C772.734 420.491 771.946 418.589 770.552 417.174C767.8 414.648 762.603 413.935 759.945 417.174C757.427 420.249 754.72 423.163 751.839 425.901C750.494 427.177 749.113 428.414 747.696 429.611C746.887 430.295 746.067 430.965 745.236 431.622C744.842 431.933 743.617 432.76 745.499 431.425C745.067 431.731 744.654 432.065 744.228 432.379C737.93 437.022 731.105 440.904 723.896 443.944L725.688 443.188C717.951 446.433 709.826 448.659 701.516 449.811L703.51 449.543C694.962 450.667 686.302 450.654 677.757 449.505L679.75 449.773C671.207 448.599 662.852 446.324 654.893 443.002L656.685 443.758C649.005 440.36 641.717 436.139 634.948 431.167C631.426 428.559 627.711 426.221 623.836 424.173C619.321 421.867 614.432 420.381 609.398 419.785C599.959 418.674 590.341 422.35 585.151 430.505C580.376 438.01 580.437 448.749 587.125 455.13C594.013 461.703 604.444 461.647 612.561 457.536C620.378 453.576 625.074 445.35 628.376 437.594C635.807 420.139 642.386 402.28 648.516 384.331C654.58 366.573 660.079 348.635 665.014 330.518C665.625 328.274 666.227 326.028 666.821 323.779C667.822 319.99 665.56 315.459 661.583 314.553C659.666 314.06 657.632 314.33 655.911 315.307C654.19 316.285 652.915 317.892 652.357 319.791Z" fill="#3F3D56"/>
<path d="M727.189 317.71L724.49 413.503L721.804 508.797L720.286 562.681C720.303 564.664 721.098 566.562 722.501 567.965C723.904 569.368 725.802 570.164 727.786 570.181C729.763 570.142 731.649 569.34 733.047 567.942C734.445 566.543 735.248 564.658 735.286 562.681L737.985 466.887L740.671 371.593L742.189 317.71C742.173 315.726 741.377 313.828 739.974 312.425C738.571 311.022 736.673 310.226 734.689 310.21C732.712 310.248 730.827 311.05 729.428 312.449C728.03 313.847 727.228 315.732 727.189 317.71Z" fill="#3F3D56"/>
<path opacity="0.2" d="M467.591 535.935H469.92V429.893H524.249V427.571H469.92V382.826H511.876C511.261 382.044 510.628 381.272 509.977 380.509H469.92V350.956C469.15 350.628 468.374 350.311 467.591 350.013V380.509H421.939V342.644C421.157 342.68 420.387 342.734 419.61 342.799V380.509H383.19V352.258C382.408 352.604 381.638 352.969 380.873 353.351V380.509H350.258V382.826H380.873V427.571H350.258V429.893H380.873V535.935H383.19V429.893C387.973 429.892 392.71 430.834 397.129 432.664C401.548 434.494 405.563 437.176 408.945 440.559C412.327 443.941 415.01 447.956 416.84 452.375C418.67 456.794 419.611 461.531 419.61 466.314V535.935H421.939V429.893H467.591V535.935ZM383.19 427.571V382.826H419.61V427.571H383.19ZM421.939 427.571V382.826H422.853C428.728 382.827 434.546 383.984 439.975 386.233C445.403 388.482 450.335 391.778 454.489 395.933C458.643 400.088 461.939 405.02 464.187 410.449C466.435 415.877 467.592 421.695 467.591 427.571H421.939Z" fill="black"/>
<path d="M453.369 504.14C450.437 517.219 443.414 529.023 433.319 537.84C432.579 538.48 431.839 539.1 431.069 539.71C429.199 539.88 427.342 540.053 425.499 540.23C423.969 540.37 422.459 540.52 420.959 540.66L420.689 540.69L420.499 539.05L419.739 532.41C416.79 527.597 414.963 522.182 414.392 516.566C413.821 510.951 414.52 505.278 416.439 499.97C419.079 492.85 423.859 486.56 428.559 480.32C435.049 471.7 441.359 463.18 441.589 452.67C444.782 456.757 447.437 461.237 449.489 466C447.553 466.911 445.814 468.192 444.369 469.77C443.959 470.22 443.549 470.85 443.829 471.39C444.069 471.85 444.669 471.96 445.189 472.02C446.439 472.15 447.699 472.28 448.949 472.41C449.949 472.52 450.949 472.62 451.949 472.73C453.159 476.701 453.979 480.78 454.399 484.91C455.073 491.334 454.725 497.825 453.369 504.14Z" fill="#3F3D56"/>
<path d="M486.569 477.93C480.669 482.22 477.219 488.39 474.539 495.19C471.792 496.069 469.321 497.647 467.369 499.77C466.959 500.22 466.549 500.85 466.829 501.39C467.069 501.85 467.669 501.96 468.189 502.02C469.439 502.15 470.699 502.28 471.949 502.41C469.269 510.45 466.809 518.77 462.069 525.56C458.916 530.043 454.807 533.769 450.039 536.47C448.739 537.211 447.396 537.875 446.019 538.46C440.939 538.85 435.955 539.267 431.069 539.71C429.199 539.88 427.342 540.053 425.499 540.23C423.969 540.37 422.459 540.52 420.959 540.66C420.949 540.11 420.949 539.56 420.959 539.01C421.275 524.359 426.665 510.271 436.209 499.15C436.659 498.63 437.119 498.12 437.589 497.61C442.424 492.446 448.11 488.15 454.399 484.91C464.308 479.758 475.415 477.348 486.569 477.93Z" fill="#544D91"/>
<path d="M427.229 535.1L426.079 538.5L425.499 540.23C423.969 540.37 422.459 540.52 420.959 540.66L420.689 540.69C419.029 540.86 417.379 541.03 415.729 541.2C415.299 540.7 414.869 540.19 414.449 539.67C404.011 527.03 399.001 510.773 400.513 494.45C402.025 478.128 409.937 463.067 422.519 452.56C421.199 459.47 422.739 466.09 425.269 472.66C424.999 472.77 424.739 472.88 424.489 473C422.553 473.911 420.814 475.192 419.369 476.77C418.959 477.22 418.549 477.85 418.829 478.39C419.069 478.85 419.669 478.96 420.189 479.02C421.439 479.15 422.699 479.28 423.949 479.41C424.949 479.52 425.949 479.62 426.949 479.73C427.419 479.78 427.889 479.83 428.359 479.88C428.429 480.03 428.489 480.17 428.559 480.32C431.409 486.5 434.479 492.71 436.209 499.15C436.643 500.766 436.983 502.405 437.229 504.06C437.999 509.653 437.5 515.347 435.769 520.72C434.037 526.094 431.119 531.009 427.229 535.1Z" fill="#544D91"/>
<path d="M527.887 390.061C519.278 373.268 505.941 359.14 490.255 348.757C474.518 338.389 456.461 332.074 437.692 330.377C435.232 330.153 432.765 330.023 430.293 329.984C427.372 329.941 383.427 342.616 368.706 352.966C353.993 363.191 341.89 376.73 333.373 392.493C324.871 408.343 320.689 426.15 321.247 444.127C321.976 462.212 327.017 479.861 335.95 495.603C344.761 511.293 357.272 524.594 372.394 534.348C387.732 544.135 403.139 570.084 421.249 571C439.494 571.923 460.303 547.445 476.944 540.013C493.585 532.519 507.971 520.794 518.669 506.008C529.065 491.517 535.79 474.721 538.268 457.06C540.842 438.977 539.642 420.327 533.467 403.044C531.883 398.603 530.019 394.266 527.887 390.061C526.107 386.555 520.891 385.265 517.625 387.37C515.943 388.406 514.725 390.05 514.224 391.961C513.723 393.873 513.977 395.903 514.935 397.631C515.98 399.69 516.952 401.782 517.85 403.909L517.094 402.117C520.494 410.292 522.806 418.879 523.971 427.656L523.703 425.662C524.941 435.184 524.919 444.828 523.636 454.344L523.904 452.35C522.608 461.866 520.068 471.17 516.35 480.025L517.106 478.233C515.193 482.751 512.964 487.128 510.434 491.331C509.152 493.455 507.792 495.529 506.354 497.553C505.722 498.441 505.071 499.314 504.415 500.184C503.558 501.32 505.582 498.701 504.697 499.815C504.546 500.004 504.397 500.195 504.245 500.384C503.791 500.952 503.33 501.514 502.863 502.072C499.745 505.791 496.343 509.263 492.687 512.455C491.776 513.25 490.85 514.027 489.909 514.786C489.44 515.165 488.977 515.559 488.488 515.911C488.507 515.898 490.068 514.712 489.144 515.4C488.853 515.617 488.565 515.836 488.274 516.052C486.334 517.489 484.343 518.853 482.3 520.144C477.596 523.107 472.662 525.687 467.544 527.857L469.336 527.101C460.508 530.817 451.229 533.356 441.739 534.653L443.733 534.385C434.248 535.667 424.634 535.684 415.144 534.435L417.138 534.703C408.513 533.545 400.076 531.264 392.042 527.919L393.834 528.675C389.181 526.71 384.694 524.372 380.418 521.684C378.302 520.35 376.241 518.935 374.234 517.436C373.948 517.223 373.664 517.006 373.379 516.791C372.464 516.1 374.037 517.301 374.05 517.309C373.517 516.927 373.005 516.518 372.515 516.084C371.546 515.295 370.592 514.488 369.653 513.662C365.897 510.355 362.39 506.775 359.16 502.953C358.351 501.997 357.56 501.027 356.786 500.042C356.451 499.616 355.839 498.752 357.19 500.571C357.012 500.332 356.828 500.097 356.649 499.859C356.218 499.287 355.792 498.711 355.373 498.131C353.904 496.099 352.508 494.017 351.185 491.885C348.195 487.059 345.585 482.008 343.38 476.777L344.136 478.568C340.527 469.982 338.059 460.959 336.795 451.731L337.063 453.725C335.923 445.219 335.907 436.6 337.015 428.089L336.747 430.083C337.883 421.842 340.1 413.786 343.341 406.124L342.585 407.916C344.625 403.119 347.03 398.487 349.781 394.059C351.158 391.844 352.617 389.682 354.158 387.575C354.508 387.096 354.863 386.62 355.221 386.147C355.545 385.719 356.436 384.653 354.915 386.535C355.064 386.351 355.208 386.161 355.355 385.975C356.201 384.903 357.067 383.848 357.954 382.81C361.312 378.879 364.949 375.196 368.838 371.789C369.82 370.928 370.819 370.085 371.832 369.26C372.293 368.885 372.757 368.514 373.223 368.147C373.41 368 373.599 367.856 373.785 367.709C371.787 369.298 373.23 368.141 373.683 367.801C375.773 366.236 377.918 364.749 380.119 363.34C385.011 360.211 390.158 357.499 395.505 355.232L393.714 355.988C401.474 352.73 435.854 345.039 442.108 345.879L440.114 345.611C449.305 346.894 458.288 349.376 466.834 352.993L465.042 352.237C469.373 354.076 473.581 356.19 477.642 358.566C479.671 359.756 481.66 361.01 483.61 362.329C484.532 362.953 485.445 363.591 486.348 364.244C486.799 364.57 487.248 364.899 487.694 365.233C487.942 365.418 488.188 365.605 488.435 365.791C489.475 366.57 487.004 364.662 488.093 365.524C491.739 368.388 495.202 371.479 498.461 374.777C500.062 376.407 501.607 378.089 503.098 379.822C503.862 380.712 504.611 381.614 505.344 382.53C505.709 382.985 506.949 384.631 505.429 382.614C505.8 383.107 506.176 383.597 506.543 384.093C509.703 388.371 512.51 392.898 514.935 397.631C516.728 401.129 521.922 402.433 525.196 400.322C526.879 399.287 528.098 397.642 528.599 395.731C529.1 393.819 528.845 391.789 527.887 390.061Z" fill="#3F3D56"/>
<path d="M440.497 512.456C439.723 512.491 438.956 512.288 438.301 511.873C437.647 511.459 437.135 510.853 436.836 510.138C436.537 509.423 436.465 508.633 436.63 507.876C436.795 507.119 437.188 506.43 437.757 505.904C437.853 505.526 437.921 505.253 438.016 504.875C437.982 504.792 437.948 504.71 437.914 504.627C434.434 496.33 412.229 519.461 411.269 527.259C410.846 530.706 411.024 534.201 411.796 537.587C404.603 521.897 400.868 504.844 400.844 487.584C400.843 483.253 401.083 478.925 401.565 474.621C401.963 471.092 402.515 467.589 403.222 464.11C407.077 445.237 415.354 427.547 427.373 412.494C434.247 412.877 440.271 411.83 440.853 398.508C440.956 396.139 442.714 394.087 443.101 391.752C442.445 391.838 441.778 391.892 441.122 391.935C440.917 391.946 440.702 391.957 440.498 391.968L440.421 391.971C439.699 392.003 438.984 391.826 438.361 391.462C437.738 391.097 437.234 390.56 436.909 389.916C436.584 389.271 436.452 388.546 436.53 387.828C436.607 387.11 436.89 386.43 437.345 385.87C437.628 385.521 437.912 385.173 438.196 384.824C438.626 384.286 439.067 383.759 439.497 383.221C439.547 383.17 439.594 383.116 439.637 383.06C440.132 382.447 440.627 381.844 441.122 381.231C440.218 379.829 439.003 378.655 437.572 377.799C432.612 374.895 425.77 376.906 422.188 381.392C418.595 385.878 417.917 392.172 419.165 397.777C420.392 402.546 422.422 407.072 425.168 411.16C424.899 411.504 424.619 411.837 424.35 412.182C419.434 418.504 415.149 425.292 411.557 432.45C412.573 424.511 400.145 395.842 395.339 389.769C389.566 382.475 377.728 385.658 376.711 394.905C376.701 394.994 376.691 395.084 376.682 395.173C377.396 395.576 378.094 396.004 378.778 396.456C379.637 397.03 380.303 397.85 380.688 398.808C381.073 399.767 381.159 400.819 380.936 401.828C380.712 402.836 380.189 403.754 379.435 404.46C378.682 405.166 377.732 405.629 376.711 405.786L376.606 405.802C367.051 419.446 397.684 454.957 405.352 446.984C401.743 457.211 399.479 467.865 398.617 478.676C398.129 485.055 398.158 491.462 398.703 497.836L398.671 497.61C396.967 483.728 367.74 463.088 359.205 464.807C354.288 465.797 349.445 465.572 350.192 470.532C350.204 470.611 350.216 470.69 350.228 470.769C351.553 471.309 352.843 471.93 354.09 472.63C354.804 473.033 355.503 473.461 356.186 473.913C357.045 474.487 357.711 475.307 358.096 476.265C358.481 477.224 358.567 478.276 358.344 479.285C358.12 480.293 357.598 481.211 356.844 481.917C356.09 482.624 355.14 483.086 354.119 483.243L354.015 483.259C353.939 483.27 353.875 483.281 353.8 483.292C349.45 498.258 381.707 522.412 401.317 514.726H401.328C403.272 523.171 406.087 531.391 409.73 539.254H439.745C439.852 538.921 439.949 538.576 440.046 538.243C437.268 538.418 434.479 538.251 431.741 537.748C433.968 535.016 436.195 532.262 438.421 529.529C438.471 529.478 438.518 529.424 438.561 529.368C439.691 527.969 440.831 526.581 441.961 525.183L441.961 525.181C442.022 520.894 441.53 516.618 440.498 512.456L440.497 512.456ZM406.126 444.843L406.142 444.821L406.126 444.864V444.843ZM399.478 504.775L399.22 504.194C399.23 503.775 399.23 503.355 399.22 502.925C399.22 502.806 399.198 502.688 399.198 502.57C399.295 503.312 399.381 504.054 399.489 504.797L399.478 504.775Z" fill="#3F3D56"/>
<path d="M103.249 450C109.324 450 114.249 445.075 114.249 439C114.249 432.925 109.324 428 103.249 428C97.1736 428 92.2488 432.925 92.2488 439C92.2488 445.075 97.1736 450 103.249 450Z" fill="#3F3D56"/>
<path d="M235.249 570C241.324 570 246.249 565.075 246.249 559C246.249 552.925 241.324 548 235.249 548C229.174 548 224.249 552.925 224.249 559C224.249 565.075 229.174 570 235.249 570Z" fill="#3F3D56"/>
<path d="M736.249 570C742.324 570 747.249 565.075 747.249 559C747.249 552.925 742.324 548 736.249 548C730.174 548 725.249 552.925 725.249 559C725.249 565.075 730.174 570 736.249 570Z" fill="#3F3D56"/>
<path d="M763.249 430C769.324 430 774.249 425.075 774.249 419C774.249 412.925 769.324 408 763.249 408C757.174 408 752.249 412.925 752.249 419C752.249 425.075 757.174 430 763.249 430Z" fill="#3F3D56"/>
<path d="M731.249 328C737.324 328 742.249 323.075 742.249 317C742.249 310.925 737.324 306 731.249 306C725.174 306 720.249 310.925 720.249 317C720.249 323.075 725.174 328 731.249 328Z" fill="#3F3D56"/>
<path d="M272.249 419C272.242 421.81 271.156 424.51 269.214 426.541C267.272 428.571 264.624 429.778 261.817 429.911C259.011 430.044 256.26 429.093 254.136 427.254C252.011 425.415 250.674 422.83 250.402 420.034C250.13 417.237 250.944 414.443 252.675 412.23C254.406 410.016 256.921 408.553 259.701 408.143C262.481 407.732 265.312 408.406 267.608 410.025C269.905 411.644 271.491 414.084 272.039 416.84C272.18 417.551 272.25 418.275 272.249 419Z" fill="#3F3D56"/>
<path d="M492.249 360C498.324 360 503.249 355.075 503.249 349C503.249 342.925 498.324 338 492.249 338C486.174 338 481.249 342.925 481.249 349C481.249 355.075 486.174 360 492.249 360Z" fill="#3F3D56"/>
<path d="M383.249 349C383.242 351.81 382.156 354.51 380.214 356.541C378.272 358.572 375.624 359.778 372.817 359.911C370.011 360.044 367.26 359.093 365.136 357.254C363.011 355.415 361.674 352.83 361.402 350.034C361.13 347.237 361.944 344.443 363.675 342.23C365.406 340.016 367.921 338.553 370.701 338.143C373.481 337.732 376.312 338.406 378.608 340.025C380.905 341.644 382.491 344.084 383.039 346.84C383.18 347.551 383.25 348.275 383.249 349Z" fill="#3F3D56"/>
<path d="M241.249 317C241.242 319.81 240.156 322.51 238.214 324.541C236.272 326.572 233.624 327.778 230.817 327.911C228.011 328.044 225.26 327.093 223.136 325.254C221.011 323.415 219.674 320.83 219.402 318.034C219.13 315.237 219.944 312.443 221.675 310.23C223.406 308.016 225.921 306.553 228.701 306.143C231.481 305.732 234.312 306.406 236.608 308.025C238.905 309.644 240.491 312.084 241.039 314.84C241.18 315.551 241.25 316.275 241.249 317Z" fill="#3F3D56"/>
<path d="M607.249 454C613.324 454 618.249 449.075 618.249 443C618.249 436.925 613.324 432 607.249 432C601.174 432 596.249 436.925 596.249 443C596.249 449.075 601.174 454 607.249 454Z" fill="#3F3D56"/>
<path d="M434.249 354C443.085 354 450.249 346.837 450.249 338C450.249 329.163 443.085 322 434.249 322C425.412 322 418.249 329.163 418.249 338C418.249 346.837 425.412 354 434.249 354Z" fill="#3F3D56"/>
<path d="M866.941 570.841L9.19067 571.148C9.03431 571.148 8.87948 571.117 8.73502 571.057C8.59056 570.997 8.4593 570.91 8.34874 570.799C8.23817 570.689 8.15046 570.557 8.09062 570.413C8.03078 570.269 8 570.114 8 569.957C8 569.801 8.03078 569.646 8.09062 569.502C8.15046 569.357 8.23817 569.226 8.34874 569.115C8.4593 569.005 8.59056 568.917 8.73502 568.857C8.87948 568.797 9.03431 568.767 9.19067 568.767L866.941 568.459C867.256 568.46 867.558 568.586 867.78 568.809C868.003 569.032 868.128 569.335 868.128 569.65C868.128 569.965 868.003 570.267 867.78 570.491C867.558 570.714 867.256 570.84 866.941 570.841Z" fill="#CACACA"/>
</g>
<defs>
<clipPath id="clip0_11_90">
<rect width="860.131" height="571.148" fill="white" transform="translate(8)"/>
</clipPath>
</defs>
</svg>
