<svg width="924" height="963" viewBox="0 0 924 963" fill="none" xmlns="http://www.w3.org/2000/svg">
<path d="M102.417 821.385C99.4302 821.385 96.5502 821.038 93.7769 820.345C91.0569 819.598 88.6569 818.798 86.5769 817.945L87.7769 802.985L94.1769 803.465L95.0569 812.185C95.8035 812.398 96.7902 812.665 98.0169 812.985C99.2435 813.305 100.577 813.465 102.017 813.465C103.724 813.465 105.297 813.225 106.737 812.745C108.23 812.265 109.43 811.518 110.337 810.505C111.297 809.438 111.777 808.078 111.777 806.425C111.777 804.985 111.43 803.785 110.737 802.825C110.044 801.865 109.004 800.958 107.617 800.105C106.23 799.251 104.417 798.345 102.177 797.385C100.097 796.371 98.1235 795.385 96.2569 794.425C94.4435 793.465 92.8435 792.371 91.4569 791.145C90.0702 789.918 88.9769 788.451 88.1769 786.745C87.3769 785.038 86.9769 782.958 86.9769 780.505C86.9769 777.465 87.7769 774.851 89.3769 772.665C91.0302 770.425 93.2435 768.718 96.0169 767.545C98.8435 766.318 101.937 765.705 105.297 765.705C107.964 765.705 110.55 765.918 113.057 766.345C115.617 766.771 117.937 767.305 120.017 767.945L121.217 782.665H114.817L110.977 774.185C110.23 774.025 109.35 773.891 108.337 773.785C107.324 773.678 106.364 773.625 105.457 773.625C103.644 773.625 102.097 773.918 100.817 774.505C99.5902 775.038 98.6302 775.785 97.9369 776.745C97.2969 777.705 96.9769 778.771 96.9769 779.945C96.9769 781.118 97.3235 782.158 98.0169 783.065C98.7102 783.971 99.6169 784.771 100.737 785.465C101.91 786.158 103.137 786.798 104.417 787.385C105.75 787.918 107.03 788.505 108.257 789.145C111.404 790.638 113.964 792.158 115.937 793.705C117.964 795.198 119.457 796.878 120.417 798.745C121.377 800.558 121.857 802.691 121.857 805.145C121.857 808.025 121.297 810.505 120.177 812.585C119.11 814.611 117.644 816.291 115.777 817.625C113.91 818.905 111.804 819.865 109.457 820.505C107.11 821.091 104.764 821.385 102.417 821.385ZM129.414 821.065L128.454 814.425L133.494 813.385V773.065L128.534 772.505V765.785H164.294L165.814 781.705H159.974L156.774 773.705H143.174V788.825H155.494V796.665H143.174V813.145H157.414L160.294 805.145H166.214L164.534 821.065H129.414ZM173.398 821.065L172.358 814.425L177.478 813.465V773.065L172.518 772.505V765.785H191.958L193.078 772.585L187.158 773.625V813.145H201.318L204.278 805.145H210.198L208.518 821.065H173.398ZM214.961 821.065L214.001 814.425L219.041 813.385V773.065L214.081 772.505V765.785H249.841L251.361 781.705H245.521L242.321 773.705H228.721V788.825H241.041V796.665H228.721V813.145H242.961L245.841 805.145H251.761L250.081 821.065H214.961ZM283.905 821.385C280.278 821.385 276.838 820.798 273.585 819.625C270.332 818.451 267.452 816.718 264.945 814.425C262.492 812.131 260.545 809.305 259.105 805.945C257.718 802.531 257.025 798.611 257.025 794.185C257.025 789.651 257.745 785.625 259.185 782.105C260.678 778.585 262.678 775.625 265.185 773.225C267.692 770.771 270.518 768.931 273.665 767.705C276.812 766.425 280.092 765.785 283.505 765.785C286.758 765.785 289.478 766.025 291.665 766.505C293.852 766.931 295.398 767.278 296.305 767.545L297.905 783.465H291.745L287.425 773.945C287.052 773.891 286.652 773.838 286.225 773.785C285.798 773.731 285.105 773.705 284.145 773.705C280.998 773.705 278.118 774.531 275.505 776.185C272.945 777.785 270.892 780.051 269.345 782.985C267.852 785.865 267.052 789.278 266.945 793.225C266.998 797.118 267.718 800.585 269.105 803.625C270.545 806.665 272.545 809.065 275.105 810.825C277.718 812.585 280.758 813.465 284.225 813.465C286.358 813.465 288.492 813.091 290.625 812.345C292.812 811.598 294.652 810.505 296.145 809.065L299.265 815.785C298.305 816.851 296.998 817.811 295.345 818.665C293.745 819.465 291.932 820.131 289.905 820.665C287.932 821.145 285.932 821.385 283.905 821.385ZM312.068 821.065L311.428 814.985L320.628 813.305V773.705H311.268L307.828 781.705H302.068L303.668 765.785H346.948L348.708 781.625H343.028L339.508 773.705H330.148V813.305L339.428 814.985L338.708 821.065H312.068ZM397.968 821.385C394.341 821.385 390.901 820.798 387.648 819.625C384.394 818.451 381.514 816.718 379.008 814.425C376.554 812.131 374.608 809.305 373.168 805.945C371.781 802.531 371.088 798.611 371.088 794.185C371.088 789.651 371.808 785.625 373.248 782.105C374.741 778.585 376.741 775.625 379.247 773.225C381.754 770.771 384.581 768.931 387.728 767.705C390.874 766.425 394.154 765.785 397.568 765.785C400.821 765.785 403.541 766.025 405.728 766.505C407.914 766.931 409.461 767.278 410.368 767.545L411.968 783.465H405.808L401.488 773.945C401.114 773.891 400.714 773.838 400.288 773.785C399.861 773.731 399.168 773.705 398.208 773.705C395.061 773.705 392.181 774.531 389.568 776.185C387.008 777.785 384.954 780.051 383.408 782.985C381.914 785.865 381.114 789.278 381.008 793.225C381.061 797.118 381.781 800.585 383.168 803.625C384.608 806.665 386.608 809.065 389.168 810.825C391.781 812.585 394.821 813.465 398.288 813.465C400.421 813.465 402.554 813.091 404.688 812.345C406.874 811.598 408.714 810.505 410.208 809.065L413.328 815.785C412.368 816.851 411.061 817.811 409.408 818.665C407.808 819.465 405.994 820.131 403.968 820.665C401.994 821.145 399.994 821.385 397.968 821.385ZM419.57 821.065L418.53 814.425L423.65 813.465V773.065L418.69 772.505V765.785H438.13L439.25 772.585L433.33 773.625V813.145H447.49L450.45 805.145H456.37L454.69 821.065H419.57ZM461.053 821.065L460.013 814.345L465.453 813.385V773.225L460.173 772.665V765.785H479.853L480.893 772.745L475.133 773.625V813.625L480.813 814.425L480.733 821.065H461.053ZM488.242 821.065L487.282 814.425L492.322 813.385V773.065L487.362 772.505V765.785H523.122L524.642 781.705H518.802L515.602 773.705H502.002V788.825H514.322V796.665H502.002V813.145H516.242L519.122 805.145H525.042L523.362 821.065H488.242ZM532.226 821.065L531.106 814.505L536.466 813.465V773.305L531.426 772.825V765.785H550.786L569.506 813.625V773.225L564.786 772.585V765.785H581.506L582.626 772.745L577.346 773.705V821.065H562.386L544.306 775.225V813.225L548.626 814.425L548.546 821.065H532.226ZM596.052 821.065L595.412 814.985L604.612 813.305V773.705H595.252L591.812 781.705H586.052L587.652 765.785H630.932L632.692 781.625H627.012L623.492 773.705H614.132V813.305L623.412 814.985L622.692 821.065H596.052ZM656.992 821.065L656.032 814.425L661.072 813.385V773.065L656.112 772.505V765.785H691.872L693.392 781.785H687.712L684.352 773.705H670.752V788.825H683.072V796.665H670.752V813.065L684.192 815.065L683.632 821.065H656.992ZM698.709 821.065L697.669 814.345L703.109 813.385V773.225L697.829 772.665V765.785H717.509L718.549 772.745L712.789 773.625V813.625L718.469 814.425L718.389 821.065H698.709ZM725.498 821.065L724.858 814.665L730.218 813.545V773.225L724.938 772.665V765.785H743.578C748.645 765.785 752.858 766.531 756.218 768.025C759.631 769.518 762.165 771.598 763.818 774.265C765.525 776.931 766.378 780.051 766.378 783.625C766.378 787.571 765.365 790.878 763.338 793.545C761.311 796.211 758.565 798.238 755.098 799.625L762.298 813.705L767.338 814.585V821.065H754.458L745.978 801.865C745.018 801.918 744.031 801.971 743.018 802.025C742.058 802.078 741.018 802.105 739.898 802.105V813.785L744.378 814.585V821.065H725.498ZM739.898 794.105H742.778C745.871 794.105 748.405 793.678 750.378 792.825C752.405 791.971 753.898 790.771 754.858 789.225C755.871 787.678 756.378 785.865 756.378 783.785C756.378 781.651 755.898 779.865 754.938 778.425C754.031 776.931 752.511 775.811 750.378 775.065C748.245 774.265 745.338 773.838 741.658 773.785H739.898V794.105ZM788.745 821.385C785.758 821.385 782.878 821.038 780.105 820.345C777.385 819.598 774.985 818.798 772.905 817.945L774.105 802.985L780.505 803.465L781.385 812.185C782.132 812.398 783.118 812.665 784.345 812.985C785.572 813.305 786.905 813.465 788.345 813.465C790.052 813.465 791.625 813.225 793.065 812.745C794.558 812.265 795.758 811.518 796.665 810.505C797.625 809.438 798.105 808.078 798.105 806.425C798.105 804.985 797.758 803.785 797.065 802.825C796.372 801.865 795.332 800.958 793.945 800.105C792.558 799.251 790.745 798.345 788.505 797.385C786.425 796.371 784.452 795.385 782.585 794.425C780.772 793.465 779.172 792.371 777.785 791.145C776.398 789.918 775.305 788.451 774.505 786.745C773.705 785.038 773.305 782.958 773.305 780.505C773.305 777.465 774.105 774.851 775.705 772.665C777.358 770.425 779.572 768.718 782.345 767.545C785.172 766.318 788.265 765.705 791.625 765.705C794.292 765.705 796.878 765.918 799.385 766.345C801.945 766.771 804.265 767.305 806.345 767.945L807.545 782.665H801.145L797.305 774.185C796.558 774.025 795.678 773.891 794.665 773.785C793.652 773.678 792.692 773.625 791.785 773.625C789.972 773.625 788.425 773.918 787.145 774.505C785.918 775.038 784.958 775.785 784.265 776.745C783.625 777.705 783.305 778.771 783.305 779.945C783.305 781.118 783.652 782.158 784.345 783.065C785.038 783.971 785.945 784.771 787.065 785.465C788.238 786.158 789.465 786.798 790.745 787.385C792.078 787.918 793.358 788.505 794.585 789.145C797.732 790.638 800.292 792.158 802.265 793.705C804.292 795.198 805.785 796.878 806.745 798.745C807.705 800.558 808.185 802.691 808.185 805.145C808.185 808.025 807.625 810.505 806.505 812.585C805.438 814.611 803.972 816.291 802.105 817.625C800.238 818.905 798.132 819.865 795.785 820.505C793.438 821.091 791.092 821.385 788.745 821.385ZM822.302 821.065L821.662 814.985L830.862 813.305V773.705H821.502L818.062 781.705H812.302L813.902 765.785H857.182L858.942 781.625H853.262L849.742 773.705H840.382V813.305L849.662 814.985L848.942 821.065H822.302Z" fill="#243448" fill-opacity="0.67"/>
<g clip-path="url(#clip0_35_203)">
<path d="M795.801 596.068C767.655 617.603 733.363 639.417 699.649 649.702C689.93 652.756 679.901 654.705 669.75 655.513C660.259 656.28 650.708 655.535 641.449 653.307C617.117 647.227 594.548 636.579 572.711 624.139C565.577 620.068 558.524 615.811 551.514 611.46C540.069 604.355 528.738 597.001 517.377 589.822C515.676 588.735 513.985 587.668 512.284 586.611H512.273C509.531 584.882 506.781 583.176 504.025 581.494C503.541 581.194 503.056 580.904 502.561 580.604C497.354 577.434 492.059 574.337 486.673 571.313C486.013 570.95 485.354 570.577 484.694 570.215C474.274 564.408 463.565 559.143 452.609 554.439C445.412 551.394 438.123 548.649 430.762 546.308H430.751C427.937 545.417 425.112 544.578 422.276 543.812C413.775 541.468 405.111 539.765 396.357 538.716C384.294 537.248 372.093 537.346 360.055 539.006C359.24 539.12 358.436 539.234 357.622 539.368C325.042 544.609 295.307 562.28 262.583 566.444C261.521 566.579 260.47 566.703 259.408 566.796C258.954 566.838 258.5 566.89 258.047 566.921C248.537 567.738 238.967 567.502 229.508 566.216C203.084 562.715 177.349 551.85 154.183 538.156C100.024 506.14 56.1026 456.928 29.3995 399.938C24.814 390.171 20.7427 380.169 17.2027 369.972C7.30487 341.697 1.85412 312.045 1.04667 282.084C-1.45868 178.13 57.3398 73.8347 149.657 26.8194C241.984 -20.1959 363.437 -4.64841 437.896 67.5785C483.065 111.393 509.201 170.766 543.193 223.809C577.186 276.843 625.499 327.504 687.813 335.231C719.558 339.167 752.777 331.554 783.202 341.456C800.049 346.946 814.421 357.449 826 370.832C833.784 379.913 840.298 390.019 845.362 400.87C849.073 408.715 852.085 416.874 854.363 425.253C854.785 426.797 855.177 428.34 855.559 429.883C870.714 492.073 846.496 557.267 795.801 596.068Z" fill="#F2F2F2"/>
<path d="M288.791 483.486H191.876C177.356 483.486 165.586 495.312 165.586 509.899V509.899C165.586 524.487 177.356 536.313 191.876 536.313H288.791C303.311 536.313 315.082 524.487 315.082 509.899C315.082 495.312 303.311 483.486 288.791 483.486Z" fill="#3F3D56"/>
<path d="M259.408 522.847V566.796C249.452 567.764 239.419 567.569 229.508 566.216V522.847H259.408Z" fill="#3F3D56"/>
<path d="M360.055 539.006C359.24 539.12 358.436 539.234 357.622 539.368C325.042 544.609 295.307 562.28 262.583 566.444C261.521 566.579 260.469 566.703 259.408 566.796C258.954 566.838 258.5 566.89 258.047 566.921C250.056 559.059 242.066 550.69 234.56 542.02C230.488 537.328 226.549 532.542 222.848 527.695C213.239 515.182 205.094 502.317 199.712 489.68C200.258 483.621 196.506 469.607 194.712 458.876L194.701 458.865C193.938 454.359 193.526 450.444 193.907 447.927C196.093 433.405 207.898 435.073 211.527 420.841C214.801 418.111 218.287 415.648 221.951 413.476C222.559 413.114 223.178 412.751 223.817 412.388L263.202 385.043L278.254 399.876L301.163 422.457L325.99 446.912L304.916 468.301C304.916 468.301 322.526 488.696 343.115 515.886C348.642 523.189 354.384 530.988 360.055 539.006Z" fill="#2F2E41"/>
<path d="M699.649 522.847V649.702C689.93 652.756 679.901 654.705 669.75 655.513V522.847H699.649Z" fill="#3F3D56"/>
<path d="M738.312 512.489H641.397C626.877 512.489 615.106 524.315 615.106 538.902V538.902C615.106 553.49 626.877 565.315 641.397 565.315H738.312C752.832 565.315 764.603 553.49 764.603 538.902C764.603 524.315 752.832 512.489 738.312 512.489Z" fill="#3F3D56"/>
<path d="M502.561 580.604C497.355 577.434 492.059 574.337 486.673 571.312C486.013 570.95 485.354 570.577 484.694 570.215L488.24 568.692L497.808 564.559L497.901 564.518L498.004 564.87L502.561 580.604Z" fill="#FFB6B6"/>
<path d="M517.377 589.822C515.676 588.735 513.985 587.668 512.284 586.611H512.273C509.531 584.882 506.781 583.176 504.025 581.494C503.541 581.194 503.056 580.904 502.561 580.604C497.354 577.434 492.059 574.337 486.673 571.312C486.013 570.95 485.354 570.577 484.694 570.214C474.274 564.408 463.565 559.143 452.609 554.439C445.412 551.394 438.123 548.649 430.762 546.308H430.751L424.967 536.582L398.934 492.777L393.212 483.155C393.212 483.155 373.695 488.955 346.074 494.518C336.022 496.548 324.908 498.537 313.247 500.215C300.782 501.996 287.709 503.415 274.718 504.099C268.522 504.43 262.346 504.596 256.263 504.544C240.54 504.441 225.436 502.959 212.208 499.438C207.795 495.274 194.495 489.608 184.969 484.418H184.958C180.958 482.243 177.638 480.161 175.896 478.307C165.854 467.638 174.432 459.321 165.503 447.678C165.383 443.407 165.6 439.133 166.153 434.897C166.245 434.192 166.338 433.477 166.452 432.752L169.266 384.732L190.175 381.956L221.992 377.73L256.459 373.152L260.253 403.004C260.253 403.004 287.09 401.637 321.093 402.093C375.706 402.838 448.784 408.307 458.681 431.779C459.609 433.985 460.537 436.212 461.465 438.439C463.671 443.763 465.857 449.115 468.022 454.494C475.868 473.967 483.353 493.627 490.189 512.209C494.437 523.769 498.437 534.914 502.118 545.345C505.077 553.735 507.819 561.669 510.325 568.971C512.614 575.642 514.686 581.784 516.531 587.295C516.82 588.155 517.098 589.004 517.377 589.822Z" fill="#2F2E41"/>
<path d="M325.036 298.877L258.994 242.528L301.962 198.84L331.938 248.169L443.054 270.301C446.395 267.775 450.396 266.28 454.568 265.998C458.74 265.717 462.904 266.661 466.551 268.716C470.199 270.771 473.172 273.847 475.109 277.57C477.046 281.293 477.863 285.502 477.46 289.684C477.057 293.865 475.452 297.839 472.84 301.12C470.228 304.4 466.723 306.847 462.751 308.161C458.779 309.475 454.512 309.599 450.471 308.519C446.43 307.439 442.789 305.201 439.993 302.078L325.036 298.877Z" fill="#A0616A"/>
<path d="M200.628 168.471C192.996 193.416 265.685 252.91 265.685 252.91C266.492 246.921 307.704 298.562 310.508 293.885C318.477 280.593 327.245 247.738 336.445 243.538C341.706 241.137 311.525 207.758 311.525 207.758C311.525 207.758 296.129 187.295 275.802 161.36C270.19 153.92 262.796 148.028 254.309 144.232C245.821 140.436 236.515 138.859 227.258 139.648C227.258 139.648 208.261 143.526 200.628 168.471Z" fill="#3F3D56"/>
<path d="M232.767 113.248C257.436 113.248 277.434 93.1567 277.434 68.3727C277.434 43.5888 257.436 23.4974 232.767 23.4974C208.098 23.4974 188.099 43.5888 188.099 68.3727C188.099 93.1567 208.098 113.248 232.767 113.248Z" fill="#A0616A"/>
<path d="M255.101 142.908C264.724 148.655 270.48 159.215 273.785 169.962C279.902 189.857 283.585 210.426 284.751 231.216L288.241 293.457L331.468 425.986C294.004 457.833 153.186 433.224 153.186 433.224C153.186 433.224 148.864 431.777 153.186 427.434C157.509 423.091 161.717 426.938 157.394 422.595C153.072 418.253 156.052 423.091 157.493 418.748C158.934 414.405 157.493 417.3 156.052 415.853C154.611 414.405 167.206 401.377 167.206 401.377L155.679 325.304L141.27 171.859C158.561 150.145 193.335 137.345 193.335 137.345L202.32 121.097L247.245 124.708L255.101 142.908Z" fill="#3F3D56"/>
<path d="M269.588 44.5312C273.06 47.1326 275.632 50.7623 276.942 54.9095C277.445 48.1322 277.477 41.3278 277.038 34.5461C276.511 29.7805 273.172 28.7086 269.305 27.4665C265.812 26.3443 261.863 25.0766 260.8 20.4504C246.76 6.72752 222.317 7.4195 205.589 12.2062C196.385 14.8403 191.089 18.2245 190.615 20.207L190.517 20.6151L190.143 20.8029C183.048 24.3669 181.667 35.6215 181.758 44.4351C181.931 61.0405 187.638 79.9001 190.853 81.4322C191.023 81.5133 191.066 81.4815 191.14 81.4198C195.98 77.5331 201.887 81.7152 204.482 83.9886C206.013 73.6681 210.942 64.1606 218.482 56.9846C226.023 49.8086 235.739 45.3782 246.079 44.4008C249.456 44.0729 252.806 43.5085 256.105 42.7118C257.778 42.2769 259.499 42.0501 261.227 42.0366C264.202 41.9912 267.12 42.8617 269.588 44.5312Z" fill="#2F2E41"/>
<path d="M213.305 366.487L199.641 359.456C198.909 358.932 198.389 358.161 198.176 357.284C197.963 356.406 198.072 355.481 198.481 354.677C198.891 353.874 199.575 353.245 200.408 352.906C201.241 352.566 202.168 352.54 203.019 352.83L216.683 359.861C217.415 360.385 217.935 361.156 218.148 362.033C218.361 362.911 218.253 363.836 217.843 364.64C217.433 365.443 216.749 366.072 215.916 366.411C215.083 366.751 214.156 366.777 213.305 366.487Z" fill="#243448"/>
<path d="M167.319 347.651L144.842 263.583L204.907 252.16L201.677 309.864L280.598 391.504C284.776 391.333 288.913 392.386 292.506 394.536C296.098 396.686 298.991 399.84 300.83 403.613C302.669 407.386 303.376 411.614 302.864 415.784C302.353 419.953 300.644 423.883 297.948 427.094C295.252 430.305 291.683 432.659 287.679 433.868C283.674 435.077 279.406 435.089 275.394 433.903C271.383 432.716 267.801 430.383 265.087 427.188C262.372 423.992 260.642 420.072 260.107 415.906L167.319 347.651Z" fill="#A0616A"/>
<path d="M138.695 169.325C118.307 185.495 144.475 275.946 144.475 275.946C148.527 271.479 153.235 337.499 158.187 335.251C172.262 328.862 198.059 306.83 208.004 308.626C213.692 309.653 207.733 264.957 207.733 264.957C207.733 264.957 206.637 239.329 204.577 206.384C204.167 197.059 201.415 187.99 196.577 180.021C191.74 172.052 184.974 165.442 176.91 160.807C176.91 160.807 159.084 153.154 138.695 169.325Z" fill="#3F3D56"/>
<path d="M845.362 400.87L29.3994 399.938C24.8139 390.171 20.7427 380.169 17.2026 369.972L826 370.832C833.784 379.913 840.298 390.019 845.362 400.87Z" fill="#3F3D56"/>
<path d="M585.475 618.203C581.258 620.254 577.004 622.233 572.711 624.139C565.577 620.068 558.525 615.811 551.514 611.46L577.516 599.984L585.475 618.203Z" fill="#FFB6B6"/>
<path d="M775.057 475.469C770.83 481.166 766.469 486.749 761.974 492.218C757.829 497.263 753.574 502.21 749.21 507.061C747.406 509.071 745.581 511.07 743.715 513.048C740.281 516.746 736.772 520.382 733.188 523.955C726.734 525.996 713.661 529.59 699.649 532.946C689.452 535.38 678.761 537.69 669.75 539.161C664.705 540.071 659.603 540.618 654.481 540.798C648.398 540.849 642.222 540.684 636.025 540.352C629.035 539.979 622.035 539.399 615.117 538.653C597.125 536.758 579.701 533.806 564.669 530.771C559.164 529.673 553.988 528.554 549.225 527.467C540.203 525.426 532.656 523.52 527.192 522.07C521.037 520.454 517.531 519.408 517.531 519.408L502.118 545.345L494.117 558.8L488.24 568.692L486.673 571.313C486.013 570.95 485.354 570.577 484.694 570.215C474.274 564.408 463.565 559.143 452.609 554.439C445.412 551.394 438.123 548.649 430.762 546.308H430.751C427.937 545.417 425.112 544.578 422.276 543.812C423.163 541.419 424.06 539.009 424.967 536.582C426.658 532.055 428.383 527.487 430.143 522.878C433.947 512.893 437.886 502.763 441.938 492.684C445.258 484.408 448.639 476.163 452.062 468.032C453.64 464.282 456.846 460.989 461.331 458.099C463.475 456.741 465.71 455.536 468.022 454.494C480.858 448.621 499.767 444.799 520.604 442.344C522.326 442.147 524.058 441.95 525.8 441.764C543.049 439.941 561.35 438.998 578.464 438.563C587.032 438.346 595.301 438.263 602.992 438.253C605.477 438.253 607.893 438.26 610.24 438.273H610.25C616.591 438.304 622.427 438.398 627.561 438.501C628.561 438.522 629.53 438.553 630.479 438.574H630.489C631.128 438.584 631.757 438.605 632.376 438.615C643.604 438.905 650.491 439.257 650.491 439.257L653.161 418.21L653.707 413.963L654.223 409.923V409.913L654.285 409.405L654.708 409.395L662.131 409.25L724.528 408.028L758.613 407.354L753.21 430.619L744.292 469.006C745.199 475.076 775.367 470.321 775.057 475.469Z" fill="#2F2E41"/>
<path d="M593.166 614.371C590.62 615.676 588.053 616.961 585.475 618.204C581.258 620.254 577.004 622.233 572.711 624.139C565.577 620.068 558.524 615.811 551.514 611.46C540.069 604.355 528.739 597 517.377 589.822C515.676 588.735 513.985 587.668 512.284 586.611H512.273C507.592 579.63 502.819 572.359 498.004 564.87C497.932 564.766 497.87 564.663 497.808 564.559C496.571 562.653 495.341 560.733 494.117 558.8C486.416 546.681 478.673 534.044 471.157 521.138L490.189 512.209L525.573 495.616L531.677 492.757L549.225 527.467L564.875 558.427L568.36 565.315L593.166 614.371Z" fill="#2F2E41"/>
<path d="M598.499 447.728L688.713 360.323L713.718 289.194L676.835 273.082C657.891 291.313 637.413 348.099 637.413 348.099L575.333 427.447C574.849 427.613 574.367 427.79 573.89 428.001C571.094 429.24 568.663 431.182 566.833 433.641C565.002 436.099 563.834 438.99 563.441 442.035C563.047 445.079 563.442 448.175 564.588 451.021C565.733 453.867 567.589 456.369 569.978 458.284C572.367 460.198 575.207 461.462 578.224 461.952C581.24 462.442 584.332 462.141 587.199 461.08C590.067 460.019 592.613 458.232 594.593 455.893C596.572 453.554 597.918 450.742 598.499 447.728Z" fill="#FFB8B8"/>
<path d="M666.457 281.023L713.24 295.944L713.416 295.915C730.829 292.984 745.277 264.413 754.331 240.961C757.31 233.226 757.255 224.642 754.176 216.946C751.097 209.25 745.224 203.016 737.745 199.503C732.21 196.95 726.075 196.002 720.033 196.768C713.99 197.534 708.281 199.983 703.552 203.838L679.529 223.559L666.457 281.023Z" fill="#243448"/>
<path d="M774.87 476.518L775.143 476.153C789.739 456.705 769.776 408.543 766.758 401.558L780.329 397.519L777.964 371.558L776.824 359.981L787.377 349.914L787.412 349.657L794.669 297.77L804.165 263.429C807.744 250.447 807.819 236.742 804.384 223.72C800.949 210.699 794.126 198.83 784.616 189.333L765.205 169.971L741.949 133.4L702.957 132.389L688.935 157.413C675.896 160.086 664.204 167.271 655.895 177.715C647.586 188.159 643.187 201.2 643.465 214.567L644.785 281.186L630.794 363.727L630.401 378.72L616.669 393.278L619.208 407.997L608.936 412.107L603.909 433.022C601.99 435.435 589.314 451.532 589.199 456.019C589.181 456.693 589.66 457.357 590.703 458.107C598.908 464.004 644.767 476.784 665.406 469.101C687.391 460.924 773.554 476.281 774.422 476.437L774.87 476.518Z" fill="#243448"/>
<path d="M719.047 121.178C747.577 121.178 770.705 97.9427 770.705 69.2804C770.705 40.6181 747.577 17.3827 719.047 17.3827C690.518 17.3827 667.39 40.6181 667.39 69.2804C667.39 97.9427 690.518 121.178 719.047 121.178Z" fill="#FFB8B8"/>
<path d="M712.746 121.873C720.745 121.998 728.741 121.437 736.645 120.195C744.48 118.594 762.007 105.69 766.894 97.9249C770.524 92.1555 772.845 83.1463 774.153 76.6049C775.915 67.9484 775.848 59.0167 773.956 50.3881C772.064 41.7594 768.389 33.6262 763.169 26.5151C761.163 23.5407 758.394 21.1664 755.155 19.6432C754.868 19.5304 754.573 19.4305 754.274 19.345C749.554 18.0974 745.313 15.4611 742.096 11.7744C741.472 11.0288 740.795 10.3292 740.072 9.68121C736.435 6.59802 732.124 4.4232 727.49 3.33453C720.011 1.3236 709.188 3.31972 695.321 9.27317C688.354 12.2643 680.735 11.1818 674.874 9.90444C674.545 9.84064 674.205 9.86444 673.888 9.97348C673.572 10.0825 673.289 10.273 673.068 10.5259C670.574 12.878 667.287 14.1945 663.866 14.211C661.771 14.3034 659.573 17.2177 656.917 21.018C656.314 21.8807 655.61 22.8875 655.103 23.4999L655.035 22.3234L653.85 23.6359C651.987 25.6987 650.674 28.2016 650.033 30.9114C649.393 33.6212 649.445 36.4499 650.185 39.134C650.926 41.8181 652.33 44.2703 654.268 46.2623C656.205 48.2543 658.613 49.7212 661.267 50.5266C663.375 51.0899 665.534 51.4356 667.711 51.5582C669.03 51.6774 670.394 51.8008 671.701 52.0286C675.897 52.8919 679.799 54.8334 683.025 57.6637C686.251 60.494 688.691 64.1163 690.108 68.177C690.443 69.1157 690.988 69.9644 691.701 70.6578C692.415 71.3511 693.277 71.8705 694.222 72.1758C695.167 72.4812 696.169 72.5643 697.151 72.4188C698.132 72.2732 699.068 71.903 699.885 71.3366C701.247 70.2712 702.845 69.5525 704.543 69.2418C706.241 68.9312 707.989 69.0378 709.637 69.5525C711.061 70.3482 712.17 71.6117 712.778 73.1312C713.515 74.824 714.739 76.2577 716.291 77.2492C721.6 79.9994 721.966 92.1826 720.059 102.339C718.221 112.128 714.588 119.21 711.224 119.56C708.634 119.83 708.338 120.014 708.15 120.475L707.982 120.887L708.273 121.272C709.704 121.793 711.229 121.998 712.746 121.873Z" fill="#2F2E41"/>
<path d="M679.285 265.333L659.367 225.438C630.457 227.422 573.077 261.005 573.077 261.005L464.513 284.13C461.297 282.888 457.812 282.519 454.409 283.06C451.006 283.601 447.805 285.034 445.128 287.213C442.451 289.393 440.393 292.242 439.16 295.474C437.928 298.707 437.565 302.209 438.108 305.627C438.65 309.045 440.08 312.26 442.252 314.946C444.425 317.633 447.263 319.698 450.482 320.932C453.702 322.166 457.187 322.527 460.589 321.977C463.991 321.428 467.189 319.988 469.861 317.802L607.961 307.857L679.285 265.333Z" fill="#FFB8B8"/>
<path d="M671.252 271.883L723.27 233.046L732.433 199.872C734.208 193.353 734.133 186.465 732.216 179.986C730.3 173.508 726.617 167.697 721.586 163.211C714.724 157.175 705.838 153.982 696.723 154.278C687.608 154.573 678.945 158.335 672.485 164.802C652.91 184.432 630.583 211.817 635.379 230.807L635.427 231L671.252 271.883Z" fill="#243448"/>
<path d="M606.858 375.762H467.672V394.407H606.858V375.762Z" fill="white"/>
<path d="M251.159 375.762H111.973V394.407H251.159V375.762Z" fill="white"/>
<path d="M267.412 286.101V374.874C267.413 376.005 267.861 377.09 268.657 377.89C269.453 378.69 270.533 379.139 271.659 379.14H402.602C403.728 379.139 404.808 378.69 405.604 377.89C406.4 377.09 406.848 376.005 406.849 374.874V286.101C406.846 284.971 406.398 283.887 405.602 283.089C404.806 282.29 403.727 281.841 402.602 281.839H271.659C270.534 281.841 269.455 282.29 268.659 283.089C267.863 283.887 267.415 284.971 267.412 286.101Z" fill="#3F3D56"/>
<path d="M270.484 287.205V373.779C270.485 374.383 270.725 374.963 271.15 375.39C271.575 375.817 272.152 376.058 272.754 376.059H401.512C402.114 376.058 402.69 375.817 403.116 375.39C403.541 374.963 403.781 374.383 403.782 373.779V287.205C403.782 286.6 403.543 286.02 403.117 285.591C402.692 285.163 402.114 284.922 401.512 284.92H272.754C272.151 284.922 271.574 285.163 271.149 285.591C270.723 286.02 270.484 286.6 270.484 287.205Z" fill="#243448"/>
<path d="M264.674 392.187C264.914 392.489 265.219 392.733 265.566 392.9C265.913 393.066 266.293 393.152 266.677 393.15H406.887C407.27 393.15 407.649 393.063 407.995 392.897C408.341 392.731 408.646 392.49 408.887 392.191C409.129 391.892 409.301 391.542 409.391 391.168C409.481 390.793 409.487 390.403 409.409 390.026L407.232 379.64C407.142 379.217 406.948 378.822 406.667 378.493C406.387 378.165 406.029 377.911 405.626 377.757C405.334 377.642 405.023 377.583 404.71 377.584H268.845C268.532 377.583 268.221 377.642 267.93 377.757C267.527 377.911 267.169 378.165 266.888 378.493C266.608 378.822 266.414 379.216 266.323 379.64L264.147 390.026C264.069 390.403 264.077 390.793 264.168 391.166C264.259 391.54 264.432 391.889 264.674 392.187Z" fill="#2F2E41"/>
<path d="M399.899 382.057H403.211C403.489 382.057 403.714 381.831 403.714 381.552V379.96C403.714 379.681 403.489 379.454 403.211 379.454H399.899C399.621 379.454 399.396 379.681 399.396 379.96V381.552C399.396 381.831 399.621 382.057 399.899 382.057Z" fill="#3F3D56"/>
<path d="M391.263 382.057H394.574C394.852 382.057 395.078 381.831 395.078 381.552V379.96C395.078 379.681 394.852 379.454 394.574 379.454H391.263C390.985 379.454 390.759 379.681 390.759 379.96V381.552C390.759 381.831 390.985 382.057 391.263 382.057Z" fill="#3F3D56"/>
<path d="M382.626 382.057H385.937C386.215 382.057 386.441 381.831 386.441 381.552V379.96C386.441 379.681 386.215 379.454 385.937 379.454H382.626C382.348 379.454 382.122 379.681 382.122 379.96V381.552C382.122 381.831 382.348 382.057 382.626 382.057Z" fill="#3F3D56"/>
<path d="M373.989 382.057H377.301C377.579 382.057 377.804 381.831 377.804 381.552V379.96C377.804 379.681 377.579 379.454 377.301 379.454H373.989C373.711 379.454 373.486 379.681 373.486 379.96V381.552C373.486 381.831 373.711 382.057 373.989 382.057Z" fill="#3F3D56"/>
<path d="M365.352 382.057H368.664C368.942 382.057 369.167 381.831 369.167 381.552V379.96C369.167 379.681 368.942 379.454 368.664 379.454H365.352C365.074 379.454 364.849 379.681 364.849 379.96V381.552C364.849 381.831 365.074 382.057 365.352 382.057Z" fill="#3F3D56"/>
<path d="M356.716 382.057H360.027C360.305 382.057 360.531 381.831 360.531 381.552V379.96C360.531 379.681 360.305 379.454 360.027 379.454H356.716C356.438 379.454 356.212 379.681 356.212 379.96V381.552C356.212 381.831 356.438 382.057 356.716 382.057Z" fill="#3F3D56"/>
<path d="M348.079 382.057H351.391C351.668 382.057 351.894 381.831 351.894 381.552V379.96C351.894 379.681 351.668 379.454 351.391 379.454H348.079C347.801 379.454 347.575 379.681 347.575 379.96V381.552C347.575 381.831 347.801 382.057 348.079 382.057Z" fill="#3F3D56"/>
<path d="M339.442 382.057H342.754C343.032 382.057 343.257 381.831 343.257 381.552V379.96C343.257 379.681 343.032 379.454 342.754 379.454H339.442C339.164 379.454 338.939 379.681 338.939 379.96V381.552C338.939 381.831 339.164 382.057 339.442 382.057Z" fill="#3F3D56"/>
<path d="M330.805 382.057H334.117C334.395 382.057 334.62 381.831 334.62 381.552V379.96C334.62 379.681 334.395 379.454 334.117 379.454H330.805C330.527 379.454 330.302 379.681 330.302 379.96V381.552C330.302 381.831 330.527 382.057 330.805 382.057Z" fill="#3F3D56"/>
<path d="M322.168 382.057H325.48C325.758 382.057 325.984 381.831 325.984 381.552V379.96C325.984 379.681 325.758 379.454 325.48 379.454H322.168C321.891 379.454 321.665 379.681 321.665 379.96V381.552C321.665 381.831 321.891 382.057 322.168 382.057Z" fill="#3F3D56"/>
<path d="M313.532 382.057H316.843C317.121 382.057 317.347 381.831 317.347 381.552V379.96C317.347 379.681 317.121 379.454 316.843 379.454H313.532C313.254 379.454 313.028 379.681 313.028 379.96V381.552C313.028 381.831 313.254 382.057 313.532 382.057Z" fill="#3F3D56"/>
<path d="M304.895 382.057H308.207C308.485 382.057 308.71 381.831 308.71 381.552V379.96C308.71 379.681 308.485 379.454 308.207 379.454H304.895C304.617 379.454 304.392 379.681 304.392 379.96V381.552C304.392 381.831 304.617 382.057 304.895 382.057Z" fill="#3F3D56"/>
<path d="M296.258 382.057H299.57C299.848 382.057 300.073 381.831 300.073 381.552V379.96C300.073 379.681 299.848 379.454 299.57 379.454H296.258C295.98 379.454 295.755 379.681 295.755 379.96V381.552C295.755 381.831 295.98 382.057 296.258 382.057Z" fill="#3F3D56"/>
<path d="M287.621 382.057H290.933C291.211 382.057 291.436 381.831 291.436 381.552V379.96C291.436 379.681 291.211 379.454 290.933 379.454H287.621C287.343 379.454 287.118 379.681 287.118 379.96V381.552C287.118 381.831 287.343 382.057 287.621 382.057Z" fill="#3F3D56"/>
<path d="M278.985 382.057H282.296C282.574 382.057 282.8 381.831 282.8 381.552V379.96C282.8 379.681 282.574 379.454 282.296 379.454H278.985C278.707 379.454 278.481 379.681 278.481 379.96V381.552C278.481 381.831 278.707 382.057 278.985 382.057Z" fill="#3F3D56"/>
<path d="M270.348 382.057H273.66C273.938 382.057 274.163 381.831 274.163 381.552V379.96C274.163 379.681 273.938 379.454 273.66 379.454H270.348C270.07 379.454 269.845 379.681 269.845 379.96V381.552C269.845 381.831 270.07 382.057 270.348 382.057Z" fill="#3F3D56"/>
<path d="M400.001 386.396H403.313C403.591 386.396 403.816 386.169 403.816 385.89V384.298C403.816 384.019 403.591 383.793 403.313 383.793H400.001C399.723 383.793 399.498 384.019 399.498 384.298V385.89C399.498 386.169 399.723 386.396 400.001 386.396Z" fill="#3F3D56"/>
<path d="M391.365 386.396H394.676C394.954 386.396 395.18 386.169 395.18 385.89V384.298C395.18 384.019 394.954 383.793 394.676 383.793H391.365C391.087 383.793 390.861 384.019 390.861 384.298V385.89C390.861 386.169 391.087 386.396 391.365 386.396Z" fill="#3F3D56"/>
<path d="M382.728 386.396H386.04C386.318 386.396 386.543 386.169 386.543 385.89V384.298C386.543 384.019 386.318 383.793 386.04 383.793H382.728C382.45 383.793 382.224 384.019 382.224 384.298V385.89C382.224 386.169 382.45 386.396 382.728 386.396Z" fill="#3F3D56"/>
<path d="M374.091 386.396H377.403C377.681 386.396 377.906 386.169 377.906 385.89V384.298C377.906 384.019 377.681 383.793 377.403 383.793H374.091C373.813 383.793 373.588 384.019 373.588 384.298V385.89C373.588 386.169 373.813 386.396 374.091 386.396Z" fill="#3F3D56"/>
<path d="M365.454 386.396H368.766C369.044 386.396 369.269 386.169 369.269 385.89V384.298C369.269 384.019 369.044 383.793 368.766 383.793H365.454C365.176 383.793 364.951 384.019 364.951 384.298V385.89C364.951 386.169 365.176 386.396 365.454 386.396Z" fill="#3F3D56"/>
<path d="M356.818 386.396H360.129C360.407 386.396 360.633 386.169 360.633 385.89V384.298C360.633 384.019 360.407 383.793 360.129 383.793H356.818C356.54 383.793 356.314 384.019 356.314 384.298V385.89C356.314 386.169 356.54 386.396 356.818 386.396Z" fill="#3F3D56"/>
<path d="M348.181 386.396H351.493C351.771 386.396 351.996 386.169 351.996 385.89V384.298C351.996 384.019 351.771 383.793 351.493 383.793H348.181C347.903 383.793 347.677 384.019 347.677 384.298V385.89C347.677 386.169 347.903 386.396 348.181 386.396Z" fill="#3F3D56"/>
<path d="M339.544 386.396H342.856C343.134 386.396 343.359 386.169 343.359 385.89V384.298C343.359 384.019 343.134 383.793 342.856 383.793H339.544C339.266 383.793 339.041 384.019 339.041 384.298V385.89C339.041 386.169 339.266 386.396 339.544 386.396Z" fill="#3F3D56"/>
<path d="M330.907 386.396H334.219C334.497 386.396 334.722 386.169 334.722 385.89V384.298C334.722 384.019 334.497 383.793 334.219 383.793H330.907C330.629 383.793 330.404 384.019 330.404 384.298V385.89C330.404 386.169 330.629 386.396 330.907 386.396Z" fill="#3F3D56"/>
<path d="M322.271 386.396H325.582C325.86 386.396 326.086 386.169 326.086 385.89V384.298C326.086 384.019 325.86 383.793 325.582 383.793H322.271C321.993 383.793 321.767 384.019 321.767 384.298V385.89C321.767 386.169 321.993 386.396 322.271 386.396Z" fill="#3F3D56"/>
<path d="M313.634 386.396H316.946C317.224 386.396 317.449 386.169 317.449 385.89V384.298C317.449 384.019 317.224 383.793 316.946 383.793H313.634C313.356 383.793 313.13 384.019 313.13 384.298V385.89C313.13 386.169 313.356 386.396 313.634 386.396Z" fill="#3F3D56"/>
<path d="M304.997 386.396H308.309C308.587 386.396 308.812 386.169 308.812 385.89V384.298C308.812 384.019 308.587 383.793 308.309 383.793H304.997C304.719 383.793 304.494 384.019 304.494 384.298V385.89C304.494 386.169 304.719 386.396 304.997 386.396Z" fill="#3F3D56"/>
<path d="M296.36 386.396H299.672C299.95 386.396 300.175 386.169 300.175 385.89V384.298C300.175 384.019 299.95 383.793 299.672 383.793H296.36C296.082 383.793 295.857 384.019 295.857 384.298V385.89C295.857 386.169 296.082 386.396 296.36 386.396Z" fill="#3F3D56"/>
<path d="M287.723 386.396H291.035C291.313 386.396 291.539 386.169 291.539 385.89V384.298C291.539 384.019 291.313 383.793 291.035 383.793H287.723C287.445 383.793 287.22 384.019 287.22 384.298V385.89C287.22 386.169 287.445 386.396 287.723 386.396Z" fill="#3F3D56"/>
<path d="M279.087 386.396H282.398C282.676 386.396 282.902 386.169 282.902 385.89V384.298C282.902 384.019 282.676 383.793 282.398 383.793H279.087C278.809 383.793 278.583 384.019 278.583 384.298V385.89C278.583 386.169 278.809 386.396 279.087 386.396Z" fill="#3F3D56"/>
<path d="M270.45 386.396H273.762C274.04 386.396 274.265 386.169 274.265 385.89V384.298C274.265 384.019 274.04 383.793 273.762 383.793H270.45C270.172 383.793 269.947 384.019 269.947 384.298V385.89C269.947 386.169 270.172 386.396 270.45 386.396Z" fill="#3F3D56"/>
<path d="M328.316 391.602H361.857C362.135 391.602 362.36 391.375 362.36 391.096V389.504C362.36 389.225 362.135 388.999 361.857 388.999H328.316C328.038 388.999 327.813 389.225 327.813 389.504V391.096C327.813 391.375 328.038 391.602 328.316 391.602Z" fill="#3F3D56"/>
</g>
<defs>
<clipPath id="clip0_35_203">
<rect width="859.061" height="655.78" fill="white" transform="translate(0.969543)"/>
</clipPath>
</defs>
</svg>
