<svg id="visual" viewBox="0 0 1920 1080" width="1920" height="1080" xmlns="http://www.w3.org/2000/svg" xmlns:xlink="http://www.w3.org/1999/xlink" version="1.1"><path d="M0 98L35.5 126.8C71 155.7 142 213.3 213.2 238.5C284.3 263.7 355.7 256.3 426.8 270.7C498 285 569 321 640 290.5C711 260 782 163 853.2 130.7C924.3 98.3 995.7 130.7 1066.8 136C1138 141.3 1209 119.7 1280 135.8C1351 152 1422 206 1493.2 227.7C1564.3 249.3 1635.7 238.7 1706.8 251.3C1778 264 1849 300 1884.5 318L1920 336L1920 0L1884.5 0C1849 0 1778 0 1706.8 0C1635.7 0 1564.3 0 1493.2 0C1422 0 1351 0 1280 0C1209 0 1138 0 1066.8 0C995.7 0 924.3 0 853.2 0C782 0 711 0 640 0C569 0 498 0 426.8 0C355.7 0 284.3 0 213.2 0C142 0 71 0 35.5 0L0 0Z" fill="#3d396a"></path><path d="M0 260L35.5 314C71 368 142 476 213.2 495.8C284.3 515.7 355.7 447.3 426.8 445.5C498 443.7 569 508.3 640 580.3C711 652.3 782 731.7 853.2 724.5C924.3 717.3 995.7 623.7 1066.8 582.3C1138 541 1209 552 1280 575.5C1351 599 1422 635 1493.2 620.5C1564.3 606 1635.7 541 1706.8 503.2C1778 465.3 1849 454.7 1884.5 449.3L1920 444L1920 334L1884.5 316C1849 298 1778 262 1706.8 249.3C1635.7 236.7 1564.3 247.3 1493.2 225.7C1422 204 1351 150 1280 133.8C1209 117.7 1138 139.3 1066.8 134C995.7 128.7 924.3 96.3 853.2 128.7C782 161 711 258 640 288.5C569 319 498 283 426.8 268.7C355.7 254.3 284.3 261.7 213.2 236.5C142 211.3 71 153.7 35.5 124.8L0 96Z" fill="#5f5898"></path><path d="M0 649L35.5 676C71 703 142 757 213.2 800.2C284.3 843.3 355.7 875.7 426.8 888.3C498 901 569 894 640 894C711 894 782 901 853.2 883C924.3 865 995.7 822 1066.8 800.5C1138 779 1209 779 1280 764.5C1351 750 1422 721 1493.2 726.3C1564.3 731.7 1635.7 771.3 1706.8 780.3C1778 789.3 1849 767.7 1884.5 756.8L1920 746L1920 442L1884.5 447.3C1849 452.7 1778 463.3 1706.8 501.2C1635.7 539 1564.3 604 1493.2 618.5C1422 633 1351 597 1280 573.5C1209 550 1138 539 1066.8 580.3C995.7 621.7 924.3 715.3 853.2 722.5C782 729.7 711 650.3 640 578.3C569 506.3 498 441.7 426.8 443.5C355.7 445.3 284.3 513.7 213.2 493.8C142 474 71 366 35.5 312L0 258Z" fill="#8079af"></path><path d="M0 876L35.5 870.5C71 865 142 854 213.2 881C284.3 908 355.7 973 426.8 1007.3C498 1041.7 569 1045.3 640 1030.8C711 1016.3 782 983.7 853.2 981.8C924.3 980 995.7 1009 1066.8 1007.3C1138 1005.7 1209 973.3 1280 964.3C1351 955.3 1422 969.7 1493.2 978.7C1564.3 987.7 1635.7 991.3 1706.8 971.5C1778 951.7 1849 908.3 1884.5 886.7L1920 865L1920 744L1884.5 754.8C1849 765.7 1778 787.3 1706.8 778.3C1635.7 769.3 1564.3 729.7 1493.2 724.3C1422 719 1351 748 1280 762.5C1209 777 1138 777 1066.8 798.5C995.7 820 924.3 863 853.2 881C782 899 711 892 640 892C569 892 498 899 426.8 886.3C355.7 873.7 284.3 841.3 213.2 798.2C142 755 71 701 35.5 674L0 647Z" fill="#5f5898"></path><path d="M0 1081L35.5 1081C71 1081 142 1081 213.2 1081C284.3 1081 355.7 1081 426.8 1081C498 1081 569 1081 640 1081C711 1081 782 1081 853.2 1081C924.3 1081 995.7 1081 1066.8 1081C1138 1081 1209 1081 1280 1081C1351 1081 1422 1081 1493.2 1081C1564.3 1081 1635.7 1081 1706.8 1081C1778 1081 1849 1081 1884.5 1081L1920 1081L1920 863L1884.5 884.7C1849 906.3 1778 949.7 1706.8 969.5C1635.7 989.3 1564.3 985.7 1493.2 976.7C1422 967.7 1351 953.3 1280 962.3C1209 971.3 1138 1003.7 1066.8 1005.3C995.7 1007 924.3 978 853.2 979.8C782 981.7 711 1014.3 640 1028.8C569 1043.3 498 1039.7 426.8 1005.3C355.7 971 284.3 906 213.2 879C142 852 71 863 35.5 868.5L0 874Z" fill="#3d396a"></path></svg>