<svg id="visual" viewBox="0 0 1920 1080" width="1920" height="1080" xmlns="http://www.w3.org/2000/svg" xmlns:xlink="http://www.w3.org/1999/xlink" version="1.1"><rect x="0" y="0" width="1920" height="1080" fill="#f5f5f5"></rect><path d="M0 973L53.3 960.7C106.7 948.3 213.3 923.7 320 898.8C426.7 874 533.3 849 640 846C746.7 843 853.3 862 960 892.8C1066.7 923.7 1173.3 966.3 1280 964.8C1386.7 963.3 1493.3 917.7 1600 899C1706.7 880.3 1813.3 888.7 1866.7 892.8L1920 897L1920 1081L1866.7 1081C1813.3 1081 1706.7 1081 1600 1081C1493.3 1081 1386.7 1081 1280 1081C1173.3 1081 1066.7 1081 960 1081C853.3 1081 746.7 1081 640 1081C533.3 1081 426.7 1081 320 1081C213.3 1081 106.7 1081 53.3 1081L0 1081Z" fill="#544d91" stroke-linecap="round" stroke-linejoin="miter"></path></svg>