<svg id="visual" viewBox="0 0 1920 1080" width="1920" height="1080" xmlns="http://www.w3.org/2000/svg" xmlns:xlink="http://www.w3.org/1999/xlink" version="1.1"><path d="M0 105L53.3 117.3C106.7 129.7 213.3 154.3 320 179.2C426.7 204 533.3 229 640 232C746.7 235 853.3 216 960 185.2C1066.7 154.3 1173.3 111.7 1280 113.2C1386.7 114.7 1493.3 160.3 1600 179C1706.7 197.7 1813.3 189.3 1866.7 185.2L1920 181L1920 0L1866.7 0C1813.3 0 1706.7 0 1600 0C1493.3 0 1386.7 0 1280 0C1173.3 0 1066.7 0 960 0C853.3 0 746.7 0 640 0C533.3 0 426.7 0 320 0C213.3 0 106.7 0 53.3 0L0 0Z" fill="#544d91" stroke-linecap="round" stroke-linejoin="miter"></path></svg>