<svg id="visual" viewBox="0 0 1920 1080" width="1920" height="1080" xmlns="http://www.w3.org/2000/svg" xmlns:xlink="http://www.w3.org/1999/xlink" version="1.1"><path d="M23 0L77.2 30C131.3 60 239.7 120 265.8 180C292 240 236 300 194.2 360C152.3 420 124.7 480 97.2 540C69.7 600 42.3 660 70.7 720C99 780 183 840 221 900C259 960 251 1020 247 1050L243 1080L0 1080L0 1050C0 1020 0 960 0 900C0 840 0 780 0 720C0 660 0 600 0 540C0 480 0 420 0 360C0 300 0 240 0 180C0 120 0 60 0 30L0 0Z" fill="#544d91" stroke-linecap="round" stroke-linejoin="miter"></path></svg>