<svg width="1734" height="713" viewBox="0 0 1734 713" fill="none" xmlns="http://www.w3.org/2000/svg">
<path d="M785.587 285L783.922 275.016L790.963 272.712L816.307 196.552H832.179L857.907 272.712L863.795 275.016L862.515 285H829.235V275.4L839.475 272.712L834.867 257.096H809.779L804.915 273.224L816.179 275.272V285H785.587ZM813.747 243.656H829.235L822.451 214.728L813.747 243.656ZM909.408 285.512C903.69 285.512 898.229 284.616 893.024 282.824C887.818 281.032 883.21 278.344 879.2 274.76C875.189 271.091 872.032 266.568 869.728 261.192C867.424 255.731 866.272 249.416 866.272 242.248C866.272 234.739 867.466 228.168 869.856 222.536C872.245 216.819 875.445 212.04 879.456 208.2C883.552 204.36 888.117 201.459 893.152 199.496C898.186 197.533 903.306 196.552 908.512 196.552C914.229 196.552 918.922 196.979 922.592 197.832C926.261 198.6 928.778 199.197 930.144 199.624L932.704 226.12H922.336L914.784 210.248C914.186 210.163 913.546 210.12 912.864 210.12C912.181 210.035 911.157 209.992 909.792 209.992C905.098 209.992 900.746 211.229 896.736 213.704C892.81 216.179 889.653 219.677 887.264 224.2C884.874 228.723 883.594 234.141 883.424 240.456C883.509 246.6 884.661 252.061 886.88 256.84C889.098 261.533 892.17 265.245 896.096 267.976C900.106 270.707 904.757 272.072 910.048 272.072C913.546 272.072 917.045 271.432 920.544 270.152C924.128 268.872 927.114 266.995 929.504 264.52L934.88 275.912C933.344 277.704 931.21 279.325 928.479 280.776C925.834 282.227 922.848 283.379 919.52 284.232C916.192 285.085 912.821 285.512 909.408 285.512ZM984.533 285.512C978.815 285.512 973.354 284.616 968.149 282.824C962.943 281.032 958.335 278.344 954.325 274.76C950.314 271.091 947.157 266.568 944.853 261.192C942.549 255.731 941.397 249.416 941.397 242.248C941.397 234.739 942.591 228.168 944.981 222.536C947.37 216.819 950.57 212.04 954.581 208.2C958.677 204.36 963.242 201.459 968.277 199.496C973.311 197.533 978.431 196.552 983.637 196.552C989.354 196.552 994.047 196.979 997.717 197.832C1001.39 198.6 1003.9 199.197 1005.27 199.624L1007.83 226.12H997.461L989.909 210.248C989.311 210.163 988.671 210.12 987.989 210.12C987.306 210.035 986.282 209.992 984.917 209.992C980.223 209.992 975.871 211.229 971.861 213.704C967.935 216.179 964.778 219.677 962.389 224.2C959.999 228.723 958.719 234.141 958.549 240.456C958.634 246.6 959.786 252.061 962.005 256.84C964.223 261.533 967.295 265.245 971.221 267.976C975.231 270.707 979.882 272.072 985.173 272.072C988.671 272.072 992.17 271.432 995.669 270.152C999.253 268.872 1002.24 266.995 1004.63 264.52L1010 275.912C1008.47 277.704 1006.34 279.325 1003.6 280.776C1000.96 282.227 997.973 283.379 994.645 284.232C991.317 285.085 987.946 285.512 984.533 285.512ZM1019.72 285L1017.93 273.736L1026.25 272.072V208.84L1018.19 207.944V196.552H1076.55L1078.99 222.664H1069L1063.75 209.992H1043.02V232.776H1062.47V246.216H1043.02V271.56H1064.65L1069.39 258.888H1079.5L1076.81 285H1019.72ZM1114.66 285.512C1109.71 285.512 1104.97 284.915 1100.45 283.72C1095.93 282.44 1091.96 281.117 1088.55 279.752L1091.11 255.048L1101.86 255.944L1102.88 270.152C1103.99 270.408 1105.48 270.792 1107.36 271.304C1109.32 271.816 1111.5 272.072 1113.89 272.072C1116.62 272.072 1119.09 271.731 1121.31 271.048C1123.62 270.28 1125.45 269.128 1126.82 267.592C1128.27 266.056 1128.99 264.051 1128.99 261.576C1128.99 259.272 1128.4 257.395 1127.2 255.944C1126.01 254.408 1124.21 253 1121.83 251.72C1119.52 250.355 1116.53 248.861 1112.87 247.24C1109.54 245.704 1106.47 244.168 1103.65 242.632C1100.83 241.011 1098.36 239.219 1096.23 237.256C1094.18 235.293 1092.56 232.989 1091.36 230.344C1090.17 227.613 1089.57 224.328 1089.57 220.488C1089.57 215.539 1090.89 211.272 1093.54 207.688C1096.27 204.104 1099.89 201.331 1104.42 199.368C1109.03 197.405 1114.06 196.424 1119.52 196.424C1123.96 196.424 1128.27 196.765 1132.45 197.448C1136.72 198.131 1140.51 198.941 1143.84 199.88L1145.76 224.2H1135.01L1128.74 210.632C1127.63 210.461 1126.26 210.291 1124.64 210.12C1123.02 209.949 1121.48 209.864 1120.03 209.864C1117.05 209.864 1114.57 210.333 1112.61 211.272C1110.73 212.125 1109.32 213.277 1108.39 214.728C1107.45 216.179 1106.98 217.8 1106.98 219.592C1106.98 221.299 1107.49 222.835 1108.51 224.2C1109.62 225.48 1111.03 226.675 1112.74 227.784C1114.53 228.808 1116.41 229.789 1118.37 230.728C1120.42 231.581 1122.38 232.477 1124.26 233.416C1129.29 235.805 1133.43 238.195 1136.67 240.584C1140 242.973 1142.48 245.661 1144.1 248.648C1145.72 251.635 1146.53 255.176 1146.53 259.272C1146.53 264.051 1145.59 268.104 1143.71 271.432C1141.92 274.76 1139.49 277.491 1136.42 279.624C1133.35 281.672 1129.89 283.165 1126.05 284.104C1122.29 285.043 1118.5 285.512 1114.66 285.512ZM1182.28 285.512C1177.33 285.512 1172.6 284.915 1168.07 283.72C1163.55 282.44 1159.58 281.117 1156.17 279.752L1158.73 255.048L1169.48 255.944L1170.51 270.152C1171.62 270.408 1173.11 270.792 1174.99 271.304C1176.95 271.816 1179.13 272.072 1181.51 272.072C1184.25 272.072 1186.72 271.731 1188.94 271.048C1191.24 270.28 1193.08 269.128 1194.44 267.592C1195.89 266.056 1196.62 264.051 1196.62 261.576C1196.62 259.272 1196.02 257.395 1194.83 255.944C1193.63 254.408 1191.84 253 1189.45 251.72C1187.15 250.355 1184.16 248.861 1180.49 247.24C1177.16 245.704 1174.09 244.168 1171.27 242.632C1168.46 241.011 1165.98 239.219 1163.85 237.256C1161.8 235.293 1160.18 232.989 1158.99 230.344C1157.79 227.613 1157.19 224.328 1157.19 220.488C1157.19 215.539 1158.52 211.272 1161.16 207.688C1163.89 204.104 1167.52 201.331 1172.04 199.368C1176.65 197.405 1181.69 196.424 1187.15 196.424C1191.58 196.424 1195.89 196.765 1200.07 197.448C1204.34 198.131 1208.14 198.941 1211.47 199.88L1213.39 224.2H1202.63L1196.36 210.632C1195.25 210.461 1193.89 210.291 1192.27 210.12C1190.65 209.949 1189.11 209.864 1187.66 209.864C1184.67 209.864 1182.2 210.333 1180.23 211.272C1178.36 212.125 1176.95 213.277 1176.01 214.728C1175.07 216.179 1174.6 217.8 1174.6 219.592C1174.6 221.299 1175.11 222.835 1176.14 224.2C1177.25 225.48 1178.66 226.675 1180.36 227.784C1182.15 228.808 1184.03 229.789 1185.99 230.728C1188.04 231.581 1190.01 232.477 1191.88 233.416C1196.92 235.805 1201.06 238.195 1204.3 240.584C1207.63 242.973 1210.1 245.661 1211.72 248.648C1213.34 251.635 1214.15 255.176 1214.15 259.272C1214.15 264.051 1213.22 268.104 1211.34 271.432C1209.55 274.76 1207.11 277.491 1204.04 279.624C1200.97 281.672 1197.51 283.165 1193.67 284.104C1189.92 285.043 1186.12 285.512 1182.28 285.512ZM1256.72 285L1254.93 273.736L1263.25 272.072V208.84L1255.19 207.816V196.552H1277.97C1288.38 196.552 1297.25 198.173 1304.59 201.416C1312.02 204.573 1317.69 209.352 1321.62 215.752C1325.54 222.067 1327.51 230.045 1327.51 239.688C1327.51 249.245 1325.84 257.437 1322.51 264.264C1319.27 271.005 1314.36 276.168 1307.79 279.752C1301.31 283.251 1293.2 285 1283.47 285H1256.72ZM1282.45 271.688C1286.97 271.688 1290.94 271.005 1294.35 269.64C1297.77 268.275 1300.63 266.269 1302.93 263.624C1305.23 260.979 1306.98 257.693 1308.18 253.768C1309.37 249.757 1309.97 245.192 1309.97 240.072C1309.97 233.416 1308.82 227.869 1306.51 223.432C1304.29 218.995 1301.01 215.667 1296.66 213.448C1292.31 211.229 1286.97 210.077 1280.66 209.992H1280.02V271.56L1282.45 271.688ZM1337.22 285L1335.43 273.736L1343.75 272.072V208.84L1335.69 207.944V196.552H1394.05L1396.49 222.664H1386.5L1381.25 209.992H1360.52V232.776H1379.97V246.216H1360.52V271.56H1382.15L1386.89 258.888H1397L1394.31 285H1337.22ZM1408.22 285L1406.17 273.864L1415.01 272.2V209.352L1406.81 208.456V196.552H1439.58L1468.64 272.712V209.096L1461.21 208.2V196.552H1488.73L1490.65 208.456L1482.08 209.992V285H1456.22L1428.45 212.936V271.688L1434.97 273.736L1434.85 285H1408.22ZM1500.97 285L1499.17 273.608L1508.13 271.944V209.096L1499.43 208.2V196.552H1532.71L1534.63 208.456L1524.9 209.992V272.328L1534.37 273.864L1534.25 285H1500.97ZM1545.72 285L1543.93 273.736L1552.25 272.072V208.84L1544.19 207.944V196.552H1602.55L1604.99 222.664H1595L1589.75 209.992H1569.02V232.776H1588.47V246.216H1569.02V271.56H1590.65L1595.39 258.888H1605.5L1602.81 285H1545.72ZM1616.72 285L1614.93 273.736L1623.25 272.072V208.84L1615.19 207.816V196.552H1637.97C1648.38 196.552 1657.25 198.173 1664.59 201.416C1672.02 204.573 1677.69 209.352 1681.62 215.752C1685.54 222.067 1687.51 230.045 1687.51 239.688C1687.51 249.245 1685.84 257.437 1682.51 264.264C1679.27 271.005 1674.36 276.168 1667.79 279.752C1661.31 283.251 1653.2 285 1643.47 285H1616.72ZM1642.45 271.688C1646.97 271.688 1650.94 271.005 1654.35 269.64C1657.77 268.275 1660.63 266.269 1662.93 263.624C1665.23 260.979 1666.98 257.693 1668.18 253.768C1669.37 249.757 1669.97 245.192 1669.97 240.072C1669.97 233.416 1668.82 227.869 1666.51 223.432C1664.29 218.995 1661.01 215.667 1656.66 213.448C1652.31 211.229 1646.97 210.077 1640.66 209.992H1640.02V271.56L1642.45 271.688ZM781.598 447L780.958 442.968L788.318 441.624V430.744L776.222 408.216L773.534 407.576V402.776H787.294L787.806 407.064L783.454 407.832L792.286 424.152L800.286 407.704L796.382 407.064V402.776H809.054V407.576L806.238 408.216L794.782 431.192V441.624L802.142 442.968L801.566 447H781.598ZM821.527 447.256C818.881 447.256 816.535 446.573 814.487 445.208C812.439 443.843 810.839 441.965 809.687 439.576C808.535 437.187 807.959 434.477 807.959 431.448C807.959 428.291 808.556 425.56 809.751 423.256C810.945 420.909 812.545 419.096 814.551 417.816C816.599 416.536 818.924 415.896 821.527 415.896C824.172 415.896 826.519 416.557 828.567 417.88C830.615 419.16 832.215 420.973 833.367 423.32C834.519 425.667 835.095 428.376 835.095 431.448C835.095 434.52 834.519 437.251 833.367 439.64C832.215 442.029 830.615 443.907 828.567 445.272C826.519 446.595 824.172 447.256 821.527 447.256ZM821.527 442.328C823.148 442.328 824.513 441.901 825.623 441.048C826.732 440.152 827.564 438.915 828.119 437.336C828.673 435.757 828.951 433.901 828.951 431.768C828.951 429.677 828.673 427.8 828.119 426.136C827.564 424.472 826.732 423.171 825.623 422.232C824.513 421.293 823.148 420.824 821.527 420.824C820.289 420.824 819.201 421.123 818.263 421.72C817.367 422.275 816.599 423.085 815.959 424.152C815.361 425.176 814.913 426.371 814.615 427.736C814.316 429.059 814.167 430.488 814.167 432.024C814.167 434.115 814.444 435.949 814.999 437.528C815.596 439.064 816.428 440.259 817.495 441.112C818.604 441.923 819.948 442.328 821.527 442.328ZM851.939 447.256C850.147 447.256 848.504 446.936 847.011 446.296C845.56 445.613 844.387 444.547 843.491 443.096C842.637 441.645 842.211 439.725 842.211 437.336V421.016H838.883L838.243 417.304L846.243 415.832L848.227 417.944V436.504C848.227 437.699 848.376 438.68 848.675 439.448C849.016 440.216 849.443 440.813 849.955 441.24C850.509 441.624 851.085 441.901 851.683 442.072C852.323 442.2 852.941 442.264 853.539 442.264C854.691 442.264 855.821 441.944 856.931 441.304C858.083 440.664 858.872 439.917 859.299 439.064V420.888L856.099 421.016L855.523 417.304L863.331 415.832L865.251 417.944V441.24C865.251 441.795 865.379 442.179 865.635 442.392C865.891 442.563 866.168 442.648 866.467 442.648C866.723 442.648 866.936 442.627 867.107 442.584C867.32 442.541 867.448 442.52 867.491 442.52L868.387 445.464C868.131 445.763 867.619 446.147 866.851 446.616C866.083 447.043 865.144 447.256 864.035 447.256C863.011 447.256 862.136 447.021 861.411 446.552C860.685 446.083 860.131 445.357 859.747 444.376C858.765 445.315 857.571 446.04 856.163 446.552C854.755 447.021 853.347 447.256 851.939 447.256ZM897.242 447.256C895.364 447.256 893.722 446.915 892.314 446.232C890.906 445.507 889.796 444.504 888.986 443.224C888.218 441.901 887.834 440.408 887.834 438.744C887.834 436.739 888.346 435.096 889.37 433.816C890.436 432.493 891.78 431.469 893.402 430.744C895.066 429.976 896.836 429.443 898.714 429.144C900.591 428.803 902.362 428.611 904.026 428.568V423.96C904.026 423.064 903.599 422.317 902.746 421.72C901.935 421.123 900.74 420.824 899.162 420.824C898.692 420.824 898.159 420.867 897.562 420.952C896.964 420.995 896.474 421.123 896.09 421.336L894.746 425.432L888.09 423.128C888.9 420.952 890.33 419.224 892.378 417.944C894.468 416.621 896.815 415.96 899.418 415.96C901.508 415.96 903.343 416.301 904.922 416.984C906.5 417.667 907.738 418.733 908.634 420.184C909.53 421.592 909.978 423.427 909.978 425.688V441.048C909.978 441.56 910.084 441.965 910.298 442.264C910.554 442.563 910.895 442.712 911.322 442.712C911.535 442.712 911.748 442.691 911.962 442.648C912.175 442.563 912.324 442.499 912.41 442.456L913.37 445.528C913.028 445.869 912.452 446.253 911.642 446.68C910.874 447.064 909.999 447.256 909.018 447.256C907.78 447.256 906.82 446.979 906.138 446.424C905.455 445.869 904.922 445.165 904.538 444.312C903.684 445.165 902.618 445.869 901.338 446.424C900.1 446.979 898.735 447.256 897.242 447.256ZM898.266 442.328C899.503 442.328 900.634 442.008 901.658 441.368C902.724 440.728 903.514 439.96 904.026 439.064V433.112C903.087 433.112 902.042 433.197 900.89 433.368C899.738 433.496 898.628 433.752 897.562 434.136C896.538 434.477 895.684 434.989 895.002 435.672C894.319 436.355 893.978 437.251 893.978 438.36C893.978 439.427 894.34 440.365 895.066 441.176C895.791 441.944 896.858 442.328 898.266 442.328ZM917.661 447L916.893 443.544L920.669 442.52V420.888L917.341 421.016L916.701 417.304L924.381 415.896L926.301 418.904C927.197 417.923 928.221 417.176 929.373 416.664C930.568 416.152 931.72 415.896 932.829 415.896C934.707 415.896 936.328 416.344 937.693 417.24C939.059 418.136 940.061 419.331 940.701 420.824L934.365 424.024L932.317 420.952C931.677 420.952 930.909 421.187 930.013 421.656C929.117 422.083 928.328 422.808 927.645 423.832C927.005 424.856 926.685 426.221 926.685 427.928V441.752L935.005 443.544V447H917.661ZM957.106 447.256C954.332 447.256 951.879 446.637 949.746 445.4C947.612 444.163 945.927 442.392 944.69 440.088C943.495 437.784 942.898 435.053 942.898 431.896C942.898 428.525 943.516 425.667 944.754 423.32C946.034 420.931 947.719 419.117 949.81 417.88C951.9 416.6 954.226 415.96 956.786 415.96C958.535 415.96 960.178 416.28 961.714 416.92C963.292 417.56 964.572 418.52 965.554 419.8C966.535 421.037 967.026 422.616 967.026 424.536C967.026 426.541 966.556 428.205 965.618 429.528C964.722 430.851 963.506 431.896 961.97 432.664C960.434 433.432 958.727 433.987 956.85 434.328C954.972 434.627 953.074 434.776 951.154 434.776L949.234 434.712C949.532 436.888 950.364 438.723 951.73 440.216C953.095 441.667 955.164 442.392 957.938 442.392C959.602 442.392 961.052 442.093 962.29 441.496C963.57 440.899 964.636 440.237 965.49 439.512L966.834 444.056C966.236 444.611 965.447 445.144 964.466 445.656C963.484 446.125 962.354 446.509 961.074 446.808C959.836 447.107 958.514 447.256 957.106 447.256ZM949.17 430.104L950.77 430.168C951.751 430.168 952.818 430.104 953.97 429.976C955.164 429.848 956.274 429.613 957.298 429.272C958.364 428.888 959.218 428.333 959.858 427.608C960.54 426.84 960.882 425.859 960.882 424.664C960.882 423.341 960.455 422.381 959.602 421.784C958.748 421.187 957.81 420.888 956.786 420.888C955.335 420.888 954.055 421.315 952.946 422.168C951.836 422.979 950.94 424.088 950.258 425.496C949.618 426.904 949.255 428.44 949.17 430.104ZM987.535 447L987.023 443.544L990.543 442.648V420.888L987.215 420.952L986.575 417.24L994.575 415.832L996.431 418.328C997.412 417.645 998.585 417.091 999.951 416.664C1001.32 416.195 1002.7 415.96 1004.11 415.96C1005.99 415.96 1007.63 416.28 1009.04 416.92C1010.49 417.56 1011.6 418.541 1012.37 419.864C1013.18 421.144 1013.58 422.787 1013.58 424.792V442.776L1017.29 443.544V447H1004.24L1004.11 443.544L1007.63 442.712V425.944C1007.63 424.237 1007.23 422.979 1006.41 422.168C1005.6 421.357 1004.45 420.952 1002.96 420.952C1001.68 420.952 1000.44 421.229 999.247 421.784C998.052 422.339 997.156 422.915 996.559 423.512V442.712L1000.33 443.544L1000.27 447H987.535ZM1034.34 447.256C1031.69 447.256 1029.35 446.573 1027.3 445.208C1025.25 443.843 1023.65 441.965 1022.5 439.576C1021.35 437.187 1020.77 434.477 1020.77 431.448C1020.77 428.291 1021.37 425.56 1022.56 423.256C1023.76 420.909 1025.36 419.096 1027.36 417.816C1029.41 416.536 1031.74 415.896 1034.34 415.896C1036.98 415.896 1039.33 416.557 1041.38 417.88C1043.43 419.16 1045.03 420.973 1046.18 423.32C1047.33 425.667 1047.91 428.376 1047.91 431.448C1047.91 434.52 1047.33 437.251 1046.18 439.64C1045.03 442.029 1043.43 443.907 1041.38 445.272C1039.33 446.595 1036.98 447.256 1034.34 447.256ZM1034.34 442.328C1035.96 442.328 1037.33 441.901 1038.44 441.048C1039.54 440.152 1040.38 438.915 1040.93 437.336C1041.49 435.757 1041.76 433.901 1041.76 431.768C1041.76 429.677 1041.49 427.8 1040.93 426.136C1040.38 424.472 1039.54 423.171 1038.44 422.232C1037.33 421.293 1035.96 420.824 1034.34 420.824C1033.1 420.824 1032.01 421.123 1031.08 421.72C1030.18 422.275 1029.41 423.085 1028.77 424.152C1028.17 425.176 1027.73 426.371 1027.43 427.736C1027.13 429.059 1026.98 430.488 1026.98 432.024C1026.98 434.115 1027.26 435.949 1027.81 437.528C1028.41 439.064 1029.24 440.259 1030.31 441.112C1031.42 441.923 1032.76 442.328 1034.34 442.328ZM1062.96 447.256C1061.6 447.256 1060.38 446.979 1059.32 446.424C1058.25 445.869 1057.42 444.995 1056.82 443.8C1056.22 442.563 1055.92 441.005 1055.92 439.128L1056.05 420.696H1051.06L1050.1 416.6L1050.55 415.96H1056.12L1056.18 405.208L1061.49 403.992L1062 404.888L1061.94 415.96H1068.6C1068.81 415.96 1068.92 416.088 1068.92 416.344V420.696H1061.94V439.256C1061.94 440.493 1062.13 441.304 1062.52 441.688C1062.94 442.072 1063.54 442.264 1064.31 442.264C1065.12 442.264 1065.93 442.029 1066.74 441.56C1067.55 441.091 1068.13 440.728 1068.47 440.472L1069.88 444.76C1069.32 445.272 1068.45 445.827 1067.25 446.424C1066.06 446.979 1064.63 447.256 1062.96 447.256ZM1088.78 464.472L1087.95 461.016L1091.47 460.12V420.824L1087.89 421.208L1087.25 417.24L1095.44 415.896L1097.04 417.752C1097.89 417.24 1098.87 416.813 1099.98 416.472C1101.09 416.131 1102.33 415.96 1103.7 415.96C1106.38 415.96 1108.64 416.621 1110.48 417.944C1112.36 419.267 1113.79 421.08 1114.77 423.384C1115.75 425.645 1116.24 428.248 1116.24 431.192C1116.24 433.795 1115.9 436.099 1115.22 438.104C1114.53 440.109 1113.57 441.795 1112.34 443.16C1111.1 444.483 1109.63 445.507 1107.92 446.232C1106.26 446.915 1104.42 447.256 1102.42 447.256C1101.52 447.256 1100.64 447.171 1099.79 447C1098.98 446.872 1098.21 446.659 1097.49 446.36V459.416L1105.1 460.952V464.472H1088.78ZM1102.35 442.392C1104.06 442.392 1105.49 441.923 1106.64 440.984C1107.79 440.045 1108.64 438.765 1109.2 437.144C1109.75 435.523 1110.03 433.645 1110.03 431.512C1110.03 429.507 1109.75 427.693 1109.2 426.072C1108.69 424.451 1107.9 423.171 1106.83 422.232C1105.76 421.293 1104.4 420.824 1102.74 420.824C1101.71 420.824 1100.71 421.037 1099.73 421.464C1098.75 421.848 1098 422.36 1097.49 423V440.984C1098.08 441.411 1098.83 441.752 1099.73 442.008C1100.62 442.264 1101.5 442.392 1102.35 442.392ZM1135.04 447.256C1132.27 447.256 1129.82 446.637 1127.68 445.4C1125.55 444.163 1123.86 442.392 1122.63 440.088C1121.43 437.784 1120.84 435.053 1120.84 431.896C1120.84 428.525 1121.45 425.667 1122.69 423.32C1123.97 420.931 1125.66 419.117 1127.75 417.88C1129.84 416.6 1132.16 415.96 1134.72 415.96C1136.47 415.96 1138.12 416.28 1139.65 416.92C1141.23 417.56 1142.51 418.52 1143.49 419.8C1144.47 421.037 1144.96 422.616 1144.96 424.536C1144.96 426.541 1144.49 428.205 1143.56 429.528C1142.66 430.851 1141.44 431.896 1139.91 432.664C1138.37 433.432 1136.66 433.987 1134.79 434.328C1132.91 434.627 1131.01 434.776 1129.09 434.776L1127.17 434.712C1127.47 436.888 1128.3 438.723 1129.67 440.216C1131.03 441.667 1133.1 442.392 1135.88 442.392C1137.54 442.392 1138.99 442.093 1140.23 441.496C1141.51 440.899 1142.57 440.237 1143.43 439.512L1144.77 444.056C1144.17 444.611 1143.38 445.144 1142.4 445.656C1141.42 446.125 1140.29 446.509 1139.01 446.808C1137.77 447.107 1136.45 447.256 1135.04 447.256ZM1127.11 430.104L1128.71 430.168C1129.69 430.168 1130.76 430.104 1131.91 429.976C1133.1 429.848 1134.21 429.613 1135.24 429.272C1136.3 428.888 1137.16 428.333 1137.8 427.608C1138.48 426.84 1138.82 425.859 1138.82 424.664C1138.82 423.341 1138.39 422.381 1137.54 421.784C1136.69 421.187 1135.75 420.888 1134.72 420.888C1133.27 420.888 1131.99 421.315 1130.88 422.168C1129.77 422.979 1128.88 424.088 1128.2 425.496C1127.56 426.904 1127.19 428.44 1127.11 430.104ZM1150.16 447L1149.39 443.544L1153.17 442.52V420.888L1149.84 421.016L1149.2 417.304L1156.88 415.896L1158.8 418.904C1159.7 417.923 1160.72 417.176 1161.87 416.664C1163.07 416.152 1164.22 415.896 1165.33 415.896C1167.21 415.896 1168.83 416.344 1170.19 417.24C1171.56 418.136 1172.56 419.331 1173.2 420.824L1166.87 424.024L1164.82 420.952C1164.18 420.952 1163.41 421.187 1162.51 421.656C1161.62 422.083 1160.83 422.808 1160.15 423.832C1159.51 424.856 1159.19 426.221 1159.19 427.928V441.752L1167.51 443.544V447H1150.16ZM1176.22 447L1175.65 443.608L1179.23 442.648V420.888L1175.9 420.952L1175.26 417.24L1183.26 415.832L1185.12 418.328C1186.14 417.645 1187.34 417.091 1188.7 416.664C1190.11 416.195 1191.48 415.96 1192.8 415.96C1194.42 415.96 1195.89 416.216 1197.21 416.728C1198.54 417.197 1199.62 417.965 1200.48 419.032C1201.63 418.136 1202.76 417.475 1203.87 417.048C1204.98 416.621 1206.02 416.344 1207.01 416.216C1208.03 416.045 1208.93 415.96 1209.69 415.96C1211.61 415.96 1213.28 416.28 1214.69 416.92C1216.14 417.56 1217.27 418.541 1218.08 419.864C1218.89 421.144 1219.29 422.787 1219.29 424.792V442.712L1222.88 443.544L1222.81 447H1209.76L1209.63 443.544L1213.34 442.712V425.944C1213.34 424.237 1212.94 422.979 1212.13 422.168C1211.32 421.357 1210.16 420.952 1208.67 420.952C1207.56 420.952 1206.41 421.208 1205.21 421.72C1204.06 422.189 1203.08 422.851 1202.27 423.704V442.776L1205.92 443.544L1205.85 447H1192.99L1192.86 443.544L1196.32 442.712V425.944C1196.32 424.237 1195.91 422.979 1195.1 422.168C1194.29 421.357 1193.14 420.952 1191.65 420.952C1190.37 420.952 1189.13 421.229 1187.93 421.784C1186.74 422.339 1185.84 422.915 1185.25 423.512V442.712L1189.02 443.544L1188.96 447H1176.22ZM1227.1 447L1226.46 443.544L1230.17 442.648V420.952L1226.84 421.08L1226.2 417.24L1234.2 415.832L1236.19 417.944V442.712L1239.9 443.544V447H1227.1ZM1232.99 413.016C1231.96 413.016 1231.11 412.653 1230.43 411.928C1229.79 411.203 1229.47 410.371 1229.47 409.432C1229.47 408.451 1229.79 407.619 1230.43 406.936C1231.11 406.211 1231.96 405.848 1232.99 405.848C1233.97 405.848 1234.8 406.211 1235.48 406.936C1236.16 407.619 1236.51 408.451 1236.51 409.432C1236.51 410.371 1236.16 411.203 1235.48 411.928C1234.8 412.653 1233.97 413.016 1232.99 413.016ZM1254.4 447.256C1253.04 447.256 1251.82 446.979 1250.75 446.424C1249.69 445.869 1248.85 444.995 1248.26 443.8C1247.66 442.563 1247.36 441.005 1247.36 439.128L1247.49 420.696H1242.5L1241.54 416.6L1241.99 415.96H1247.55L1247.62 405.208L1252.93 403.992L1253.44 404.888L1253.38 415.96H1260.03C1260.25 415.96 1260.35 416.088 1260.35 416.344V420.696H1253.38V439.256C1253.38 440.493 1253.57 441.304 1253.95 441.688C1254.38 442.072 1254.98 442.264 1255.75 442.264C1256.56 442.264 1257.37 442.029 1258.18 441.56C1258.99 441.091 1259.56 440.728 1259.91 440.472L1261.31 444.76C1260.76 445.272 1259.88 445.827 1258.69 446.424C1257.49 446.979 1256.07 447.256 1254.4 447.256ZM1275.21 447.256C1273.85 447.256 1272.63 446.979 1271.57 446.424C1270.5 445.869 1269.67 444.995 1269.07 443.8C1268.47 442.563 1268.17 441.005 1268.17 439.128L1268.3 420.696H1263.31L1262.35 416.6L1262.8 415.96H1268.37L1268.43 405.208L1273.74 403.992L1274.25 404.888L1274.19 415.96H1280.85C1281.06 415.96 1281.17 416.088 1281.17 416.344V420.696H1274.19V439.256C1274.19 440.493 1274.38 441.304 1274.77 441.688C1275.19 442.072 1275.79 442.264 1276.56 442.264C1277.37 442.264 1278.18 442.029 1278.99 441.56C1279.8 441.091 1280.38 440.728 1280.72 440.472L1282.13 444.76C1281.57 445.272 1280.7 445.827 1279.5 446.424C1278.31 446.979 1276.88 447.256 1275.21 447.256ZM1299.42 447.256C1296.64 447.256 1294.19 446.637 1292.06 445.4C1289.92 444.163 1288.24 442.392 1287 440.088C1285.81 437.784 1285.21 435.053 1285.21 431.896C1285.21 428.525 1285.83 425.667 1287.07 423.32C1288.35 420.931 1290.03 419.117 1292.12 417.88C1294.21 416.6 1296.54 415.96 1299.1 415.96C1300.85 415.96 1302.49 416.28 1304.03 416.92C1305.6 417.56 1306.88 418.52 1307.87 419.8C1308.85 421.037 1309.34 422.616 1309.34 424.536C1309.34 426.541 1308.87 428.205 1307.93 429.528C1307.03 430.851 1305.82 431.896 1304.28 432.664C1302.75 433.432 1301.04 433.987 1299.16 434.328C1297.28 434.627 1295.39 434.776 1293.47 434.776L1291.55 434.712C1291.84 436.888 1292.68 438.723 1294.04 440.216C1295.41 441.667 1297.48 442.392 1300.25 442.392C1301.91 442.392 1303.36 442.093 1304.6 441.496C1305.88 440.899 1306.95 440.237 1307.8 439.512L1309.15 444.056C1308.55 444.611 1307.76 445.144 1306.78 445.656C1305.8 446.125 1304.67 446.509 1303.39 446.808C1302.15 447.107 1300.83 447.256 1299.42 447.256ZM1291.48 430.104L1293.08 430.168C1294.06 430.168 1295.13 430.104 1296.28 429.976C1297.48 429.848 1298.59 429.613 1299.61 429.272C1300.68 428.888 1301.53 428.333 1302.17 427.608C1302.85 426.84 1303.19 425.859 1303.19 424.664C1303.19 423.341 1302.77 422.381 1301.91 421.784C1301.06 421.187 1300.12 420.888 1299.1 420.888C1297.65 420.888 1296.37 421.315 1295.26 422.168C1294.15 422.979 1293.25 424.088 1292.57 425.496C1291.93 426.904 1291.57 428.44 1291.48 430.104ZM1326.38 447.256C1323.77 447.256 1321.53 446.573 1319.66 445.208C1317.82 443.843 1316.41 442.008 1315.43 439.704C1314.45 437.4 1313.96 434.84 1313.96 432.024C1313.96 429.293 1314.32 426.925 1315.05 424.92C1315.77 422.872 1316.75 421.187 1317.99 419.864C1319.23 418.541 1320.66 417.56 1322.28 416.92C1323.94 416.28 1325.65 415.96 1327.4 415.96C1328.51 415.96 1329.49 416.067 1330.34 416.28C1331.24 416.451 1332.03 416.685 1332.71 416.984V405.144L1329.13 405.272L1328.55 401.368L1336.68 400.152L1338.73 402.264V441.048C1338.73 441.56 1338.83 441.965 1339.05 442.264C1339.3 442.563 1339.65 442.712 1340.07 442.712C1340.33 442.712 1340.58 442.669 1340.84 442.584C1341.14 442.456 1341.33 442.371 1341.42 442.328L1342.38 445.272C1341.99 445.656 1341.37 446.083 1340.52 446.552C1339.67 447.021 1338.73 447.256 1337.7 447.256C1336.51 447.256 1335.57 447 1334.89 446.488C1334.21 445.976 1333.69 445.336 1333.35 444.568C1332.5 445.464 1331.47 446.147 1330.28 446.616C1329.09 447.043 1327.78 447.256 1326.38 447.256ZM1327.34 442.328C1328.4 442.328 1329.45 442.051 1330.47 441.496C1331.54 440.899 1332.29 440.109 1332.71 439.128V422.552C1332.16 421.955 1331.45 421.528 1330.6 421.272C1329.75 420.973 1328.87 420.824 1327.98 420.824C1326.31 420.824 1324.9 421.251 1323.75 422.104C1322.6 422.915 1321.7 424.152 1321.06 425.816C1320.47 427.48 1320.17 429.507 1320.17 431.896C1320.17 433.816 1320.4 435.565 1320.87 437.144C1321.38 438.723 1322.17 439.981 1323.24 440.92C1324.31 441.859 1325.67 442.328 1327.34 442.328ZM1372.46 447.256C1371.1 447.256 1369.88 446.979 1368.82 446.424C1367.75 445.869 1366.92 444.995 1366.32 443.8C1365.72 442.563 1365.42 441.005 1365.42 439.128L1365.55 420.696H1360.56L1359.6 416.6L1360.05 415.96H1365.62L1365.68 405.208L1370.99 403.992L1371.5 404.888L1371.44 415.96H1378.1C1378.31 415.96 1378.42 416.088 1378.42 416.344V420.696H1371.44V439.256C1371.44 440.493 1371.63 441.304 1372.02 441.688C1372.44 442.072 1373.04 442.264 1373.81 442.264C1374.62 442.264 1375.43 442.029 1376.24 441.56C1377.05 441.091 1377.63 440.728 1377.97 440.472L1379.38 444.76C1378.82 445.272 1377.95 445.827 1376.75 446.424C1375.56 446.979 1374.13 447.256 1372.46 447.256ZM1395.96 447.256C1393.32 447.256 1390.97 446.573 1388.92 445.208C1386.88 443.843 1385.28 441.965 1384.12 439.576C1382.97 437.187 1382.4 434.477 1382.4 431.448C1382.4 428.291 1382.99 425.56 1384.19 423.256C1385.38 420.909 1386.98 419.096 1388.99 417.816C1391.04 416.536 1393.36 415.896 1395.96 415.896C1398.61 415.896 1400.96 416.557 1403 417.88C1405.05 419.16 1406.65 420.973 1407.8 423.32C1408.96 425.667 1409.53 428.376 1409.53 431.448C1409.53 434.52 1408.96 437.251 1407.8 439.64C1406.65 442.029 1405.05 443.907 1403 445.272C1400.96 446.595 1398.61 447.256 1395.96 447.256ZM1395.96 442.328C1397.59 442.328 1398.95 441.901 1400.06 441.048C1401.17 440.152 1402 438.915 1402.56 437.336C1403.11 435.757 1403.39 433.901 1403.39 431.768C1403.39 429.677 1403.11 427.8 1402.56 426.136C1402 424.472 1401.17 423.171 1400.06 422.232C1398.95 421.293 1397.59 420.824 1395.96 420.824C1394.73 420.824 1393.64 421.123 1392.7 421.72C1391.8 422.275 1391.04 423.085 1390.4 424.152C1389.8 425.176 1389.35 426.371 1389.05 427.736C1388.75 429.059 1388.6 430.488 1388.6 432.024C1388.6 434.115 1388.88 435.949 1389.44 437.528C1390.03 439.064 1390.87 440.259 1391.93 441.112C1393.04 441.923 1394.39 442.328 1395.96 442.328ZM1438.8 447.256C1436.93 447.256 1435.28 446.915 1433.88 446.232C1432.47 445.507 1431.36 444.504 1430.55 443.224C1429.78 441.901 1429.4 440.408 1429.4 438.744C1429.4 436.739 1429.91 435.096 1430.93 433.816C1432 432.493 1433.34 431.469 1434.96 430.744C1436.63 429.976 1438.4 429.443 1440.28 429.144C1442.15 428.803 1443.92 428.611 1445.59 428.568V423.96C1445.59 423.064 1445.16 422.317 1444.31 421.72C1443.5 421.123 1442.3 420.824 1440.72 420.824C1440.25 420.824 1439.72 420.867 1439.12 420.952C1438.53 420.995 1438.04 421.123 1437.65 421.336L1436.31 425.432L1429.65 423.128C1430.46 420.952 1431.89 419.224 1433.94 417.944C1436.03 416.621 1438.38 415.96 1440.98 415.96C1443.07 415.96 1444.91 416.301 1446.48 416.984C1448.06 417.667 1449.3 418.733 1450.2 420.184C1451.09 421.592 1451.54 423.427 1451.54 425.688V441.048C1451.54 441.56 1451.65 441.965 1451.86 442.264C1452.12 442.563 1452.46 442.712 1452.88 442.712C1453.1 442.712 1453.31 442.691 1453.52 442.648C1453.74 442.563 1453.89 442.499 1453.97 442.456L1454.93 445.528C1454.59 445.869 1454.01 446.253 1453.2 446.68C1452.44 447.064 1451.56 447.256 1450.58 447.256C1449.34 447.256 1448.38 446.979 1447.7 446.424C1447.02 445.869 1446.48 445.165 1446.1 444.312C1445.25 445.165 1444.18 445.869 1442.9 446.424C1441.66 446.979 1440.3 447.256 1438.8 447.256ZM1439.83 442.328C1441.07 442.328 1442.2 442.008 1443.22 441.368C1444.29 440.728 1445.08 439.96 1445.59 439.064V433.112C1444.65 433.112 1443.6 433.197 1442.45 433.368C1441.3 433.496 1440.19 433.752 1439.12 434.136C1438.1 434.477 1437.25 434.989 1436.56 435.672C1435.88 436.355 1435.54 437.251 1435.54 438.36C1435.54 439.427 1435.9 440.365 1436.63 441.176C1437.35 441.944 1438.42 442.328 1439.83 442.328ZM1472.15 447.256C1470.19 447.256 1468.38 446.915 1466.71 446.232C1465.05 445.507 1463.6 444.483 1462.36 443.16C1461.17 441.837 1460.23 440.259 1459.55 438.424C1458.86 436.547 1458.52 434.435 1458.52 432.088C1458.52 429.443 1458.86 427.117 1459.55 425.112C1460.23 423.107 1461.17 421.421 1462.36 420.056C1463.6 418.691 1465.05 417.667 1466.71 416.984C1468.38 416.301 1470.17 415.96 1472.09 415.96C1473.54 415.96 1474.8 416.131 1475.87 416.472C1476.98 416.771 1477.91 417.155 1478.68 417.624C1479.49 418.093 1480.15 418.563 1480.67 419.032C1481.18 419.459 1481.56 419.8 1481.82 420.056L1476.38 424.344L1473.18 420.888L1471.77 420.824C1470.53 420.781 1469.47 421.059 1468.57 421.656C1467.67 422.253 1466.93 423.085 1466.33 424.152C1465.78 425.176 1465.37 426.371 1465.11 427.736C1464.86 429.059 1464.73 430.467 1464.73 431.96C1464.73 433.709 1464.99 435.395 1465.5 437.016C1466.05 438.595 1466.93 439.875 1468.12 440.856C1469.36 441.837 1471.02 442.328 1473.11 442.328C1474.18 442.328 1475.12 442.2 1475.93 441.944C1476.78 441.688 1477.55 441.368 1478.23 440.984C1478.92 440.6 1479.51 440.237 1480.03 439.896L1481.37 444.312C1480.26 445.336 1478.87 446.083 1477.21 446.552C1475.59 447.021 1473.9 447.256 1472.15 447.256ZM1498.59 447.256C1496.63 447.256 1494.82 446.915 1493.15 446.232C1491.49 445.507 1490.04 444.483 1488.8 443.16C1487.61 441.837 1486.67 440.259 1485.98 438.424C1485.3 436.547 1484.96 434.435 1484.96 432.088C1484.96 429.443 1485.3 427.117 1485.98 425.112C1486.67 423.107 1487.61 421.421 1488.8 420.056C1490.04 418.691 1491.49 417.667 1493.15 416.984C1494.82 416.301 1496.61 415.96 1498.53 415.96C1499.98 415.96 1501.24 416.131 1502.3 416.472C1503.41 416.771 1504.35 417.155 1505.12 417.624C1505.93 418.093 1506.59 418.563 1507.1 419.032C1507.62 419.459 1508 419.8 1508.26 420.056L1502.82 424.344L1499.62 420.888L1498.21 420.824C1496.97 420.781 1495.9 421.059 1495.01 421.656C1494.11 422.253 1493.37 423.085 1492.77 424.152C1492.21 425.176 1491.81 426.371 1491.55 427.736C1491.3 429.059 1491.17 430.467 1491.17 431.96C1491.17 433.709 1491.42 435.395 1491.94 437.016C1492.49 438.595 1493.37 439.875 1494.56 440.856C1495.8 441.837 1497.46 442.328 1499.55 442.328C1500.62 442.328 1501.56 442.2 1502.37 441.944C1503.22 441.688 1503.99 441.368 1504.67 440.984C1505.35 440.6 1505.95 440.237 1506.46 439.896L1507.81 444.312C1506.7 445.336 1505.31 446.083 1503.65 446.552C1502.03 447.021 1500.34 447.256 1498.59 447.256ZM1525.61 447.256C1522.83 447.256 1520.38 446.637 1518.25 445.4C1516.11 444.163 1514.43 442.392 1513.19 440.088C1512 437.784 1511.4 435.053 1511.4 431.896C1511.4 428.525 1512.02 425.667 1513.25 423.32C1514.53 420.931 1516.22 419.117 1518.31 417.88C1520.4 416.6 1522.73 415.96 1525.29 415.96C1527.04 415.96 1528.68 416.28 1530.21 416.92C1531.79 417.56 1533.07 418.52 1534.05 419.8C1535.04 421.037 1535.53 422.616 1535.53 424.536C1535.53 426.541 1535.06 428.205 1534.12 429.528C1533.22 430.851 1532.01 431.896 1530.47 432.664C1528.93 433.432 1527.23 433.987 1525.35 434.328C1523.47 434.627 1521.57 434.776 1519.65 434.776L1517.73 434.712C1518.03 436.888 1518.86 438.723 1520.23 440.216C1521.6 441.667 1523.66 442.392 1526.44 442.392C1528.1 442.392 1529.55 442.093 1530.79 441.496C1532.07 440.899 1533.14 440.237 1533.99 439.512L1535.33 444.056C1534.74 444.611 1533.95 445.144 1532.97 445.656C1531.98 446.125 1530.85 446.509 1529.57 446.808C1528.34 447.107 1527.01 447.256 1525.61 447.256ZM1517.67 430.104L1519.27 430.168C1520.25 430.168 1521.32 430.104 1522.47 429.976C1523.66 429.848 1524.77 429.613 1525.8 429.272C1526.86 428.888 1527.72 428.333 1528.36 427.608C1529.04 426.84 1529.38 425.859 1529.38 424.664C1529.38 423.341 1528.96 422.381 1528.1 421.784C1527.25 421.187 1526.31 420.888 1525.29 420.888C1523.84 420.888 1522.56 421.315 1521.45 422.168C1520.34 422.979 1519.44 424.088 1518.76 425.496C1518.12 426.904 1517.76 428.44 1517.67 430.104ZM1550.58 447.192C1548.62 447.192 1546.87 446.851 1545.33 446.168C1543.8 445.485 1542.54 444.632 1541.56 443.608C1540.57 442.541 1539.85 441.517 1539.38 440.536L1546.04 437.976L1547.64 441.688C1547.85 441.773 1548.23 441.901 1548.79 442.072C1549.39 442.243 1550.11 442.328 1550.96 442.328C1551.52 442.328 1552.12 442.2 1552.76 441.944C1553.44 441.688 1554.01 441.304 1554.48 440.792C1554.95 440.237 1555.19 439.512 1555.19 438.616C1555.19 437.677 1554.89 436.909 1554.29 436.312C1553.74 435.715 1552.97 435.224 1551.99 434.84C1551.01 434.413 1549.94 433.965 1548.79 433.496C1546.14 432.557 1544.14 431.363 1542.77 429.912C1541.45 428.461 1540.79 426.733 1540.79 424.728C1540.79 422.979 1541.24 421.443 1542.13 420.12C1543.07 418.797 1544.33 417.773 1545.91 417.048C1547.49 416.28 1549.19 415.896 1551.03 415.896C1553.03 415.896 1554.74 416.237 1556.15 416.92C1557.6 417.56 1558.77 418.371 1559.67 419.352C1560.61 420.333 1561.29 421.272 1561.72 422.168L1555.06 424.728L1553.52 421.464C1553.4 421.379 1553.12 421.251 1552.69 421.08C1552.27 420.909 1551.67 420.824 1550.9 420.824C1550.26 420.824 1549.64 420.952 1549.04 421.208C1548.45 421.421 1547.93 421.763 1547.51 422.232C1547.12 422.701 1546.93 423.32 1546.93 424.088C1546.93 424.899 1547.23 425.581 1547.83 426.136C1548.47 426.691 1549.36 427.224 1550.52 427.736C1551.67 428.205 1552.99 428.76 1554.48 429.4C1556.62 430.253 1558.28 431.384 1559.48 432.792C1560.71 434.157 1561.33 435.907 1561.33 438.04C1561.33 440.003 1560.8 441.688 1559.73 443.096C1558.71 444.461 1557.36 445.485 1555.7 446.168C1554.08 446.851 1552.37 447.192 1550.58 447.192ZM1576.52 447.192C1574.55 447.192 1572.81 446.851 1571.27 446.168C1569.73 445.485 1568.47 444.632 1567.49 443.608C1566.51 442.541 1565.79 441.517 1565.32 440.536L1571.97 437.976L1573.57 441.688C1573.79 441.773 1574.17 441.901 1574.73 442.072C1575.32 442.243 1576.05 442.328 1576.9 442.328C1577.46 442.328 1578.05 442.2 1578.69 441.944C1579.38 441.688 1579.95 441.304 1580.42 440.792C1580.89 440.237 1581.13 439.512 1581.13 438.616C1581.13 437.677 1580.83 436.909 1580.23 436.312C1579.67 435.715 1578.91 435.224 1577.93 434.84C1576.94 434.413 1575.88 433.965 1574.73 433.496C1572.08 432.557 1570.07 431.363 1568.71 429.912C1567.39 428.461 1566.73 426.733 1566.73 424.728C1566.73 422.979 1567.17 421.443 1568.07 420.12C1569.01 418.797 1570.27 417.773 1571.85 417.048C1573.42 416.28 1575.13 415.896 1576.97 415.896C1578.97 415.896 1580.68 416.237 1582.09 416.92C1583.54 417.56 1584.71 418.371 1585.61 419.352C1586.54 420.333 1587.23 421.272 1587.65 422.168L1581 424.728L1579.46 421.464C1579.33 421.379 1579.06 421.251 1578.63 421.08C1578.2 420.909 1577.61 420.824 1576.84 420.824C1576.2 420.824 1575.58 420.952 1574.98 421.208C1574.38 421.421 1573.87 421.763 1573.45 422.232C1573.06 422.701 1572.87 423.32 1572.87 424.088C1572.87 424.899 1573.17 425.581 1573.77 426.136C1574.41 426.691 1575.3 427.224 1576.45 427.736C1577.61 428.205 1578.93 428.76 1580.42 429.4C1582.55 430.253 1584.22 431.384 1585.41 432.792C1586.65 434.157 1587.27 435.907 1587.27 438.04C1587.27 440.003 1586.74 441.688 1585.67 443.096C1584.65 444.461 1583.3 445.485 1581.64 446.168C1580.02 446.851 1578.31 447.192 1576.52 447.192ZM1618.21 447.256C1616.85 447.256 1615.63 446.979 1614.57 446.424C1613.5 445.869 1612.67 444.995 1612.07 443.8C1611.47 442.563 1611.17 441.005 1611.17 439.128L1611.3 420.696H1606.31L1605.35 416.6L1605.8 415.96H1611.37L1611.43 405.208L1616.74 403.992L1617.25 404.888L1617.19 415.96H1623.85C1624.06 415.96 1624.17 416.088 1624.17 416.344V420.696H1617.19V439.256C1617.19 440.493 1617.38 441.304 1617.77 441.688C1618.19 442.072 1618.79 442.264 1619.56 442.264C1620.37 442.264 1621.18 442.029 1621.99 441.56C1622.8 441.091 1623.38 440.728 1623.72 440.472L1625.13 444.76C1624.57 445.272 1623.7 445.827 1622.5 446.424C1621.31 446.979 1619.88 447.256 1618.21 447.256ZM1628.15 447L1627.57 443.544L1631.28 442.648V405.144H1627.83L1627.25 401.368L1635.19 400.152L1637.23 402.264V418.328C1638.22 417.645 1639.37 417.091 1640.69 416.664C1642.06 416.195 1643.42 415.96 1644.79 415.96C1646.66 415.96 1648.31 416.28 1649.71 416.92C1651.16 417.56 1652.3 418.541 1653.11 419.864C1653.92 421.144 1654.32 422.787 1654.32 424.792V442.712L1658.03 443.544L1657.97 447H1644.98L1644.85 443.544L1648.31 442.712V425.944C1648.31 424.237 1647.9 422.979 1647.09 422.168C1646.32 421.357 1645.19 420.952 1643.7 420.952C1642.42 420.952 1641.18 421.229 1639.99 421.784C1638.79 422.339 1637.87 422.915 1637.23 423.512V442.712L1640.88 443.48L1640.82 447H1628.15ZM1662.28 447L1661.64 443.544L1665.36 442.648V420.952L1662.03 421.08L1661.39 417.24L1669.39 415.832L1671.37 417.944V442.712L1675.08 443.544V447H1662.28ZM1668.17 413.016C1667.15 413.016 1666.3 412.653 1665.61 411.928C1664.97 411.203 1664.65 410.371 1664.65 409.432C1664.65 408.451 1664.97 407.619 1665.61 406.936C1666.3 406.211 1667.15 405.848 1668.17 405.848C1669.15 405.848 1669.99 406.211 1670.67 406.936C1671.35 407.619 1671.69 408.451 1671.69 409.432C1671.69 410.371 1671.35 411.203 1670.67 411.928C1669.99 412.653 1669.15 413.016 1668.17 413.016ZM1689.39 447.192C1687.43 447.192 1685.68 446.851 1684.14 446.168C1682.61 445.485 1681.35 444.632 1680.37 443.608C1679.39 442.541 1678.66 441.517 1678.19 440.536L1684.85 437.976L1686.45 441.688C1686.66 441.773 1687.05 441.901 1687.6 442.072C1688.2 442.243 1688.92 442.328 1689.78 442.328C1690.33 442.328 1690.93 442.2 1691.57 441.944C1692.25 441.688 1692.83 441.304 1693.3 440.792C1693.77 440.237 1694 439.512 1694 438.616C1694 437.677 1693.7 436.909 1693.1 436.312C1692.55 435.715 1691.78 435.224 1690.8 434.84C1689.82 434.413 1688.75 433.965 1687.6 433.496C1684.95 432.557 1682.95 431.363 1681.58 429.912C1680.26 428.461 1679.6 426.733 1679.6 424.728C1679.6 422.979 1680.05 421.443 1680.94 420.12C1681.88 418.797 1683.14 417.773 1684.72 417.048C1686.3 416.28 1688.01 415.896 1689.84 415.896C1691.85 415.896 1693.55 416.237 1694.96 416.92C1696.41 417.56 1697.58 418.371 1698.48 419.352C1699.42 420.333 1700.1 421.272 1700.53 422.168L1693.87 424.728L1692.34 421.464C1692.21 421.379 1691.93 421.251 1691.5 421.08C1691.08 420.909 1690.48 420.824 1689.71 420.824C1689.07 420.824 1688.45 420.952 1687.86 421.208C1687.26 421.421 1686.75 421.763 1686.32 422.232C1685.94 422.701 1685.74 423.32 1685.74 424.088C1685.74 424.899 1686.04 425.581 1686.64 426.136C1687.28 426.691 1688.18 427.224 1689.33 427.736C1690.48 428.205 1691.8 428.76 1693.3 429.4C1695.43 430.253 1697.09 431.384 1698.29 432.792C1699.53 434.157 1700.14 435.907 1700.14 438.04C1700.14 440.003 1699.61 441.688 1698.54 443.096C1697.52 444.461 1696.18 445.485 1694.51 446.168C1692.89 446.851 1691.18 447.192 1689.39 447.192ZM1179.94 545.472L1179.11 542.016L1182.63 541.12V501.824L1179.04 502.208L1178.4 498.24L1186.6 496.896L1188.2 498.752C1189.05 498.24 1190.03 497.813 1191.14 497.472C1192.25 497.131 1193.49 496.96 1194.85 496.96C1197.54 496.96 1199.8 497.621 1201.64 498.944C1203.51 500.267 1204.94 502.08 1205.92 504.384C1206.9 506.645 1207.4 509.248 1207.4 512.192C1207.4 514.795 1207.05 517.099 1206.37 519.104C1205.69 521.109 1204.73 522.795 1203.49 524.16C1202.25 525.483 1200.78 526.507 1199.08 527.232C1197.41 527.915 1195.58 528.256 1193.57 528.256C1192.68 528.256 1191.8 528.171 1190.95 528C1190.14 527.872 1189.37 527.659 1188.64 527.36V540.416L1196.26 541.952V545.472H1179.94ZM1193.51 523.392C1195.21 523.392 1196.64 522.923 1197.8 521.984C1198.95 521.045 1199.8 519.765 1200.36 518.144C1200.91 516.523 1201.19 514.645 1201.19 512.512C1201.19 510.507 1200.91 508.693 1200.36 507.072C1199.84 505.451 1199.05 504.171 1197.99 503.232C1196.92 502.293 1195.56 501.824 1193.89 501.824C1192.87 501.824 1191.86 502.037 1190.88 502.464C1189.9 502.848 1189.16 503.36 1188.64 504V521.984C1189.24 522.411 1189.99 522.752 1190.88 523.008C1191.78 523.264 1192.65 523.392 1193.51 523.392ZM1221.34 528.256C1219.46 528.256 1217.82 527.915 1216.41 527.232C1215 526.507 1213.89 525.504 1213.08 524.224C1212.31 522.901 1211.93 521.408 1211.93 519.744C1211.93 517.739 1212.44 516.096 1213.46 514.816C1214.53 513.493 1215.87 512.469 1217.5 511.744C1219.16 510.976 1220.93 510.443 1222.81 510.144C1224.68 509.803 1226.46 509.611 1228.12 509.568V504.96C1228.12 504.064 1227.69 503.317 1226.84 502.72C1226.03 502.123 1224.83 501.824 1223.26 501.824C1222.79 501.824 1222.25 501.867 1221.66 501.952C1221.06 501.995 1220.57 502.123 1220.18 502.336L1218.84 506.432L1212.18 504.128C1212.99 501.952 1214.42 500.224 1216.47 498.944C1218.56 497.621 1220.91 496.96 1223.51 496.96C1225.6 496.96 1227.44 497.301 1229.02 497.984C1230.59 498.667 1231.83 499.733 1232.73 501.184C1233.62 502.592 1234.07 504.427 1234.07 506.688V522.048C1234.07 522.56 1234.18 522.965 1234.39 523.264C1234.65 523.563 1234.99 523.712 1235.42 523.712C1235.63 523.712 1235.84 523.691 1236.06 523.648C1236.27 523.563 1236.42 523.499 1236.5 523.456L1237.46 526.528C1237.12 526.869 1236.55 527.253 1235.74 527.68C1234.97 528.064 1234.09 528.256 1233.11 528.256C1231.87 528.256 1230.91 527.979 1230.23 527.424C1229.55 526.869 1229.02 526.165 1228.63 525.312C1227.78 526.165 1226.71 526.869 1225.43 527.424C1224.19 527.979 1222.83 528.256 1221.34 528.256ZM1222.36 523.328C1223.6 523.328 1224.73 523.008 1225.75 522.368C1226.82 521.728 1227.61 520.96 1228.12 520.064V514.112C1227.18 514.112 1226.14 514.197 1224.98 514.368C1223.83 514.496 1222.72 514.752 1221.66 515.136C1220.63 515.477 1219.78 515.989 1219.1 516.672C1218.41 517.355 1218.07 518.251 1218.07 519.36C1218.07 520.427 1218.43 521.365 1219.16 522.176C1219.88 522.944 1220.95 523.328 1222.36 523.328ZM1252.51 545.216C1250.16 545.216 1248.05 544.811 1246.18 544C1244.3 543.189 1242.8 542.037 1241.7 540.544C1240.63 539.051 1240.1 537.301 1240.1 535.296C1240.1 533.205 1240.65 531.456 1241.76 530.048C1242.87 528.683 1244.11 527.616 1245.47 526.848C1244.92 526.379 1244.47 525.824 1244.13 525.184C1243.83 524.544 1243.68 523.776 1243.68 522.88C1243.68 521.899 1243.91 521.003 1244.38 520.192C1244.85 519.339 1245.41 518.592 1246.05 517.952C1244.6 517.013 1243.42 515.755 1242.53 514.176C1241.67 512.597 1241.25 510.763 1241.25 508.672C1241.25 506.24 1241.8 504.149 1242.91 502.4C1244.02 500.651 1245.49 499.307 1247.33 498.368C1249.2 497.429 1251.21 496.96 1253.34 496.96C1254.88 496.96 1256.33 497.195 1257.7 497.664C1259.06 498.091 1260.28 498.752 1261.34 499.648L1267.74 496.448L1269.09 496.64L1269.79 502.016L1264.03 502.72C1264.5 503.531 1264.86 504.448 1265.12 505.472C1265.42 506.453 1265.57 507.499 1265.57 508.608C1265.57 510.997 1264.99 513.045 1263.84 514.752C1262.73 516.459 1261.26 517.76 1259.42 518.656C1257.59 519.552 1255.56 520 1253.34 520C1252.92 520 1252.49 520 1252.06 520C1251.68 519.957 1251.3 519.893 1250.91 519.808L1249.63 521.664L1249.82 522.752L1256.42 524.288C1258.46 524.757 1260.23 525.376 1261.73 526.144C1263.26 526.912 1264.46 527.872 1265.31 529.024C1266.16 530.219 1266.59 531.733 1266.59 533.568C1266.59 536.085 1265.93 538.197 1264.61 539.904C1263.33 541.653 1261.6 542.976 1259.42 543.872C1257.29 544.768 1254.99 545.216 1252.51 545.216ZM1253.54 539.264C1254.86 539.264 1256.14 539.072 1257.38 538.688C1258.61 538.304 1259.62 537.728 1260.38 536.96C1261.19 536.235 1261.6 535.381 1261.6 534.4C1261.6 533.461 1261.24 532.715 1260.51 532.16C1259.79 531.648 1258.83 531.2 1257.63 530.816C1256.48 530.475 1255.2 530.176 1253.79 529.92C1252.43 529.664 1251.1 529.344 1249.82 528.96C1248.59 529.515 1247.58 530.24 1246.82 531.136C1246.05 532.032 1245.66 533.077 1245.66 534.272C1245.66 535.253 1246 536.107 1246.69 536.832C1247.37 537.6 1248.29 538.197 1249.44 538.624C1250.63 539.051 1252 539.264 1253.54 539.264ZM1253.34 515.136C1255.35 515.136 1256.84 514.496 1257.82 513.216C1258.85 511.893 1259.36 510.293 1259.36 508.416C1259.36 506.624 1258.85 505.088 1257.82 503.808C1256.84 502.485 1255.35 501.824 1253.34 501.824C1251.38 501.824 1249.89 502.485 1248.86 503.808C1247.88 505.088 1247.39 506.624 1247.39 508.416C1247.39 510.293 1247.88 511.893 1248.86 513.216C1249.89 514.496 1251.38 515.136 1253.34 515.136ZM1286.57 528.256C1283.8 528.256 1281.35 527.637 1279.21 526.4C1277.08 525.163 1275.4 523.392 1274.16 521.088C1272.96 518.784 1272.37 516.053 1272.37 512.896C1272.37 509.525 1272.99 506.667 1274.22 504.32C1275.5 501.931 1277.19 500.117 1279.28 498.88C1281.37 497.6 1283.69 496.96 1286.25 496.96C1288 496.96 1289.65 497.28 1291.18 497.92C1292.76 498.56 1294.04 499.52 1295.02 500.8C1296 502.037 1296.49 503.616 1296.49 505.536C1296.49 507.541 1296.03 509.205 1295.09 510.528C1294.19 511.851 1292.97 512.896 1291.44 513.664C1289.9 514.432 1288.2 514.987 1286.32 515.328C1284.44 515.627 1282.54 515.776 1280.62 515.776L1278.7 515.712C1279 517.888 1279.83 519.723 1281.2 521.216C1282.56 522.667 1284.63 523.392 1287.41 523.392C1289.07 523.392 1290.52 523.093 1291.76 522.496C1293.04 521.899 1294.11 521.237 1294.96 520.512L1296.3 525.056C1295.71 525.611 1294.92 526.144 1293.93 526.656C1292.95 527.125 1291.82 527.509 1290.54 527.808C1289.31 528.107 1287.98 528.256 1286.57 528.256ZM1278.64 511.104L1280.24 511.168C1281.22 511.168 1282.29 511.104 1283.44 510.976C1284.63 510.848 1285.74 510.613 1286.77 510.272C1287.83 509.888 1288.69 509.333 1289.33 508.608C1290.01 507.84 1290.35 506.859 1290.35 505.664C1290.35 504.341 1289.92 503.381 1289.07 502.784C1288.22 502.187 1287.28 501.888 1286.25 501.888C1284.8 501.888 1283.52 502.315 1282.41 503.168C1281.31 503.979 1280.41 505.088 1279.73 506.496C1279.09 507.904 1278.72 509.44 1278.64 511.104Z" fill="#243448" fill-opacity="0.67"/>
<g clip-path="url(#clip0_10_48)">
<path d="M624.815 168.892H620.915V61.915C620.915 45.4941 614.392 29.7458 602.78 18.1345C591.169 6.52317 575.421 8.07648e-09 559 8.07648e-09H332.35C324.219 -0.000131315 316.168 1.60122 308.656 4.71262C301.144 7.82401 294.319 12.3845 288.569 18.1338C282.82 23.883 278.259 30.7084 275.147 38.2202C272.036 45.7321 270.434 53.7832 270.434 61.914V648.798C270.434 665.219 276.957 680.967 288.568 692.579C300.18 704.19 315.928 710.713 332.349 710.713H558.997C575.418 710.713 591.166 704.19 602.777 692.579C614.389 680.967 620.912 665.219 620.912 648.798V245.04H624.812L624.815 168.892Z" fill="#3F3D56"/>
<path d="M608.215 57.768V652.943C608.213 665.393 603.267 677.333 594.465 686.138C585.662 694.942 573.723 699.891 561.273 699.895H329.973C317.518 699.897 305.572 694.951 296.763 686.146C287.955 677.341 283.004 665.398 283 652.943V57.768C283.004 45.3135 287.954 33.3705 296.763 24.5657C305.571 15.7609 317.516 10.8154 329.971 10.817H358.029C356.651 14.205 356.127 17.8795 356.502 21.5177C356.877 25.1558 358.14 28.6461 360.18 31.6818C362.22 34.7175 364.974 37.2056 368.201 38.9275C371.427 40.6494 375.028 41.5524 378.685 41.557H510.553C514.21 41.5524 517.811 40.6494 521.037 38.9275C524.264 37.2056 527.018 34.7175 529.058 31.6818C531.098 28.6461 532.361 25.1558 532.736 21.5177C533.111 17.8795 532.587 14.205 531.209 10.817H561.264C573.714 10.8191 585.654 15.7652 594.458 24.5678C603.262 33.3704 608.21 45.309 608.215 57.759V57.768Z" fill="white"/>
<path d="M445.565 296.694C498.896 296.694 542.13 253.46 542.13 200.129C542.13 146.798 498.896 103.564 445.565 103.564C392.234 103.564 349 146.798 349 200.129C349 253.46 392.234 296.694 445.565 296.694Z" fill="#544D91"/>
<path d="M550.881 400.596H345.344C344.335 400.595 343.367 400.194 342.654 399.48C341.94 398.767 341.539 397.799 341.538 396.79V345.806C341.539 344.797 341.941 343.83 342.654 343.116C343.368 342.403 344.335 342.001 345.344 342H550.881C551.89 342.001 552.857 342.403 553.571 343.116C554.284 343.83 554.686 344.797 554.687 345.806V396.791C554.686 397.8 554.284 398.767 553.571 399.481C552.857 400.194 551.89 400.596 550.881 400.597V400.596ZM345.344 343.522C344.738 343.523 344.158 343.763 343.729 344.192C343.301 344.62 343.06 345.2 343.06 345.806V396.791C343.06 397.397 343.301 397.977 343.729 398.405C344.158 398.834 344.738 399.074 345.344 399.075H550.881C551.487 399.074 552.067 398.834 552.495 398.405C552.924 397.977 553.164 397.397 553.165 396.791V345.806C553.164 345.2 552.924 344.62 552.495 344.192C552.067 343.763 551.487 343.523 550.881 343.522H345.344Z" fill="#E6E6E6"/>
<path d="M408.908 360.361C408.201 360.361 407.524 360.642 407.024 361.141C406.524 361.641 406.244 362.319 406.244 363.025C406.244 363.732 406.524 364.41 407.024 364.91C407.524 365.409 408.201 365.69 408.908 365.69H534.513C535.219 365.717 535.907 365.462 536.426 364.982C536.945 364.502 537.251 363.835 537.278 363.129C537.305 362.423 537.051 361.735 536.57 361.216C536.09 360.697 535.423 360.391 534.717 360.364C534.678 360.362 534.639 360.362 534.6 360.362L408.908 360.361Z" fill="#E6E6E6"/>
<path d="M408.908 376.345C408.201 376.345 407.524 376.626 407.024 377.125C406.524 377.625 406.244 378.303 406.244 379.009C406.244 379.716 406.524 380.394 407.024 380.894C407.524 381.393 408.201 381.674 408.908 381.674H534.513C535.219 381.701 535.907 381.446 536.426 380.966C536.945 380.486 537.251 379.819 537.278 379.113C537.305 378.407 537.051 377.719 536.57 377.2C536.09 376.681 535.423 376.375 534.717 376.348C534.678 376.346 534.639 376.346 534.6 376.346L408.908 376.345Z" fill="#E6E6E6"/>
<path d="M550.881 485.576H345.344C344.335 485.575 343.367 485.174 342.654 484.46C341.94 483.746 341.539 482.779 341.538 481.77V430.786C341.539 429.777 341.941 428.81 342.654 428.096C343.368 427.383 344.335 426.981 345.344 426.98H550.881C551.89 426.981 552.857 427.383 553.571 428.096C554.284 428.81 554.686 429.777 554.687 430.786V481.771C554.685 482.78 554.284 483.747 553.57 484.46C552.857 485.173 551.89 485.575 550.881 485.576ZM345.344 428.502C344.738 428.502 344.158 428.743 343.729 429.172C343.301 429.6 343.06 430.18 343.06 430.786V481.771C343.06 482.377 343.301 482.957 343.729 483.385C344.158 483.814 344.738 484.054 345.344 484.055H550.881C551.487 484.054 552.067 483.814 552.495 483.385C552.924 482.957 553.164 482.377 553.165 481.771V430.786C553.164 430.18 552.924 429.6 552.495 429.172C552.067 428.743 551.487 428.502 550.881 428.502H345.344Z" fill="#E6E6E6"/>
<path d="M408.908 445.617C408.201 445.617 407.524 445.898 407.024 446.397C406.524 446.897 406.244 447.575 406.244 448.281C406.244 448.988 406.524 449.666 407.024 450.166C407.524 450.665 408.201 450.946 408.908 450.946H534.513C535.21 450.942 535.877 450.665 536.372 450.175C536.867 449.686 537.151 449.021 537.163 448.325C537.174 447.628 536.912 446.955 536.433 446.449C535.954 445.943 535.296 445.645 534.6 445.618H408.908V445.617Z" fill="#E6E6E6"/>
<path d="M408.908 461.605C408.201 461.605 407.524 461.886 407.024 462.385C406.524 462.885 406.244 463.563 406.244 464.269C406.244 464.976 406.524 465.654 407.024 466.154C407.524 466.653 408.201 466.934 408.908 466.934H534.513C535.21 466.93 535.877 466.653 536.372 466.164C536.867 465.674 537.151 465.009 537.163 464.313C537.174 463.616 536.912 462.943 536.433 462.437C535.954 461.931 535.296 461.633 534.6 461.606H408.908V461.605Z" fill="#E6E6E6"/>
<path d="M550.881 570.834H345.344C344.335 570.833 343.367 570.432 342.654 569.718C341.94 569.005 341.539 568.037 341.538 567.028V516.044C341.539 515.035 341.941 514.068 342.654 513.354C343.368 512.641 344.335 512.239 345.344 512.238H550.881C551.89 512.239 552.857 512.641 553.571 513.354C554.284 514.068 554.686 515.035 554.687 516.044V567.029C554.686 568.038 554.284 569.005 553.571 569.719C552.857 570.432 551.89 570.834 550.881 570.835V570.834ZM345.344 513.76C344.738 513.761 344.158 514.001 343.729 514.43C343.301 514.858 343.06 515.438 343.06 516.044V567.029C343.06 567.635 343.301 568.215 343.729 568.643C344.158 569.072 344.738 569.313 345.344 569.313H550.881C551.487 569.313 552.067 569.072 552.495 568.643C552.924 568.215 553.164 567.635 553.165 567.029V516.044C553.164 515.438 552.924 514.858 552.495 514.43C552.067 514.001 551.487 513.761 550.881 513.76H345.344Z" fill="#E6E6E6"/>
<path d="M408.908 530.878C408.201 530.878 407.524 531.159 407.024 531.658C406.524 532.158 406.244 532.836 406.244 533.542C406.244 534.249 406.524 534.927 407.024 535.427C407.524 535.926 408.201 536.207 408.908 536.207H534.513C534.863 536.22 535.212 536.165 535.54 536.043C535.868 535.922 536.169 535.737 536.426 535.499C536.683 535.261 536.89 534.975 537.036 534.657C537.183 534.339 537.265 533.996 537.278 533.646C537.292 533.296 537.236 532.947 537.114 532.619C536.993 532.291 536.808 531.99 536.57 531.733C536.332 531.476 536.046 531.269 535.728 531.123C535.41 530.976 535.067 530.894 534.717 530.881C534.678 530.879 534.639 530.879 534.6 530.879L408.908 530.878Z" fill="#E6E6E6"/>
<path d="M408.908 546.865C408.201 546.865 407.524 547.146 407.024 547.645C406.524 548.145 406.244 548.823 406.244 549.53C406.244 550.236 406.524 550.914 407.024 551.414C407.524 551.913 408.201 552.194 408.908 552.194H534.513C534.863 552.207 535.212 552.152 535.54 552.03C535.868 551.909 536.169 551.724 536.426 551.486C536.683 551.248 536.89 550.962 537.036 550.644C537.183 550.326 537.265 549.983 537.278 549.633C537.292 549.283 537.236 548.934 537.114 548.606C536.993 548.278 536.808 547.977 536.57 547.72C536.332 547.463 536.046 547.256 535.728 547.11C535.41 546.963 535.067 546.881 534.717 546.868C534.678 546.866 534.639 546.866 534.6 546.866H408.908L408.908 546.865Z" fill="#E6E6E6"/>
<path d="M740.479 712.573H1.93799C0.866988 712.573 0 712.105 0 711.528C0 710.951 0.867988 710.483 1.93799 710.483H740.479C741.549 710.483 742.417 710.951 742.417 711.528C742.417 712.105 741.55 712.573 740.479 712.573Z" fill="#E6E6E6"/>
<path d="M709.201 671.808C706.046 672.917 702.658 673.195 699.364 672.615C696.07 672.034 692.981 670.616 690.395 668.495C683.808 662.967 681.743 653.859 680.063 645.425L675.093 620.48L685.498 627.645C692.981 632.797 700.632 638.115 705.814 645.578C710.996 653.041 713.257 663.229 709.094 671.304" fill="#E6E6E6"/>
<path d="M707.594 703.745C708.904 694.203 710.251 684.539 709.332 674.896C708.516 666.331 705.903 657.966 700.583 651.107C697.759 647.473 694.324 644.36 690.43 641.907C689.415 641.266 688.48 642.875 689.491 643.513C696.228 647.771 701.439 654.059 704.372 661.469C707.612 669.71 708.132 678.693 707.572 687.446C707.234 692.74 706.519 697.999 705.798 703.251C705.741 703.489 705.777 703.739 705.898 703.951C706.018 704.164 706.215 704.322 706.448 704.395C706.686 704.459 706.939 704.427 707.154 704.305C707.368 704.183 707.525 703.982 707.592 703.745H707.594Z" fill="#F2F2F2"/>
<path d="M698.167 688.435C696.814 690.492 694.954 692.165 692.766 693.294C690.578 694.424 688.136 694.97 685.676 694.882C679.353 694.582 674.081 690.169 669.336 685.982L655.301 673.587L664.59 673.143C671.27 672.823 678.123 672.525 684.49 674.585C690.857 676.645 696.721 681.603 697.884 688.185" fill="#E6E6E6"/>
<path d="M711.295 709.23C704.995 698.074 697.677 685.675 684.61 681.712C680.977 680.614 677.167 680.22 673.386 680.553C672.194 680.653 672.492 682.493 673.686 682.39C680.024 681.864 686.35 683.537 691.598 687.129C696.649 690.567 700.581 695.346 703.909 700.415C705.948 703.515 707.774 706.756 709.6 709.988C710.18 711.02 711.886 710.275 711.295 709.23Z" fill="#F2F2F2"/>
<path d="M370.986 386.971C379.815 386.971 386.972 379.814 386.972 370.985C386.972 362.156 379.815 354.999 370.986 354.999C362.157 354.999 355 362.156 355 370.985C355 379.814 362.157 386.971 370.986 386.971Z" fill="#544D91"/>
<path d="M363.333 367.999C363.149 367.999 363 369.192 363 370.663C363 372.134 363.149 373.328 363.333 373.328H379.052C379.236 373.352 379.388 372.179 379.391 370.708C379.493 369.792 379.381 368.865 379.063 368H363.333V367.999Z" fill="#E6E6E6"/>
<path d="M370.986 472.264C379.815 472.264 386.972 465.107 386.972 456.278C386.972 447.449 379.815 440.292 370.986 440.292C362.157 440.292 355 447.449 355 456.278C355 465.107 362.157 472.264 370.986 472.264Z" fill="#544D91"/>
<path d="M363.333 453.292C363.149 453.292 363 454.485 363 455.956C363 457.427 363.149 458.621 363.333 458.621H379.052C379.236 458.645 379.388 457.472 379.391 456.001C379.493 455.085 379.381 454.158 379.063 453.293L363.333 453.292Z" fill="#E6E6E6"/>
<path d="M370.986 557.522C379.815 557.522 386.972 550.365 386.972 541.536C386.972 532.707 379.815 525.55 370.986 525.55C362.157 525.55 355 532.707 355 541.536C355 550.365 362.157 557.522 370.986 557.522Z" fill="#544D91"/>
<path d="M363.333 538.55C363.149 538.55 363 539.743 363 541.214C363 542.685 363.149 543.879 363.333 543.879H379.052C379.236 543.903 379.388 542.73 379.391 541.259C379.493 540.343 379.381 539.416 379.063 538.551L363.333 538.55Z" fill="#E6E6E6"/>
<path d="M424.705 173.612L419.048 179.269L466.425 226.646L472.081 220.989L424.705 173.612Z" fill="white"/>
<path d="M472.081 179.269L466.425 173.612L419.048 220.989L424.705 226.645L472.081 179.269Z" fill="white"/>
<path d="M90.2594 456.135C91.6452 455.644 92.9066 454.856 93.9548 453.825C95.003 452.795 95.8125 451.546 96.3261 450.169C96.8398 448.792 97.0452 447.318 96.9279 445.853C96.8106 444.388 96.3734 442.966 95.6471 441.688L119.212 414.824L100.817 412.286L81.2592 438.185C79.1928 439.548 77.698 441.621 77.058 444.012C76.418 446.403 76.6772 448.945 77.7866 451.158C78.896 453.37 80.7785 455.099 83.0773 456.016C85.3761 456.934 87.9315 456.976 90.2594 456.135Z" fill="#9F616A"/>
<path d="M118.679 694.215L102.244 694.214L94.425 630.82L118.682 630.821L118.679 694.215Z" fill="#9F616A"/>
<path d="M122.871 710.147L69.8759 710.145V709.474C69.8762 704.004 72.0495 698.758 75.9178 694.889C79.786 691.021 85.0324 688.848 90.5028 688.848H90.5042L122.872 688.849L122.871 710.147Z" fill="#2F2E41"/>
<path d="M204.713 680.461L189.017 685.334L162.751 627.11L185.917 619.918L204.713 680.461Z" fill="#9F616A"/>
<path d="M213.441 694.433L162.829 710.147L162.63 709.506C161.008 704.282 161.528 698.627 164.075 693.786C166.623 688.945 170.988 685.313 176.213 683.691L176.214 683.69L207.126 674.093L213.441 694.433Z" fill="#2F2E41"/>
<path d="M106.093 401.943L81.7518 429.82L100.808 431.535L106.093 401.943Z" fill="#E6E6E6"/>
<path d="M96.582 437.876C96.582 437.876 88.127 442.103 87.07 461.127C86.013 480.151 90.241 529.827 90.241 529.827C90.241 529.827 86.014 552.021 90.241 572.101C94.468 592.181 86.014 665.101 91.298 665.101C96.582 665.101 124.06 668.272 125.117 665.101C126.174 661.93 127.231 614.372 127.231 614.372C127.231 614.372 135.686 590.064 127.231 575.272C127.231 575.272 156.752 626.82 175.846 666.161C180.025 674.771 211.779 665.104 206.495 655.592C201.211 646.08 188.529 602.749 188.529 602.749C188.529 602.749 179.017 571.043 162.108 557.304L170.563 489.665C170.563 489.665 188.53 444.22 177.963 437.879C167.396 431.538 96.582 437.876 96.582 437.876Z" fill="#2F2E41"/>
<path d="M128.287 265.607C143.463 265.607 155.765 253.305 155.765 238.129C155.765 222.953 143.463 210.651 128.287 210.651C113.111 210.651 100.809 222.953 100.809 238.129C100.809 253.305 113.111 265.607 128.287 265.607Z" fill="#A0616A"/>
<path d="M158.936 267.721L124.776 287.801C124.776 287.801 111.696 295.167 106.81 307.881C101.602 321.431 104.629 340.509 106.81 344.871C111.037 353.326 105.037 374.463 105.037 374.463L99.753 423.078C99.753 423.078 80.73 441.044 95.526 443.158C110.322 445.272 136.743 442.101 152.596 443.158C168.449 444.215 186.415 446.329 181.131 435.758C175.847 425.187 169.506 417.791 175.847 396.658C180.809 380.118 180.594 318.275 180.266 292.158C180.221 288.571 179.259 285.056 177.472 281.946C175.684 278.836 173.131 276.235 170.055 274.391L158.936 267.721Z" fill="#E5E5E5"/>
<path opacity="0.1" d="M143.616 301.013L146.786 365.481L116.06 427.704L110.849 425.721L142.555 367.594L143.616 301.013Z" fill="black"/>
<path opacity="0.1" d="M178.488 379.219V371.819L142.559 431.005L178.488 379.219Z" fill="black"/>
<path d="M108.785 212.674L104.246 210.858C104.246 210.858 113.746 200.401 126.959 201.31L123.242 197.218C123.242 197.218 132.327 193.581 140.587 203.128C144.929 208.147 149.952 214.047 153.087 220.692H157.952L155.922 225.163L163.028 229.634L155.734 228.834C156.425 232.694 156.188 236.663 155.044 240.413L155.244 243.947C155.244 243.947 146.785 230.858 146.785 229.042V233.589C146.785 233.589 142.242 229.497 142.242 226.769L139.764 229.952L138.525 224.952L123.245 229.952L125.721 225.858L116.221 227.222L119.938 222.222C119.938 222.222 109.201 228.132 108.788 233.134C108.375 238.136 103.007 244.5 103.007 244.5L100.529 239.953C100.529 239.953 96.813 219.494 108.785 212.674Z" fill="#2F2E41"/>
<path d="M126.563 459.125C127.839 458.397 128.941 457.397 129.789 456.196C130.638 454.996 131.213 453.624 131.474 452.177C131.735 450.731 131.676 449.244 131.3 447.823C130.925 446.402 130.242 445.08 129.3 443.951L147.723 413.331L129.169 414.099L114.519 443.058C112.728 444.766 111.625 447.071 111.419 449.538C111.214 452.004 111.92 454.461 113.405 456.441C114.889 458.422 117.048 459.789 119.474 460.283C121.899 460.778 124.421 460.366 126.563 459.125Z" fill="#9F616A"/>
<path d="M168.449 281.462L176.375 279.877C176.375 279.877 200.154 297.315 192.756 332.191C185.358 367.067 152.596 419.91 152.596 419.91C152.596 419.91 145.196 429.422 143.084 431.535C140.972 433.648 136.743 431.535 138.857 434.706C140.971 437.877 135.686 439.99 135.686 439.99C135.686 439.99 112.435 439.99 114.549 431.535C116.663 423.08 152.596 362.835 152.596 362.835L147.312 306.822C147.312 306.822 143.083 279.348 168.449 281.462Z" fill="#E5E5E5"/>
</g>
<defs>
<clipPath id="clip0_10_48">
<rect width="742.417" height="712.573" fill="white"/>
</clipPath>
</defs>
</svg>
