<svg width="303" height="372" viewBox="0 0 303 372" fill="none" xmlns="http://www.w3.org/2000/svg">
<g opacity="0.3">
<mask id="path-1-inside-1_1_43" fill="white">
<path fill-rule="evenodd" clip-rule="evenodd" d="M205.015 50H238.5L261.5 244.5H42L66.5 50H96.9851C102.767 21.333 124.756 0 151 0C177.244 0 199.233 21.333 205.015 50ZM111.387 50C119.203 30.2961 134.015 17 151 17C167.986 17 182.797 30.2961 190.613 50H111.387Z"/>
</mask>
<path fill-rule="evenodd" clip-rule="evenodd" d="M205.015 50H238.5L261.5 244.5H42L66.5 50H96.9851C102.767 21.333 124.756 0 151 0C177.244 0 199.233 21.333 205.015 50ZM111.387 50C119.203 30.2961 134.015 17 151 17C167.986 17 182.797 30.2961 190.613 50H111.387Z" fill="white" fill-opacity="0.5"/>
<path d="M205.015 50L201.094 50.7908L201.741 54H205.015V50ZM238.5 50L242.472 49.5303L242.055 46H238.5V50ZM261.5 244.5V248.5H266.001L265.472 244.03L261.5 244.5ZM42 244.5L38.0314 244L37.4645 248.5H42V244.5ZM66.5 50V46H62.9722L62.5314 49.5001L66.5 50ZM96.9851 50V54H100.259L100.906 50.7908L96.9851 50ZM111.387 50L107.669 48.5251L105.497 54H111.387V50ZM190.613 50V54H196.503L194.331 48.5251L190.613 50ZM205.015 54H238.5V46H205.015V54ZM234.528 50.4697L257.528 244.97L265.472 244.03L242.472 49.5303L234.528 50.4697ZM261.5 240.5H42V248.5H261.5V240.5ZM45.9686 245L70.4686 50.4999L62.5314 49.5001L38.0314 244L45.9686 245ZM66.5 54H96.9851V46H66.5V54ZM151 -4C122.404 -4 99.1263 19.1523 93.0641 49.2092L100.906 50.7908C106.408 23.5137 127.108 4 151 4V-4ZM208.936 49.2092C202.874 19.1523 179.596 -4 151 -4V4C174.892 4 195.592 23.5137 201.094 50.7908L208.936 49.2092ZM115.105 51.4749C122.594 32.5959 136.295 21 151 21V13C131.734 13 115.812 27.9962 107.669 48.5251L115.105 51.4749ZM151 21C165.705 21 179.406 32.5959 186.895 51.4749L194.331 48.5251C186.188 27.9962 170.266 13 151 13V21ZM111.387 54H190.613V46H111.387V54Z" fill="#243448" mask="url(#path-1-inside-1_1_43)"/>
</g>
<circle cx="116" cy="114.5" r="11.5" fill="#243448" fill-opacity="0.67"/>
<circle cx="186" cy="114.5" r="11.5" fill="#243448" fill-opacity="0.67"/>
<path d="M257.5 241.5L202 54H235L257.5 241.5Z" fill="#243448" fill-opacity="0.5"/>
<path d="M102.5 192C118 166.333 159.4 130.4 201 192" stroke="#243448" stroke-opacity="0.67" stroke-width="6" stroke-linecap="round"/>
<path d="M30.9452 298L30.3852 294.72L33.0652 294.2V274.12L30.5452 273.88V270.36H40.2252L49.5852 294.28V274.08L47.2252 273.76V270.36H55.5852L56.1452 273.84L53.5052 274.32V298H46.0252L36.9852 275.08V294.08L39.1452 294.68L39.1052 298H30.9452ZM70.1855 298.16C68.2921 298.16 66.6255 297.813 65.1855 297.12C63.7455 296.427 62.5321 295.44 61.5455 294.16C60.5855 292.88 59.8521 291.4 59.3455 289.72C58.8655 288.013 58.6255 286.173 58.6255 284.2C58.6255 282.227 58.8655 280.4 59.3455 278.72C59.8521 277.013 60.5855 275.533 61.5455 274.28C62.5321 273.027 63.7455 272.053 65.1855 271.36C66.6255 270.64 68.2921 270.28 70.1855 270.28C72.0788 270.28 73.7321 270.64 75.1455 271.36C76.5855 272.053 77.7855 273.027 78.7455 274.28C79.7321 275.533 80.4655 277.013 80.9455 278.72C81.4521 280.4 81.7055 282.227 81.7055 284.2C81.7055 286.173 81.4521 288.013 80.9455 289.72C80.4655 291.4 79.7321 292.88 78.7455 294.16C77.7855 295.44 76.5855 296.427 75.1455 297.12C73.7321 297.813 72.0788 298.16 70.1855 298.16ZM70.1855 294.2C71.1988 294.2 72.1055 293.947 72.9055 293.44C73.7055 292.907 74.3855 292.187 74.9455 291.28C75.5055 290.373 75.9321 289.32 76.2255 288.12C76.5188 286.92 76.6655 285.64 76.6655 284.28C76.6655 282.92 76.5188 281.64 76.2255 280.44C75.9321 279.24 75.5055 278.173 74.9455 277.24C74.3855 276.307 73.7055 275.573 72.9055 275.04C72.1055 274.507 71.1988 274.24 70.1855 274.24C69.1455 274.24 68.2255 274.507 67.4255 275.04C66.6255 275.573 65.9455 276.307 65.3855 277.24C64.8521 278.173 64.4388 279.24 64.1455 280.44C63.8521 281.64 63.7055 282.92 63.7055 284.28C63.7055 285.64 63.8521 286.92 64.1455 288.12C64.4388 289.32 64.8521 290.373 65.3855 291.28C65.9455 292.187 66.6255 292.907 67.4255 293.44C68.2255 293.947 69.1455 294.2 70.1855 294.2ZM94.9677 298L94.4477 294.76L97.1677 294.2V274.08L94.5277 273.8V270.36H103.968C105.888 270.36 107.554 270.587 108.968 271.04C110.408 271.467 111.581 272.08 112.488 272.88C113.394 273.68 114.074 274.64 114.528 275.76C114.981 276.853 115.208 278.08 115.208 279.44C115.208 281.36 114.768 283.027 113.888 284.44C113.034 285.827 111.768 286.907 110.088 287.68C108.434 288.427 106.394 288.8 103.968 288.8H102.008V294L108.008 294.88L107.808 298H94.9677ZM102.008 284.84H102.648C104.728 284.84 106.301 284.613 107.368 284.16C108.434 283.68 109.154 283.027 109.528 282.2C109.928 281.373 110.128 280.413 110.128 279.32C110.128 277.773 109.634 276.56 108.648 275.68C107.688 274.773 106.221 274.32 104.248 274.32H102.008V284.84ZM117.815 298L117.495 294.8L120.175 294.24V274.08L117.535 273.8V270.36H126.855C129.389 270.36 131.495 270.733 133.175 271.48C134.882 272.227 136.149 273.267 136.975 274.6C137.829 275.933 138.255 277.493 138.255 279.28C138.255 281.253 137.749 282.907 136.735 284.24C135.722 285.573 134.349 286.587 132.615 287.28L136.215 294.32L138.735 294.76V298H132.295L128.055 288.4C127.575 288.427 127.082 288.453 126.575 288.48C126.095 288.507 125.575 288.52 125.015 288.52V294.36L127.255 294.76V298H117.815ZM125.015 284.52H126.455C128.002 284.52 129.269 284.307 130.255 283.88C131.269 283.453 132.015 282.853 132.495 282.08C133.002 281.307 133.255 280.4 133.255 279.36C133.255 278.293 133.015 277.4 132.535 276.68C132.082 275.933 131.322 275.373 130.255 275C129.189 274.6 127.735 274.387 125.895 274.36H125.015V284.52ZM152.959 298.16C151.066 298.16 149.399 297.813 147.959 297.12C146.519 296.427 145.306 295.44 144.319 294.16C143.359 292.88 142.626 291.4 142.119 289.72C141.639 288.013 141.399 286.173 141.399 284.2C141.399 282.227 141.639 280.4 142.119 278.72C142.626 277.013 143.359 275.533 144.319 274.28C145.306 273.027 146.519 272.053 147.959 271.36C149.399 270.64 151.066 270.28 152.959 270.28C154.852 270.28 156.506 270.64 157.919 271.36C159.359 272.053 160.559 273.027 161.519 274.28C162.506 275.533 163.239 277.013 163.719 278.72C164.226 280.4 164.479 282.227 164.479 284.2C164.479 286.173 164.226 288.013 163.719 289.72C163.239 291.4 162.506 292.88 161.519 294.16C160.559 295.44 159.359 296.427 157.919 297.12C156.506 297.813 154.852 298.16 152.959 298.16ZM152.959 294.2C153.972 294.2 154.879 293.947 155.679 293.44C156.479 292.907 157.159 292.187 157.719 291.28C158.279 290.373 158.706 289.32 158.999 288.12C159.292 286.92 159.439 285.64 159.439 284.28C159.439 282.92 159.292 281.64 158.999 280.44C158.706 279.24 158.279 278.173 157.719 277.24C157.159 276.307 156.479 275.573 155.679 275.04C154.879 274.507 153.972 274.24 152.959 274.24C151.919 274.24 150.999 274.507 150.199 275.04C149.399 275.573 148.719 276.307 148.159 277.24C147.626 278.173 147.212 279.24 146.919 280.44C146.626 281.64 146.479 282.92 146.479 284.28C146.479 285.64 146.626 286.92 146.919 288.12C147.212 289.32 147.626 290.373 148.159 291.28C148.719 292.187 149.399 292.907 150.199 293.44C150.999 293.947 151.919 294.2 152.959 294.2ZM167.859 298L167.379 294.68L169.899 294.16V274L167.419 273.68V270.36H174.339C177.513 270.36 180.233 270.867 182.499 271.88C184.793 272.867 186.553 274.36 187.779 276.36C189.033 278.333 189.659 280.84 189.659 283.88C189.659 286.893 189.126 289.453 188.059 291.56C187.019 293.667 185.473 295.267 183.419 296.36C181.393 297.453 178.873 298 175.859 298H167.859ZM175.659 294.08C177.206 294.08 178.526 293.853 179.619 293.4C180.739 292.92 181.659 292.253 182.379 291.4C183.126 290.52 183.673 289.453 184.019 288.2C184.393 286.947 184.579 285.533 184.579 283.96C184.579 281.88 184.206 280.133 183.459 278.72C182.739 277.28 181.673 276.2 180.259 275.48C178.846 274.733 177.126 274.347 175.099 274.32H174.739V294.04L175.659 294.08ZM204.696 298.16C202.19 298.16 200.176 297.773 198.656 297C197.136 296.2 196.043 295.08 195.376 293.64C194.71 292.173 194.376 290.413 194.376 288.36V274.08L191.776 273.72V270.36H201.936L201.976 273.68L199.216 274.08V288.24C199.216 290.213 199.63 291.707 200.456 292.72C201.31 293.707 202.736 294.2 204.736 294.2C205.803 294.2 206.723 294 207.496 293.6C208.27 293.173 208.87 292.52 209.296 291.64C209.723 290.733 209.936 289.587 209.936 288.2V274.04L207.416 273.72V270.36H216.176L216.216 273.76L213.856 274.28V288.36C213.856 290.36 213.496 292.107 212.776 293.6C212.056 295.067 211.016 296.2 209.656 297C208.296 297.773 206.643 298.16 204.696 298.16ZM231.824 298.16C230.01 298.16 228.29 297.867 226.664 297.28C225.037 296.693 223.597 295.827 222.344 294.68C221.117 293.533 220.144 292.12 219.424 290.44C218.73 288.733 218.384 286.773 218.384 284.56C218.384 282.293 218.744 280.28 219.464 278.52C220.21 276.76 221.21 275.28 222.464 274.08C223.717 272.853 225.13 271.933 226.704 271.32C228.277 270.68 229.917 270.36 231.624 270.36C233.25 270.36 234.61 270.48 235.704 270.72C236.797 270.933 237.57 271.107 238.024 271.24L238.824 279.2H235.744L233.584 274.44C233.397 274.413 233.197 274.387 232.984 274.36C232.77 274.333 232.424 274.32 231.944 274.32C230.37 274.32 228.93 274.733 227.624 275.56C226.344 276.36 225.317 277.493 224.544 278.96C223.797 280.4 223.397 282.107 223.344 284.08C223.37 286.027 223.73 287.76 224.424 289.28C225.144 290.8 226.144 292 227.424 292.88C228.73 293.76 230.25 294.2 231.984 294.2C233.05 294.2 234.117 294.013 235.184 293.64C236.277 293.267 237.197 292.72 237.944 292L239.504 295.36C239.024 295.893 238.37 296.373 237.544 296.8C236.744 297.2 235.837 297.533 234.824 297.8C233.837 298.04 232.837 298.16 231.824 298.16ZM245.905 298L245.585 294.96L250.185 294.12V274.32H245.505L243.785 278.32H240.905L241.705 270.36H263.345L264.225 278.28H261.385L259.625 274.32H254.945V294.12L259.585 294.96L259.225 298H245.905ZM90.0272 348L89.5472 344.68L92.0672 344.16V324L89.5872 323.72V320.36H107.467L108.227 328.36H105.387L103.707 324.32H96.9072V331.88H103.067V335.8H96.9072V344L103.627 345L103.347 348H90.0272ZM121.846 348.16C119.952 348.16 118.286 347.813 116.846 347.12C115.406 346.427 114.192 345.44 113.206 344.16C112.246 342.88 111.512 341.4 111.006 339.72C110.526 338.013 110.286 336.173 110.286 334.2C110.286 332.227 110.526 330.4 111.006 328.72C111.512 327.013 112.246 325.533 113.206 324.28C114.192 323.027 115.406 322.053 116.846 321.36C118.286 320.64 119.952 320.28 121.846 320.28C123.739 320.28 125.392 320.64 126.806 321.36C128.246 322.053 129.446 323.027 130.406 324.28C131.392 325.533 132.126 327.013 132.606 328.72C133.112 330.4 133.366 332.227 133.366 334.2C133.366 336.173 133.112 338.013 132.606 339.72C132.126 341.4 131.392 342.88 130.406 344.16C129.446 345.44 128.246 346.427 126.806 347.12C125.392 347.813 123.739 348.16 121.846 348.16ZM121.846 344.2C122.859 344.2 123.766 343.947 124.566 343.44C125.366 342.907 126.046 342.187 126.606 341.28C127.166 340.373 127.592 339.32 127.886 338.12C128.179 336.92 128.326 335.64 128.326 334.28C128.326 332.92 128.179 331.64 127.886 330.44C127.592 329.24 127.166 328.173 126.606 327.24C126.046 326.307 125.366 325.573 124.566 325.04C123.766 324.507 122.859 324.24 121.846 324.24C120.806 324.24 119.886 324.507 119.086 325.04C118.286 325.573 117.606 326.307 117.046 327.24C116.512 328.173 116.099 329.24 115.806 330.44C115.512 331.64 115.366 332.92 115.366 334.28C115.366 335.64 115.512 336.92 115.806 338.12C116.099 339.32 116.512 340.373 117.046 341.28C117.606 342.187 118.286 342.907 119.086 343.44C119.886 343.947 120.806 344.2 121.846 344.2ZM148.583 348.16C146.076 348.16 144.063 347.773 142.543 347C141.023 346.2 139.93 345.08 139.263 343.64C138.596 342.173 138.263 340.413 138.263 338.36V324.08L135.663 323.72V320.36H145.823L145.863 323.68L143.103 324.08V338.24C143.103 340.213 143.516 341.707 144.343 342.72C145.196 343.707 146.623 344.2 148.623 344.2C149.69 344.2 150.61 344 151.383 343.6C152.156 343.173 152.756 342.52 153.183 341.64C153.61 340.733 153.823 339.587 153.823 338.2V324.04L151.303 323.72V320.36H160.063L160.103 323.76L157.743 324.28V338.36C157.743 340.36 157.383 342.107 156.663 343.6C155.943 345.067 154.903 346.2 153.543 347C152.183 347.773 150.53 348.16 148.583 348.16ZM163.387 348L162.827 344.72L165.507 344.2V324.12L162.987 323.88V320.36H172.667L182.027 344.28V324.08L179.667 323.76V320.36H188.027L188.587 323.84L185.947 324.32V348H178.467L169.427 325.08V344.08L171.587 344.68L171.547 348H163.387ZM192.019 348L191.539 344.68L194.059 344.16V324L191.579 323.68V320.36H198.499C201.673 320.36 204.393 320.867 206.659 321.88C208.953 322.867 210.713 324.36 211.939 326.36C213.193 328.333 213.819 330.84 213.819 333.88C213.819 336.893 213.286 339.453 212.219 341.56C211.179 343.667 209.633 345.267 207.579 346.36C205.553 347.453 203.033 348 200.019 348H192.019ZM199.819 344.08C201.366 344.08 202.686 343.853 203.779 343.4C204.899 342.92 205.819 342.253 206.539 341.4C207.286 340.52 207.833 339.453 208.179 338.2C208.553 336.947 208.739 335.533 208.739 333.96C208.739 331.88 208.366 330.133 207.619 328.72C206.899 327.28 205.833 326.2 204.419 325.48C203.006 324.733 201.286 324.347 199.259 324.32H198.899V344.04L199.819 344.08Z" fill="#243448" fill-opacity="0.67"/>
</svg>
