<svg width="1033" height="1086" viewBox="0 0 1033 1086" fill="none" xmlns="http://www.w3.org/2000/svg">
<path d="M226.987 923.966L226.091 918.718L230.379 917.886V885.758L226.347 885.374V879.742H241.835L256.811 918.014V885.694L253.035 885.182V879.742H266.411L267.307 885.31L263.083 886.078V923.966H251.115L236.651 887.294V917.694L240.107 918.654L240.043 923.966H226.987ZM289.772 924.222C286.742 924.222 284.076 923.668 281.772 922.558C279.468 921.449 277.526 919.87 275.948 917.822C274.412 915.774 273.238 913.406 272.428 910.718C271.66 907.988 271.276 905.044 271.276 901.886C271.276 898.729 271.66 895.806 272.428 893.118C273.238 890.388 274.412 888.02 275.948 886.014C277.526 884.009 279.468 882.452 281.772 881.342C284.076 880.19 286.742 879.614 289.772 879.614C292.801 879.614 295.446 880.19 297.708 881.342C300.012 882.452 301.932 884.009 303.468 886.014C305.046 888.02 306.22 890.388 306.988 893.118C307.798 895.806 308.204 898.729 308.204 901.886C308.204 905.044 307.798 907.988 306.988 910.718C306.22 913.406 305.046 915.774 303.468 917.822C301.932 919.87 300.012 921.449 297.708 922.558C295.446 923.668 292.801 924.222 289.772 924.222ZM289.772 917.886C291.393 917.886 292.844 917.481 294.124 916.67C295.404 915.817 296.492 914.665 297.388 913.214C298.284 911.764 298.966 910.078 299.436 908.158C299.905 906.238 300.14 904.19 300.14 902.014C300.14 899.838 299.905 897.79 299.436 895.87C298.966 893.95 298.284 892.244 297.388 890.75C296.492 889.257 295.404 888.084 294.124 887.23C292.844 886.377 291.393 885.95 289.772 885.95C288.108 885.95 286.636 886.377 285.356 887.23C284.076 888.084 282.988 889.257 282.092 890.75C281.238 892.244 280.577 893.95 280.108 895.87C279.638 897.79 279.404 899.838 279.404 902.014C279.404 904.19 279.638 906.238 280.108 908.158C280.577 910.078 281.238 911.764 282.092 913.214C282.988 914.665 284.076 915.817 285.356 916.67C286.636 917.481 288.108 917.886 289.772 917.886ZM329.167 923.966L328.655 918.846L332.943 917.95V885.694L328.719 885.246V879.742H343.631C347.685 879.742 351.055 880.34 353.743 881.534C356.474 882.729 358.501 884.393 359.823 886.526C361.189 888.66 361.871 891.156 361.871 894.014C361.871 897.172 361.061 899.817 359.439 901.95C357.818 904.084 355.621 905.705 352.847 906.814L358.607 918.078L362.639 918.782V923.966H352.335L345.551 908.606C344.783 908.649 343.994 908.692 343.183 908.734C342.415 908.777 341.583 908.798 340.687 908.798V918.142L344.271 918.782V923.966H329.167ZM340.687 902.398H342.991C345.466 902.398 347.493 902.057 349.071 901.374C350.693 900.692 351.887 899.732 352.655 898.494C353.466 897.257 353.871 895.806 353.871 894.142C353.871 892.436 353.487 891.006 352.719 889.854C351.994 888.66 350.778 887.764 349.071 887.166C347.365 886.526 345.039 886.185 342.095 886.142H340.687V902.398ZM367.925 923.966L367.157 918.654L371.189 917.822V885.566L367.221 885.118V879.742H395.829L397.045 892.478H392.373L389.813 886.078H378.933V898.174H388.789V904.446H378.933V917.63H390.325L392.629 911.23H397.365L396.021 923.966H367.925ZM423.08 924.222C420.179 924.222 417.427 923.753 414.824 922.814C412.222 921.876 409.918 920.489 407.912 918.654C405.95 916.82 404.392 914.558 403.24 911.87C402.131 909.14 401.576 906.004 401.576 902.462C401.576 898.836 402.152 895.614 403.304 892.798C404.499 889.982 406.099 887.614 408.104 885.694C410.11 883.732 412.371 882.26 414.888 881.278C417.406 880.254 420.03 879.742 422.76 879.742C425.363 879.742 427.539 879.934 429.288 880.318C431.038 880.66 432.275 880.937 433 881.15L434.28 893.886H429.352L425.896 886.27C425.598 886.228 425.278 886.185 424.936 886.142C424.595 886.1 424.04 886.078 423.272 886.078C420.755 886.078 418.451 886.74 416.36 888.062C414.312 889.342 412.67 891.156 411.432 893.502C410.238 895.806 409.598 898.537 409.512 901.694C409.555 904.809 410.131 907.582 411.24 910.014C412.392 912.446 413.992 914.366 416.04 915.774C418.131 917.182 420.563 917.886 423.336 917.886C425.043 917.886 426.75 917.588 428.456 916.99C430.206 916.393 431.678 915.518 432.872 914.366L435.368 919.742C434.6 920.596 433.555 921.364 432.232 922.046C430.952 922.686 429.502 923.22 427.88 923.646C426.302 924.03 424.702 924.222 423.08 924.222ZM457.772 924.222C454.742 924.222 452.076 923.668 449.772 922.558C447.468 921.449 445.526 919.87 443.948 917.822C442.412 915.774 441.238 913.406 440.428 910.718C439.66 907.988 439.276 905.044 439.276 901.886C439.276 898.729 439.66 895.806 440.428 893.118C441.238 890.388 442.412 888.02 443.948 886.014C445.526 884.009 447.468 882.452 449.772 881.342C452.076 880.19 454.742 879.614 457.772 879.614C460.801 879.614 463.446 880.19 465.708 881.342C468.012 882.452 469.932 884.009 471.468 886.014C473.046 888.02 474.22 890.388 474.988 893.118C475.798 895.806 476.204 898.729 476.204 901.886C476.204 905.044 475.798 907.988 474.988 910.718C474.22 913.406 473.046 915.774 471.468 917.822C469.932 919.87 468.012 921.449 465.708 922.558C463.446 923.668 460.801 924.222 457.772 924.222ZM457.772 917.886C459.393 917.886 460.844 917.481 462.124 916.67C463.404 915.817 464.492 914.665 465.388 913.214C466.284 911.764 466.966 910.078 467.436 908.158C467.905 906.238 468.14 904.19 468.14 902.014C468.14 899.838 467.905 897.79 467.436 895.87C466.966 893.95 466.284 892.244 465.388 890.75C464.492 889.257 463.404 888.084 462.124 887.23C460.844 886.377 459.393 885.95 457.772 885.95C456.108 885.95 454.636 886.377 453.356 887.23C452.076 888.084 450.988 889.257 450.092 890.75C449.238 892.244 448.577 893.95 448.108 895.87C447.638 897.79 447.404 899.838 447.404 902.014C447.404 904.19 447.638 906.238 448.108 908.158C448.577 910.078 449.238 911.764 450.092 913.214C450.988 914.665 452.076 915.817 453.356 916.67C454.636 917.481 456.108 917.886 457.772 917.886ZM481.292 923.966L480.78 918.846L485.068 917.95V885.694L480.844 885.246V879.742H495.756C499.81 879.742 503.18 880.34 505.868 881.534C508.599 882.729 510.626 884.393 511.948 886.526C513.314 888.66 513.996 891.156 513.996 894.014C513.996 897.172 513.186 899.817 511.564 901.95C509.943 904.084 507.746 905.705 504.972 906.814L510.732 918.078L514.764 918.782V923.966H504.46L497.676 908.606C496.908 908.649 496.119 908.692 495.308 908.734C494.54 908.777 493.708 908.798 492.812 908.798V918.142L496.396 918.782V923.966H481.292ZM492.812 902.398H495.116C497.591 902.398 499.618 902.057 501.196 901.374C502.818 900.692 504.012 899.732 504.78 898.494C505.591 897.257 505.996 895.806 505.996 894.142C505.996 892.436 505.612 891.006 504.844 889.854C504.119 888.66 502.903 887.764 501.196 887.166C499.49 886.526 497.164 886.185 494.22 886.142H492.812V902.398ZM520.05 923.966L519.282 918.654L523.314 917.822V885.566L519.346 885.054V879.742H530.418C535.495 879.742 539.847 880.553 543.474 882.174C547.143 883.753 549.959 886.142 551.922 889.342C553.927 892.5 554.93 896.51 554.93 901.374C554.93 906.196 554.076 910.292 552.37 913.662C550.706 917.033 548.231 919.593 544.946 921.342C541.703 923.092 537.671 923.966 532.85 923.966H520.05ZM532.53 917.694C535.004 917.694 537.116 917.332 538.866 916.606C540.658 915.838 542.13 914.772 543.282 913.406C544.476 911.998 545.351 910.292 545.906 908.286C546.503 906.281 546.802 904.02 546.802 901.502C546.802 898.174 546.204 895.38 545.01 893.118C543.858 890.814 542.151 889.086 539.89 887.934C537.628 886.74 534.876 886.121 531.634 886.078H531.058V917.63L532.53 917.694ZM572.327 924.222C569.938 924.222 567.634 923.945 565.415 923.39C563.239 922.793 561.319 922.153 559.655 921.47L560.615 909.502L565.735 909.886L566.439 916.862C567.037 917.033 567.826 917.246 568.807 917.502C569.789 917.758 570.855 917.886 572.007 917.886C573.373 917.886 574.631 917.694 575.783 917.31C576.978 916.926 577.938 916.329 578.663 915.518C579.431 914.665 579.815 913.577 579.815 912.254C579.815 911.102 579.538 910.142 578.983 909.374C578.429 908.606 577.597 907.881 576.487 907.198C575.378 906.516 573.927 905.79 572.135 905.022C570.471 904.212 568.893 903.422 567.399 902.654C565.949 901.886 564.669 901.012 563.559 900.03C562.45 899.049 561.575 897.876 560.935 896.51C560.295 895.145 559.975 893.481 559.975 891.518C559.975 889.086 560.615 886.996 561.895 885.246C563.218 883.454 564.989 882.089 567.207 881.15C569.469 880.169 571.943 879.678 574.631 879.678C576.765 879.678 578.834 879.849 580.839 880.19C582.887 880.532 584.743 880.958 586.407 881.47L587.367 893.246H582.247L579.175 886.462C578.578 886.334 577.874 886.228 577.063 886.142C576.253 886.057 575.485 886.014 574.759 886.014C573.309 886.014 572.071 886.249 571.047 886.718C570.066 887.145 569.298 887.742 568.743 888.51C568.231 889.278 567.975 890.132 567.975 891.07C567.975 892.009 568.253 892.841 568.807 893.566C569.362 894.292 570.087 894.932 570.983 895.486C571.922 896.041 572.903 896.553 573.927 897.022C574.994 897.449 576.018 897.918 576.999 898.43C579.517 899.625 581.565 900.841 583.143 902.078C584.765 903.273 585.959 904.617 586.727 906.11C587.495 907.561 587.879 909.268 587.879 911.23C587.879 913.534 587.431 915.518 586.535 917.182C585.682 918.804 584.509 920.148 583.015 921.214C581.522 922.238 579.837 923.006 577.959 923.518C576.082 923.988 574.205 924.222 572.327 924.222ZM609.3 923.966L608.532 918.654L612.564 917.822V885.566L608.596 885.118V879.742H637.204L638.42 892.542H633.876L631.188 886.078H620.308V898.174H630.164V904.446H620.308V917.566L631.06 919.166L630.612 923.966H609.3ZM660.209 924.222C657.18 924.222 654.513 923.668 652.209 922.558C649.905 921.449 647.964 919.87 646.385 917.822C644.849 915.774 643.676 913.406 642.865 910.718C642.097 907.988 641.713 905.044 641.713 901.886C641.713 898.729 642.097 895.806 642.865 893.118C643.676 890.388 644.849 888.02 646.385 886.014C647.964 884.009 649.905 882.452 652.209 881.342C654.513 880.19 657.18 879.614 660.209 879.614C663.239 879.614 665.884 880.19 668.145 881.342C670.449 882.452 672.369 884.009 673.905 886.014C675.484 888.02 676.657 890.388 677.425 893.118C678.236 895.806 678.641 898.729 678.641 901.886C678.641 905.044 678.236 907.988 677.425 910.718C676.657 913.406 675.484 915.774 673.905 917.822C672.369 919.87 670.449 921.449 668.145 922.558C665.884 923.668 663.239 924.222 660.209 924.222ZM660.209 917.886C661.831 917.886 663.281 917.481 664.561 916.67C665.841 915.817 666.929 914.665 667.825 913.214C668.721 911.764 669.404 910.078 669.873 908.158C670.343 906.238 670.577 904.19 670.577 902.014C670.577 899.838 670.343 897.79 669.873 895.87C669.404 893.95 668.721 892.244 667.825 890.75C666.929 889.257 665.841 888.084 664.561 887.23C663.281 886.377 661.831 885.95 660.209 885.95C658.545 885.95 657.073 886.377 655.793 887.23C654.513 888.084 653.425 889.257 652.529 890.75C651.676 892.244 651.015 893.95 650.545 895.87C650.076 897.79 649.841 899.838 649.841 902.014C649.841 904.19 650.076 906.238 650.545 908.158C651.015 910.078 651.676 911.764 652.529 913.214C653.425 914.665 654.513 915.817 655.793 916.67C657.073 917.481 658.545 917.886 660.209 917.886ZM702.989 924.222C698.979 924.222 695.757 923.604 693.325 922.366C690.893 921.086 689.144 919.294 688.077 916.99C687.011 914.644 686.477 911.828 686.477 908.542V885.694L682.317 885.118V879.742H698.573L698.637 885.054L694.221 885.694V908.35C694.221 911.508 694.883 913.897 696.205 915.518C697.571 917.097 699.853 917.886 703.053 917.886C704.76 917.886 706.232 917.566 707.469 916.926C708.707 916.244 709.667 915.198 710.349 913.79C711.032 912.34 711.373 910.505 711.373 908.286V885.63L707.341 885.118V879.742H721.357L721.421 885.182L717.645 886.014V908.542C717.645 911.742 717.069 914.537 715.917 916.926C714.765 919.273 713.101 921.086 710.925 922.366C708.749 923.604 706.104 924.222 702.989 924.222ZM726.675 923.966L725.779 918.718L730.067 917.886V885.758L726.035 885.374V879.742H741.523L756.499 918.014V885.694L752.723 885.182V879.742H766.099L766.995 885.31L762.771 886.078V923.966H750.803L736.339 887.294V917.694L739.795 918.654L739.731 923.966H726.675ZM772.487 923.966L771.719 918.654L775.751 917.822V885.566L771.783 885.054V879.742H782.855C787.933 879.742 792.285 880.553 795.911 882.174C799.581 883.753 802.397 886.142 804.359 889.342C806.365 892.5 807.367 896.51 807.367 901.374C807.367 906.196 806.514 910.292 804.807 913.662C803.143 917.033 800.669 919.593 797.383 921.342C794.141 923.092 790.109 923.966 785.287 923.966H772.487ZM784.967 917.694C787.442 917.694 789.554 917.332 791.303 916.606C793.095 915.838 794.567 914.772 795.719 913.406C796.914 911.998 797.789 910.292 798.343 908.286C798.941 906.281 799.239 904.02 799.239 901.502C799.239 898.174 798.642 895.38 797.447 893.118C796.295 890.814 794.589 889.086 792.327 887.934C790.066 886.74 787.314 886.121 784.071 886.078H783.495V917.63L784.967 917.694Z" fill="#243448" fill-opacity="0.67"/>
<g clip-path="url(#clip0_6_66)">
<path d="M754.034 733.66H733.486L723.708 654.408H754.034V733.66Z" fill="#9E616A"/>
<path d="M764.878 769.259H750.143L747.513 755.348L740.777 769.259H701.697C699.823 769.259 697.999 768.661 696.49 767.551C694.981 766.441 693.867 764.877 693.309 763.089C692.752 761.3 692.781 759.381 693.391 757.61C694.002 755.839 695.163 754.31 696.705 753.245L727.913 731.692V717.628L760.739 719.587L764.878 769.259Z" fill="#2F2E41"/>
<path d="M876.102 707.729L859.614 719.99L804.477 662.229L828.812 644.133L876.102 707.729Z" fill="#9E616A"/>
<path d="M906.047 729.825L894.223 738.618L883.812 729.024L886.707 744.207L855.347 767.527C853.844 768.645 852.023 769.253 850.15 769.262C848.276 769.272 846.449 768.682 844.935 767.58C843.42 766.478 842.298 764.92 841.731 763.134C841.165 761.349 841.184 759.429 841.786 757.655L853.968 721.737L845.575 710.451L873.086 692.435L906.047 729.825Z" fill="#2F2E41"/>
<path d="M777.955 324.764C777.955 324.764 816.939 358.445 798.952 454.46L776.993 548.539L848.608 667.347L825.774 695.127L732.673 566.53L698.935 487.393L689.469 346.544L777.955 324.764Z" fill="#2F2E41"/>
<path d="M717.53 509.945L715.186 546.259L722.361 701.007L756.127 695.126L762.58 584.948L717.53 509.945Z" fill="#2F2E41"/>
<path d="M284.219 752.293L302.594 752.292L311.334 681.419L284.216 681.421L284.219 752.293Z" fill="#FFB6B6"/>
<path d="M279.532 746.294L284.704 746.294L304.896 738.082L315.718 746.292H315.719C321.835 746.293 327.7 748.722 332.025 753.047C336.35 757.371 338.779 763.237 338.78 769.353V770.102L279.533 770.104L279.532 746.294Z" fill="#2F2E41"/>
<path d="M355.424 740.715L373.346 744.76L397.485 677.554L371.033 671.581L355.424 740.715Z" fill="#FFB6B6"/>
<path d="M352.173 733.83L357.218 734.969L378.723 731.407L387.471 741.799L387.472 741.8C393.438 743.147 398.624 746.809 401.889 751.98C405.155 757.151 406.233 763.407 404.886 769.373L404.721 770.104L346.929 757.055L352.173 733.83Z" fill="#2F2E41"/>
<path d="M260.947 319.014C252.332 344.996 253.243 373.199 263.018 403.468L267.196 573.893C267.196 573.893 260.971 685.654 281.06 724.982H310.194L324.619 563.687L326.431 455.424L388.893 546.761L349.109 722.345L384.967 725.551L449.525 535.001L369.873 350.135L260.947 319.014Z" fill="#2F2E41"/>
<path d="M596.935 245.006C619.219 224.925 652.366 214.828 680.17 226.088C651.649 241.922 629.648 267.335 618.06 297.829C613.634 309.606 609.937 323.165 599.05 329.47C592.276 333.393 583.848 333.584 576.253 331.691C568.657 329.797 561.695 326 554.828 322.241L552.874 322.197C561.645 293.51 574.65 265.087 596.935 245.006Z" fill="#E6E6E6"/>
<path d="M680.014 226.698C655.389 229.88 632.393 240.74 614.292 257.736C610.33 261.326 606.959 265.518 604.303 270.157C601.861 274.76 600.697 279.933 600.93 285.138C601.051 289.996 601.736 294.951 600.674 299.753C600.093 302.203 599.002 304.503 597.47 306.502C595.938 308.5 594.002 310.153 591.787 311.35C586.345 314.478 580.105 315.464 573.968 316.216C567.155 317.051 560.065 317.811 554.167 321.632C553.453 322.095 552.776 320.96 553.49 320.497C563.751 313.848 576.735 316.268 587.768 311.83C592.916 309.76 597.472 306.125 599.084 300.63C600.494 295.825 599.792 290.714 599.627 285.797C599.325 280.722 600.27 275.651 602.379 271.026C604.791 266.266 607.995 261.951 611.854 258.267C620.41 249.833 630.239 242.796 640.981 237.415C653.206 231.206 666.403 227.134 680.002 225.375C680.844 225.267 680.851 226.59 680.014 226.698Z" fill="white"/>
<path d="M619.799 251.92C617.359 248.496 616.217 244.317 616.575 240.128C616.932 235.939 618.768 232.014 621.753 229.053C622.359 228.456 623.315 229.37 622.708 229.968C619.923 232.72 618.214 236.376 617.889 240.277C617.563 244.179 618.643 248.068 620.934 251.243C621.431 251.933 620.293 252.607 619.799 251.92Z" fill="white"/>
<path d="M600.545 282.683C609.007 284.182 617.724 282.437 624.956 277.795C625.672 277.335 626.349 278.47 625.634 278.93C618.099 283.747 609.024 285.544 600.222 283.965C599.383 283.814 599.711 282.533 600.545 282.683Z" fill="white"/>
<path d="M653.313 232.956C653.981 234.478 655.016 235.809 656.326 236.832C657.636 237.854 659.179 238.536 660.817 238.815C661.657 238.955 661.328 240.236 660.493 240.097C658.685 239.78 656.982 239.026 655.532 237.899C654.083 236.772 652.931 235.308 652.178 233.634C652.094 233.482 652.071 233.304 652.113 233.135C652.156 232.967 652.261 232.821 652.407 232.727C652.558 232.638 652.738 232.612 652.907 232.655C653.077 232.698 653.223 232.806 653.313 232.956Z" fill="white"/>
<path d="M710.786 322.93C710.259 322.857 709.732 322.784 709.197 322.719C702.103 321.778 694.945 321.414 687.792 321.632C687.239 321.64 686.678 321.657 686.127 321.681C668.9 322.389 651.955 326.289 636.152 333.184C629.866 335.933 623.799 339.156 618.002 342.826C609.997 347.895 601.721 354.027 592.772 356.094C591.841 356.32 590.897 356.489 589.945 356.598L552.971 324.584C552.924 324.469 552.869 324.362 552.821 324.247L551.286 323.036C551.572 322.826 551.873 322.614 552.158 322.404C552.324 322.282 552.497 322.166 552.662 322.043C552.775 321.964 552.888 321.885 552.986 321.807C553.023 321.78 553.061 321.754 553.091 321.736C553.188 321.657 553.287 321.595 553.377 321.525C555.055 320.337 556.745 319.158 558.446 317.989C558.454 317.98 558.454 317.98 558.469 317.979C571.346 308.946 585.249 301.473 599.886 295.716C600.325 295.55 600.771 295.375 601.227 295.224C607.819 292.773 614.6 290.865 621.503 289.519C625.285 288.794 629.102 288.261 632.938 287.921C642.851 287.064 652.838 287.772 662.531 290.018C681.855 294.499 699.53 305.109 709.999 321.657C710.266 322.081 710.526 322.498 710.786 322.93Z" fill="#E6E6E6"/>
<path d="M710.297 323.327C688.72 311.042 663.82 305.868 639.134 308.54C633.81 309.021 628.594 310.338 623.68 312.443C618.959 314.648 614.915 318.078 611.968 322.374C609.139 326.325 606.703 330.695 602.963 333.889C601.025 335.496 598.768 336.675 596.342 337.349C593.916 338.022 591.375 338.176 588.885 337.798C582.658 337.02 577.081 334.05 571.729 330.956C565.786 327.52 559.668 323.858 552.658 323.359C551.809 323.298 551.952 321.984 552.8 322.044C564.996 322.913 573.907 332.662 585.388 335.762C590.745 337.208 596.571 337.049 601.167 333.632C605.185 330.644 607.701 326.141 610.531 322.116C613.344 317.882 617.152 314.402 621.621 311.979C626.412 309.63 631.568 308.114 636.868 307.496C648.777 305.913 660.862 306.212 672.678 308.383C686.178 310.786 699.167 315.481 711.083 322.264C711.821 322.684 711.03 323.744 710.297 323.327Z" fill="white"/>
<path d="M647.032 307.212C647.146 303.009 648.75 298.984 651.558 295.855C654.366 292.726 658.194 290.697 662.36 290.13C663.203 290.018 663.417 291.324 662.572 291.435C658.692 291.956 655.126 293.847 652.517 296.766C649.909 299.685 648.43 303.44 648.347 307.354C648.328 308.205 647.013 308.058 647.032 307.212Z" fill="white"/>
<path d="M613.138 320.182C618.992 326.474 627.002 330.328 635.572 330.977C636.421 331.04 636.278 332.354 635.43 332.291C626.513 331.6 618.185 327.572 612.108 321.011C611.529 320.385 612.562 319.56 613.138 320.182Z" fill="white"/>
<path d="M685.21 312.248C684.827 313.865 684.852 315.552 685.282 317.157C685.712 318.762 686.534 320.235 687.674 321.443C688.26 322.061 687.226 322.886 686.644 322.272C685.39 320.931 684.485 319.303 684.005 317.531C683.526 315.758 683.489 313.896 683.895 312.106C683.92 311.934 684.008 311.778 684.144 311.669C684.279 311.56 684.451 311.507 684.624 311.52C684.798 311.539 684.957 311.627 685.067 311.763C685.176 311.9 685.228 312.074 685.21 312.248Z" fill="white"/>
<path d="M61.3734 751.006C59.6377 757.518 55.0772 762.94 49.5711 766.89C48.6733 767.537 47.7517 768.135 46.818 768.698C46.5307 768.865 46.2435 769.045 45.9442 769.2C45.621 769.392 45.2978 769.572 44.9747 769.739H19.0838C18.617 768.793 18.1621 767.836 17.7073 766.89C6.61122 743.573 -1.18117 718.412 0.147488 692.785C0.674614 682.844 2.76297 673.049 6.33591 663.758C13.446 645.24 26.4214 629.213 44.2684 621.145C44.7113 620.942 45.1781 620.738 45.633 620.547C45.4894 621.061 45.3457 621.564 45.2021 622.079C43.2874 628.976 41.9344 636.018 41.1563 643.134C41.0844 643.684 41.0246 644.235 40.9767 644.798C39.2762 661.959 40.7862 679.288 45.4295 695.897C45.4415 695.933 45.4534 695.981 45.4654 696.017C46.4829 699.691 47.6639 703.31 49.0085 706.873C50.0618 709.686 51.199 712.463 52.4439 715.192C57.6388 726.648 64.6052 738.857 61.3734 751.006Z" fill="#E6E6E6"/>
<path d="M45.9562 621.085C45.7049 621.42 45.4534 621.744 45.2021 622.079C39.9447 629.046 35.4804 636.578 31.8916 644.534C31.7001 644.929 31.5206 645.324 31.365 645.731C26.4477 656.842 23.2897 668.65 22.0045 680.731C21.9906 680.814 21.9826 680.898 21.9806 680.983C21.6813 683.807 21.5018 686.656 21.43 689.505C21.1638 694.845 21.7414 700.193 23.1416 705.353C24.4184 709.567 26.6556 713.427 29.6772 716.629C29.9764 716.952 30.2757 717.275 30.5989 717.586C30.8383 717.838 31.1016 718.089 31.353 718.329C33.7709 720.639 36.4162 722.781 38.6905 725.259C39.7329 726.37 40.6743 727.572 41.5034 728.85C42.8267 730.992 43.6815 733.39 44.0116 735.887C44.3417 738.383 44.1396 740.921 43.4186 743.334C41.7907 749.39 38.0681 754.501 34.2617 759.373C32.3585 761.815 30.3954 764.281 28.6957 766.89C28.0733 767.824 27.4987 768.77 26.9721 769.739H25.4639C25.9666 768.77 26.5172 767.824 27.1157 766.89C31.4847 760.008 37.6971 754.094 40.917 746.518C43.0955 741.406 43.7539 735.613 41.0008 730.598C40.1939 729.139 39.2176 727.781 38.0921 726.552C35.9016 724.074 33.2802 721.955 30.8982 719.717C30.2997 719.154 29.7132 718.58 29.1506 717.981C26.1679 714.951 23.8664 711.319 22.3996 707.328C20.7385 702.259 19.9532 696.944 20.0774 691.612C20.0774 688.212 20.257 684.789 20.5921 681.39C20.6281 680.959 20.6759 680.516 20.7238 680.073C23.1717 658.681 31.3013 638.334 44.2686 621.145C44.5079 620.81 44.7593 620.487 45.0107 620.164C45.5253 619.493 46.4709 620.427 45.9562 621.085Z" fill="white"/>
<path d="M21.2069 681.503C17.0609 680.806 13.2974 678.659 10.5886 675.444C7.87977 672.229 6.40196 668.156 6.41909 663.952C6.42138 663.78 6.49012 663.616 6.61083 663.495C6.73155 663.373 6.89481 663.303 7.06621 663.299C7.23761 663.295 7.40377 663.358 7.52969 663.475C7.65561 663.591 7.73145 663.752 7.74123 663.923C7.71805 667.838 9.095 671.632 11.6236 674.62C14.1522 677.609 17.6658 679.595 21.5303 680.221C22.37 680.358 22.0418 681.639 21.2069 681.503Z" fill="white"/>
<path d="M29.345 716.869C36.3888 711.946 41.3181 704.548 43.15 696.152C43.3308 695.32 44.6125 695.644 44.4319 696.475C42.5093 705.209 37.364 712.897 30.0227 718.005C29.3227 718.491 28.6487 717.353 29.345 716.869Z" fill="white"/>
<path d="M31.4956 644.394C33.0436 644.998 34.7174 645.208 36.3665 645.005C38.0156 644.802 39.5885 644.192 40.9439 643.231C41.6375 642.736 42.3107 643.875 41.6217 644.366C40.1193 645.421 38.3813 646.092 36.5598 646.321C34.7382 646.549 32.8885 646.328 31.1721 645.676C31.0052 645.628 30.8628 645.519 30.7737 645.37C30.6847 645.221 30.6558 645.043 30.6929 644.874C30.7366 644.704 30.8454 644.559 30.9957 644.469C31.146 644.379 31.3256 644.352 31.4956 644.394Z" fill="white"/>
<path d="M135.754 667.373C135.335 667.696 134.904 668.019 134.485 668.354C128.802 672.703 123.482 677.507 118.577 682.718C118.194 683.113 117.811 683.52 117.44 683.927L117.428 683.939C105.798 696.564 96.6025 711.23 90.3045 727.198L90.2686 727.306C90.2566 727.342 90.2447 727.366 90.2327 727.402C87.7363 733.793 85.7237 740.363 84.2118 747.056C82.7515 753.592 81.5545 760.594 79.2683 766.89C78.9212 767.86 78.5381 768.817 78.1311 769.739H24.9131C25.0926 768.793 25.2842 767.836 25.4757 766.89C28.1828 753.021 32.4139 739.492 38.0919 726.552C38.2834 726.121 38.4749 725.69 38.6904 725.259C41.6216 718.865 45.0683 712.72 48.9965 706.885L48.9973 706.881L48.9999 706.877L49.0038 706.874L49.0084 706.873C51.1654 703.69 53.4826 700.617 55.951 697.668C62.3527 690.052 69.9146 683.492 78.3586 678.229C78.4065 678.194 78.4663 678.17 78.5142 678.134C95.3199 667.708 115.238 662.74 134.282 667.038H134.294C134.785 667.145 135.263 667.253 135.754 667.373Z" fill="#E6E6E6"/>
<path d="M135.694 668.007C135.287 668.115 134.88 668.235 134.485 668.354C126.096 670.751 117.999 674.071 110.342 678.253C109.959 678.457 109.576 678.672 109.193 678.888C98.6112 684.794 89.0057 692.3 80.7167 701.14C80.7102 701.146 80.706 701.155 80.7047 701.164C80.609 701.259 80.5012 701.367 80.4175 701.463C78.5023 703.522 76.6589 705.664 74.9113 707.867C71.4928 711.973 68.7384 716.59 66.7479 721.548C65.2269 725.681 64.69 730.111 65.1798 734.488C65.2157 734.931 65.2756 735.362 65.3354 735.805C65.3833 736.152 65.4312 736.499 65.491 736.858C66.281 741.658 67.6456 746.47 67.2626 751.365C67.0295 753.874 66.268 756.305 65.0281 758.498C63.7882 760.691 62.098 762.596 60.0687 764.089C58.6892 765.156 57.2147 766.093 55.6638 766.89C53.4463 768.033 51.1358 768.987 48.7571 769.739H44.053C44.6874 769.56 45.3098 769.38 45.9442 769.2C48.1954 768.565 50.406 767.794 52.5636 766.89C53.7961 766.375 54.9954 765.783 56.1545 765.119C60.9664 762.354 64.9764 758.116 65.8142 752.455C66.5444 747.499 65.1319 742.544 64.294 737.696C64.1504 736.858 64.0187 736.032 63.9469 735.206C63.3754 731.008 63.7225 726.736 64.9643 722.686C66.6866 717.633 69.2615 712.912 72.5772 708.729C74.6283 706.005 76.8177 703.388 79.1367 700.888C79.424 700.565 79.7232 700.242 80.0344 699.919C88.4978 691.015 98.2699 683.455 109.013 677.499H109.025C117.014 673.052 125.489 669.542 134.282 667.038H134.294C134.689 666.918 135.096 666.798 135.491 666.69C136.317 666.475 136.508 667.78 135.694 668.007Z" fill="white"/>
<path d="M79.5609 701.343C76.6698 698.29 74.9578 694.31 74.7306 690.112C74.5034 685.914 75.7759 681.772 78.3207 678.426C78.8379 677.75 79.9116 678.522 79.3937 679.199C77.0183 682.31 75.8334 686.169 76.0529 690.077C76.2725 693.986 77.882 697.688 80.5909 700.514C81.1789 701.129 80.1455 701.954 79.5609 701.343Z" fill="white"/>
<path d="M64.7654 734.48C73.3538 734.79 81.7434 731.852 88.2614 726.25C88.9067 725.695 89.7347 726.726 89.0902 727.28C82.2966 733.096 73.5597 736.137 64.6231 735.795C63.7714 735.762 63.9183 734.447 64.7654 734.48Z" fill="white"/>
<path d="M110.118 677.908C110.99 679.322 112.2 680.497 113.639 681.328C115.078 682.159 116.701 682.619 118.362 682.668C119.214 682.69 119.066 684.005 118.22 683.982C116.385 683.92 114.593 683.409 113.001 682.495C111.41 681.581 110.066 680.29 109.088 678.737C108.983 678.598 108.935 678.425 108.954 678.252C108.973 678.08 109.056 677.921 109.188 677.807C109.325 677.698 109.5 677.648 109.674 677.667C109.848 677.685 110.007 677.772 110.118 677.908Z" fill="white"/>
<path d="M546.284 207.567C545.055 209.182 543.488 210.509 541.691 211.454C539.894 212.398 537.912 212.937 535.885 213.033C533.857 213.128 531.833 212.778 529.956 212.007C528.078 211.236 526.392 210.062 525.017 208.569L479.771 228.248L484.178 202.989L526.469 188.175C529.131 186.031 532.486 184.938 535.9 185.103C539.313 185.268 542.547 186.679 544.99 189.07C547.432 191.46 548.913 194.663 549.152 198.072C549.39 201.481 548.37 204.859 546.284 207.567Z" fill="#FFB8B8"/>
<path d="M516.09 215.453L410.997 262.265L410.772 262.184L290.993 219.501C282.071 214.838 275.269 206.941 271.98 197.427C268.69 187.913 269.162 177.501 273.299 168.323C275.592 163.253 278.934 158.725 283.103 155.039C287.272 151.352 292.174 148.591 297.487 146.936C302.801 145.281 308.404 144.769 313.929 145.436C319.454 146.103 324.775 147.932 329.542 150.804L418.68 204.499L505.116 193.297L516.09 215.453Z" fill="#E6E6E6"/>
<path d="M1032.64 770.709C1032.65 770.896 1032.61 771.081 1032.54 771.254C1032.47 771.428 1032.36 771.585 1032.23 771.717C1032.1 771.85 1031.94 771.954 1031.77 772.026C1031.59 772.097 1031.41 772.134 1031.22 772.133H1.46419C1.08642 772.133 0.724124 771.983 0.456994 771.716C0.189865 771.449 0.0397949 771.087 0.0397949 770.709C0.0397949 770.331 0.189865 769.969 0.456994 769.702C0.724124 769.434 1.08642 769.284 1.46419 769.284H1031.22C1031.41 769.284 1031.59 769.32 1031.77 769.392C1031.94 769.463 1032.1 769.568 1032.23 769.7C1032.36 769.833 1032.47 769.99 1032.54 770.163C1032.61 770.336 1032.65 770.522 1032.64 770.709Z" fill="#CCCCCC"/>
<path d="M375.068 355.594L269.128 338.649C266.349 337.759 263.796 336.278 261.644 334.308C259.492 332.339 257.791 329.927 256.659 327.238C255.527 324.549 254.99 321.647 255.085 318.731C255.181 315.815 255.906 312.954 257.211 310.345L262.016 300.735L260.149 199.773C259.924 186.64 263.162 173.68 269.536 162.196C275.911 150.712 285.197 141.109 296.462 134.353L306.793 128.176L312.014 114.917L360.157 116.092L360.297 133.481L377.538 160.973L377.538 161.087L376.456 310.727L371.704 326.17L378.889 344.132L375.068 355.594Z" fill="#E6E6E6"/>
<path d="M340.494 98.4306C364.652 98.4306 384.237 78.8463 384.237 54.6877C384.237 30.5292 364.652 10.9449 340.494 10.9449C316.335 10.9449 296.751 30.5292 296.751 54.6877C296.751 78.8463 316.335 98.4306 340.494 98.4306Z" fill="#FFB8B8"/>
<path d="M294.944 64.2235C293.64 58.7271 294.239 50.9926 294.976 45.4583C296.909 30.9493 304.966 17.1559 317.208 8.98558C319.529 7.22263 322.287 6.12653 325.185 5.81542C328.081 5.69452 331.22 7.24483 332.109 10.0037C332.839 8.18282 333.934 6.53082 335.327 5.14962C336.72 3.76842 338.381 2.68733 340.208 1.97308C343.877 0.567049 347.824 0.0353205 351.736 0.420046C359.316 1.04492 366.587 3.71052 372.775 8.13394C378.963 12.5574 383.838 18.5736 386.883 25.5442C388.051 28.3197 391.315 18.0675 392.795 20.6901C394.155 23.416 396.529 25.5013 399.407 26.4995C402.308 27.3089 403.486 39.2598 404.627 36.4731C405.513 38.5326 405.863 40.7827 405.645 43.0139C405.427 45.2451 404.648 47.3848 403.38 49.2337C402.112 51.0827 400.397 52.5808 398.394 53.5885C396.392 54.5961 394.167 55.0806 391.926 54.9968C388.974 54.8863 386.151 53.8004 383.234 53.333C372.802 51.6615 361.736 59.2259 359.506 69.5528C358.707 66.5664 357.432 63.7285 355.729 61.1488C354.864 59.8657 353.705 58.8076 352.349 58.0626C350.993 57.3175 349.479 56.907 347.932 56.8652C344.964 56.9762 342.356 58.9167 340.43 61.1779C338.504 63.439 337.058 66.0771 335.118 68.3261C329.426 74.9251 321.727 90.3144 313.614 89.192C307.213 88.3063 296.726 71.7281 294.944 64.2235Z" fill="#2F2E41"/>
<path d="M604.914 257.135C605.221 255.141 604.811 253.102 603.757 251.382C602.704 249.661 601.075 248.369 599.16 247.734L481.361 208.5C480.232 208.123 479.036 207.985 477.85 208.097L448.324 210.889L431.382 212.496L400.119 215.451C398.231 215.632 396.457 216.433 395.074 217.731C393.691 219.029 392.778 220.748 392.478 222.621L376.604 321.776C376.304 323.71 376.672 325.689 377.648 327.385C378.624 329.082 380.149 330.395 381.972 331.108L501.001 377.053C501.559 377.27 502.14 377.426 502.732 377.518C503.594 377.658 504.472 377.665 505.336 377.538L582.249 366.139C584.063 365.876 585.744 365.036 587.043 363.742C588.342 362.448 589.189 360.771 589.459 358.958L604.914 257.135Z" fill="white"/>
<path d="M384.67 324.121L503.698 370.065C503.872 370.133 504.061 370.155 504.245 370.129L581.148 358.731C581.376 358.7 581.588 358.595 581.751 358.432C581.914 358.27 582.02 358.059 582.052 357.831L597.517 256.007C597.552 255.759 597.5 255.506 597.369 255.291C597.238 255.077 597.037 254.915 596.799 254.832L596.007 254.564L478.993 215.607C478.939 215.588 478.884 215.575 478.828 215.568C478.737 215.551 478.645 215.546 478.553 215.553L406.537 222.368L400.822 222.904C400.588 222.929 400.368 223.03 400.196 223.192C400.024 223.354 399.91 223.567 399.871 223.799L384 322.951C383.961 323.193 384.007 323.442 384.128 323.654C384.25 323.867 384.441 324.032 384.67 324.121Z" fill="#243448"/>
<path d="M406.537 222.368L478.553 215.553C478.645 215.546 478.738 215.551 478.828 215.568C478.884 215.575 478.939 215.588 478.993 215.607L596.007 254.564L565.141 257.832L553.59 259.049L520.72 262.521C520.624 262.526 520.528 262.525 520.432 262.518C520.373 262.5 520.315 262.483 520.244 262.464L406.537 222.368Z" fill="#2F2E41"/>
<path d="M381.97 331.114L500.998 377.057C501.558 377.273 502.141 377.425 502.734 377.512C503.597 377.654 504.475 377.665 505.341 377.544L582.243 366.146C584.058 365.882 585.74 365.04 587.04 363.746C588.339 362.452 589.188 360.774 589.459 358.96L604.912 257.135C605.141 255.634 604.968 254.099 604.411 252.686C604.333 252.498 604.255 252.31 604.164 252.133C603.551 250.843 602.618 249.732 601.454 248.904C600.753 248.401 599.98 248.007 599.161 247.735L599.021 247.686L481.367 208.499C480.887 208.346 480.396 208.227 479.898 208.143C479.218 208.046 478.529 208.033 477.846 208.103L448.325 210.886L431.384 212.501L400.115 215.454C398.836 215.573 397.601 215.981 396.502 216.648C396.417 216.689 396.336 216.737 396.26 216.793C396.205 216.828 396.153 216.868 396.104 216.91C395.145 217.565 394.329 218.408 393.706 219.389C393.083 220.369 392.667 221.466 392.481 222.612L376.597 321.775C376.297 323.71 376.666 325.691 377.643 327.388C378.619 329.086 380.146 330.4 381.97 331.114ZM394.589 222.958C394.782 221.769 395.309 220.66 396.109 219.76C396.351 219.471 396.622 219.207 396.917 218.972C397.725 218.319 398.68 217.874 399.699 217.675C399.9 217.633 400.103 217.604 400.308 217.588L452.957 212.615L478.052 210.227C478.222 210.207 478.378 210.21 478.535 210.201C478.915 210.193 479.295 210.221 479.67 210.285C480.014 210.33 480.353 210.411 480.681 210.526L598.474 249.762C598.567 249.795 598.648 249.827 598.741 249.86C599.812 250.258 600.753 250.943 601.462 251.839C602.022 252.525 602.431 253.322 602.662 254.177C602.894 255.032 602.942 255.926 602.804 256.801L587.338 358.637C587.135 359.995 586.501 361.252 585.529 362.222C584.557 363.192 583.3 363.824 581.941 364.025L505.026 375.422C503.926 375.58 502.804 375.452 501.767 375.05L382.738 329.119C381.373 328.582 380.232 327.596 379.501 326.325C378.771 325.053 378.494 323.571 378.717 322.122L394.589 222.958Z" fill="#3F3D56"/>
<path d="M395.848 217.451C395.911 217.27 396.022 217.111 396.169 216.989C396.218 216.95 396.269 216.914 396.323 216.883C396.373 216.864 396.424 216.833 396.474 216.813C396.713 216.717 396.979 216.713 397.221 216.801L399.699 217.675L520.733 260.37L549.06 257.377L564.911 255.706L598.462 252.154L601.462 251.839L602.046 251.775C602.297 251.752 602.548 251.817 602.757 251.96C602.965 252.103 603.116 252.314 603.185 252.557C603.201 252.613 603.212 252.67 603.217 252.728C603.242 252.959 603.191 253.191 603.072 253.39C602.953 253.589 602.773 253.744 602.558 253.832C602.464 253.871 602.364 253.898 602.262 253.911L598.181 254.339L565.141 257.832L553.59 259.049L520.72 262.521C520.624 262.526 520.527 262.525 520.432 262.518C520.373 262.5 520.315 262.483 520.244 262.464L396.917 218.972L396.499 218.824C396.403 218.792 396.314 218.743 396.236 218.678C396.049 218.541 395.911 218.349 395.841 218.128C395.772 217.907 395.774 217.67 395.848 217.451Z" fill="#3F3D56"/>
<path d="M503.059 377.823C502.78 377.779 502.53 377.626 502.364 377.398C502.198 377.171 502.128 376.887 502.17 376.608L519.546 261.297C519.589 261.016 519.741 260.764 519.969 260.596C520.197 260.427 520.483 260.356 520.764 260.399L520.773 260.4C521.052 260.445 521.301 260.597 521.468 260.825C521.634 261.053 521.704 261.337 521.662 261.616L504.285 376.927C504.243 377.207 504.091 377.459 503.863 377.628C503.635 377.796 503.349 377.867 503.068 377.825L503.059 377.823Z" fill="#3F3D56"/>
<path d="M547.104 370.509L535.547 371.728L549.065 257.374C549.065 257.374 564.5 254.58 564.913 255.7C565.167 256.369 547.214 369.775 547.104 370.509Z" fill="#3F3D56"/>
<path d="M396.502 218.822L396.191 270.971L488.51 306.148L521.663 261.616L396.502 218.822Z" fill="#3F3D56"/>
<path d="M601.466 251.841C600.694 250.871 599.655 250.148 598.477 249.762L480.686 210.528C480.356 210.416 480.016 210.334 479.671 210.28C479.296 210.216 478.915 210.187 478.533 210.195L478.724 209.001L479.904 208.148L507.875 187.896L601.289 216.524L601.451 248.905L601.466 251.841Z" fill="#3F3D56"/>
<path d="M401.207 302.539C401.34 302.552 401.47 302.579 401.597 302.621L437.739 314.491C438.191 314.64 438.566 314.962 438.781 315.387C438.996 315.812 439.033 316.305 438.885 316.757C438.736 317.21 438.414 317.585 437.989 317.8C437.564 318.015 437.071 318.052 436.619 317.904L400.477 306.033C400.058 305.895 399.704 305.608 399.483 305.225C399.262 304.843 399.19 304.392 399.28 303.96C399.37 303.528 399.617 303.144 399.972 302.882C400.328 302.619 400.767 302.497 401.207 302.539Z" fill="white"/>
<path d="M547.027 521.304C554.96 521.304 561.391 514.874 561.391 506.941C561.391 499.008 554.96 492.577 547.027 492.577C539.094 492.577 532.663 499.008 532.663 506.941C532.663 514.874 539.094 521.304 547.027 521.304Z" fill="#F2F2F2"/>
<path d="M180.749 573.972C188.682 573.972 195.113 567.541 195.113 559.608C195.113 551.675 188.682 545.244 180.749 545.244C172.816 545.244 166.385 551.675 166.385 559.608C166.385 567.541 172.816 573.972 180.749 573.972Z" fill="#F2F2F2"/>
<path d="M479.996 98.7679C487.929 98.7679 494.36 92.337 494.36 84.4041C494.36 76.4711 487.929 70.0402 479.996 70.0402C472.063 70.0402 465.632 76.4711 465.632 84.4041C465.632 92.337 472.063 98.7679 479.996 98.7679Z" fill="#F2F2F2"/>
<path d="M503.563 323.665C501.701 324.473 499.685 324.864 497.656 324.809C495.626 324.755 493.634 324.256 491.819 323.347C490.003 322.439 488.409 321.144 487.149 319.554C485.888 317.963 484.991 316.115 484.522 314.14L435.431 309.18L451.627 289.303L495.761 297.06C499.131 296.492 502.592 297.179 505.489 298.992C508.386 300.805 510.517 303.618 511.479 306.897C512.44 310.176 512.166 313.695 510.707 316.785C509.248 319.875 506.706 322.323 503.563 323.665Z" fill="#FFB8B8"/>
<path d="M473.368 315.779L358.807 305.224L358.649 305.043L275.039 209.24C269.537 200.81 267.465 190.596 269.248 180.688C271.031 170.78 276.534 161.929 284.631 155.946C289.111 152.645 294.239 150.329 299.678 149.152C305.117 147.975 310.744 147.963 316.188 149.118C321.632 150.272 326.77 152.567 331.263 155.85C335.757 159.133 339.504 163.331 342.258 168.166L393.755 258.592L474.63 291.087L473.368 315.779Z" fill="#E6E6E6"/>
<path d="M760.913 131.542C758.068 110.674 754.5 88.2692 739.781 73.2049C735.111 68.4251 729.521 64.6404 723.349 62.0792C717.177 59.518 710.549 58.2332 703.867 58.3024C697.185 58.3716 690.586 59.7932 684.467 62.4816C678.349 65.1701 672.839 69.0696 668.269 73.9451C657.555 85.3749 652.823 101.424 652.39 117.084C651.957 132.745 655.445 148.231 659.314 163.412C679.79 163.821 700.114 159.82 718.907 151.682C723.607 149.642 728.23 147.336 733.195 146.073C738.16 144.809 741.699 147.989 746.318 150.206L748.853 145.352C750.928 149.214 757.355 148.069 759.686 144.356C762.016 140.642 761.506 135.887 760.913 131.542Z" fill="#2F2E41"/>
<path d="M679.749 248.02L596.109 249.808C594.824 247.588 592.922 245.789 590.634 244.63C588.346 243.471 585.77 243.002 583.22 243.28C580.67 243.558 578.256 244.571 576.271 246.196C574.287 247.822 572.817 249.988 572.042 252.433C571.266 254.878 571.218 257.496 571.903 259.968C572.588 262.44 573.977 264.659 575.901 266.356C577.824 268.053 580.199 269.155 582.737 269.526C585.275 269.898 587.867 269.524 590.196 268.45C601.289 269.081 688.076 281.398 693.253 273.46C698.509 265.403 726.559 236.969 726.559 236.969L704.998 206.273L679.749 248.02Z" fill="#9E616A"/>
<path d="M700.131 152.189C721.834 152.189 739.428 134.595 739.428 112.892C739.428 91.1883 721.834 73.5944 700.131 73.5944C678.428 73.5944 660.834 91.1883 660.834 112.892C660.834 134.595 678.428 152.189 700.131 152.189Z" fill="#9E616A"/>
<path d="M763.072 188.503C758.441 179.287 756.191 167.901 746.318 164.913C739.651 162.895 712.686 165.919 706.61 169.325C696.503 174.99 705.662 185.607 699.699 195.541C693.217 206.342 675.602 228.015 669.12 238.815C664.664 246.24 679.674 268.033 677.264 276.351C674.855 284.668 674.739 294.003 678.844 301.628C682.517 308.452 677.202 314.489 680.897 321.303C684.738 328.388 689.453 354.881 685.878 362.105L683.484 369.287C707.24 370.683 727.215 342.302 750.824 339.312C756.688 338.57 762.777 337.6 767.609 334.196C774.726 329.182 777.54 320.084 779.299 311.558C787.762 269.878 782.051 226.565 763.072 188.503Z" fill="#3F3D56"/>
<path d="M798.689 285.821C795.38 276.788 789.39 237.299 789.39 237.299L751.895 236.199L770.226 281.412L720.204 351.439C720.204 351.439 720.297 351.593 720.465 351.867C717.835 351.445 715.139 351.827 712.729 352.963C710.32 354.098 708.309 355.935 706.961 358.232C705.612 360.529 704.988 363.179 705.171 365.837C705.354 368.494 706.334 371.034 707.985 373.125C709.635 375.216 711.878 376.76 714.42 377.555C716.962 378.35 719.685 378.36 722.233 377.582C724.78 376.804 727.034 375.275 728.698 373.195C730.362 371.115 731.36 368.582 731.561 365.926C731.745 366.031 731.96 366.069 732.169 366.034C732.379 365.998 732.569 365.89 732.707 365.729C738.273 358.744 801.998 294.853 798.689 285.821Z" fill="#9E616A"/>
<path d="M802.501 260.881C799.06 246.356 795.593 231.752 789.791 217.998C783.988 204.245 775.682 191.254 763.999 181.963C760.264 178.992 756.089 176.37 751.406 175.446C746.724 174.523 741.448 175.556 738.16 179.015C732.897 184.549 734.481 193.433 736.411 200.821C742.101 222.607 747.792 244.393 753.483 266.178C769.917 264.437 786.351 262.695 802.784 260.952L802.501 260.881Z" fill="#3F3D56"/>
<path d="M748.283 118.342C746.836 108.836 745.324 99.2497 741.924 90.2985C738.524 81.3472 733.044 72.9631 725.183 67.8923C712.736 59.864 696.62 61.4124 682.665 66.0305C671.873 69.6019 661.337 75.0302 653.727 83.757C646.116 92.4839 641.841 104.936 644.672 116.347C659.559 112.83 674.445 109.313 689.331 105.796L687.701 106.947C692.589 109.384 696.857 112.903 700.182 117.236C703.507 121.57 705.801 126.603 706.89 131.956C707.954 137.373 707.801 142.959 706.442 148.31C705.083 153.661 702.552 158.642 699.031 162.895C709.183 159.293 719.336 155.692 729.488 152.091C735.755 149.868 742.462 147.306 746.177 141.604C750.486 134.994 749.485 126.231 748.283 118.342Z" fill="#2F2E41"/>
</g>
<defs>
<clipPath id="clip0_6_66">
<rect width="1032.64" height="771.801" fill="white" transform="translate(0 0.332581)"/>
</clipPath>
</defs>
</svg>
